<svg xmlns="http://www.w3.org/2000/svg" width="20" height="20"><path d="M10.5 15.638a17.429 17.429 0 013.23.4 13.141 13.141 0 01-3.075 3.926c-.052 0-.1.009-.155.012zm-1.181 4.325a13.13 13.13 0 01-3.075-3.926 17.342 17.342 0 013.23-.4v4.337c-.052-.002-.103-.008-.155-.011zm5.432-3.669A17.3 17.3 0 0117 17.11a9.983 9.983 0 01-4.592 2.579 14.133 14.133 0 002.343-3.395zm-11.78.817a17.308 17.308 0 012.253-.817 14.115 14.115 0 002.339 3.4 9.981 9.981 0 01-4.592-2.583zm12.2-1.761A14.287 14.287 0 0016.2 10.5h3.776a9.954 9.954 0 01-2.245 5.816 18.355 18.355 0 00-2.559-.966zM0 10.5h3.776A14.309 14.309 0 004.8 15.35a18.161 18.161 0 00-2.556.967A9.954 9.954 0 010 10.5zm10.5 4.111V10.5h4.671a13.26 13.26 0 01-1 4.585 18.4 18.4 0 00-3.671-.473zM4.8 10.5h4.674v4.111a18.41 18.41 0 00-3.67.474A13.234 13.234 0 014.8 10.5zm11.4-1.026a14.282 14.282 0 00-1.025-4.849 18.343 18.343 0 002.556-.967 9.959 9.959 0 012.246 5.816zm-5.7 0V5.362a18.335 18.335 0 003.669-.474 13.246 13.246 0 011 4.586zm-5.7 0a13.256 13.256 0 011-4.586 18.41 18.41 0 003.67.474v4.112zm-4.8 0a9.952 9.952 0 012.246-5.815 18.343 18.343 0 002.554.966 14.3 14.3 0 00-1.024 4.849zM10.5 0c.052 0 .1.008.155.012a13.137 13.137 0 013.075 3.926 17.277 17.277 0 01-3.23.4zM6.245 3.937A13.13 13.13 0 019.319.012c.051 0 .1-.009.155-.012v4.337a17.343 17.343 0 01-3.229-.4zm0 0zM2.971 2.864A10 10 0 017.563.284a14.133 14.133 0 00-2.339 3.4 17.177 17.177 0 01-2.253-.82zm9.441-2.58A9.991 9.991 0 0117 2.864a17.209 17.209 0 01-2.253.816A14.129 14.129 0 0012.412.284z" fill="#05164d"/></svg>