<svg xmlns="http://www.w3.org/2000/svg" viewBox="0 0 139 24"><path data-name="Path 888" d="M16.517 9.535c-.09 0-.167 0-.209.007a6.25 6.25 0 01-.234.382 27.186 27.186 0 014.963.447l-.484.467a23.842 23.842 0 00-4.463-.383h-.345a5.581 5.581 0 01-.314.407c.145-.01.427-.014.814-.014a24.419 24.419 0 013.966.318l-.484.47a23.419 23.419 0 00-3.445-.255c-.4 0-.864.015-1.275.038-.092.107-.335.369-.409.45a17.814 17.814 0 011.858-.083 19.9 19.9 0 012.907.2l-.484.465a18.4 18.4 0 00-2.152-.129 8.491 8.491 0 00-4.715 1.294 8.383 8.383 0 005.943 2.464h.209l-.78.754a25.885 25.885 0 01-9.473-3.961 30.957 30.957 0 00-5.862-3.354l-.014-.553 1.453.625.5-.394 4.749 2.176-.31.247-2.438-1.058-.24.187 1.267.706a5.484 5.484 0 002.635.863c1.644 0 3.12-1.167 4.072-3.216a18.512 18.512 0 012.4-.136 30.794 30.794 0 015.789.569l-.505.488a29 29 0 00-4.882-.488m-4.616 13.556a11.188 11.188 0 1111.188-11.188 11.19 11.19 0 01-11.188 11.188m0-23.091a11.9 11.9 0 1011.9 11.9A11.891 11.891 0 0011.909 0m31.44 16.641h6.824v3.2h-10.5V3.969h3.676zm15.077-8.23h3.423v11.426H58.63v-1.315a3.381 3.381 0 01-3.242 1.656c-2.924 0-4.443-1.315-4.443-5.079V8.411h3.423v6.529c0 1.52.657 2.2 2.04 2.2 1.247 0 2.018-.679 2.018-2.2zm6.053-.431c0-2.765 1.745-4.239 4.489-4.239a6.844 6.844 0 011.451.136v2.765s-.475-.045-.884-.045c-1.065 0-1.633.363-1.633 1.361v.452h2.517v2.789h-2.52v8.637h-3.423v-8.637h-1.727V8.411h1.722zm11.971.431h2.599v2.788h-2.6v4.444c0 1.224.634 1.542 1.633 1.542.408 0 .974-.068.974-.068v2.742a8.288 8.288 0 01-1.631.182c-2.744 0-4.4-1.247-4.4-4.014v-4.828h-1.724V8.411h1.724V5.079h3.424zm10.186-.34c2.9 0 4.421 1.315 4.421 5.079v6.687h-3.423v-6.528c0-1.52-.659-2.2-2.086-2.2-1.292 0-2.063.679-2.063 2.2v6.528h-3.423V3.991h3.446v5.531a3.51 3.51 0 013.128-1.451m13.15 7.323c0 1.247-1.179 2.176-2.992 2.176-.884 0-1.406-.407-1.406-1.179 0-.588.363-1.088 1.519-1.246l1.972-.273a5.715 5.715 0 00.907-.181zm-1.9-7.323c-3.378 0-5.011 1.292-5.147 3.718h3.332c.046-.634.409-1.111 1.815-1.111 1.247 0 1.836.409 1.836 1.02 0 .545-.341.748-1.179.839l-2.176.227c-2.948.318-4.285 1.542-4.285 3.764 0 2.063 1.27 3.65 3.968 3.65a4.462 4.462 0 003.877-1.769v1.428h3.122v-7.5c0-3.151-1.836-4.262-5.168-4.262m13.084 0c2.971 0 4.489 1.315 4.489 5.079v6.687h-3.424v-6.532c0-1.52-.657-2.2-2.085-2.2-1.293 0-2.063.679-2.063 2.2v6.528h-3.423V8.411h3.219v1.316a3.408 3.408 0 013.287-1.656m11.71 4.6c2.9.386 4.353 1.293 4.353 3.673 0 2.4-1.7 3.832-5.306 3.832-3.921 0-5.3-1.565-5.372-3.855h3.378c.09.839.679 1.247 1.994 1.247 1.338 0 1.883-.316 1.883-.952 0-.59-.454-.861-1.633-1.02l-1.2-.159c-2.516-.34-3.968-1.313-3.968-3.582 0-2.176 1.611-3.786 4.989-3.786 3.128 0 4.806 1.247 4.965 3.718h-3.333c-.113-.657-.475-1.065-1.631-1.065-1.134 0-1.565.386-1.565.884s.272.77 1.247.906zm12.923 2.721c0 1.247-1.179 2.176-2.992 2.176-.884 0-1.406-.407-1.406-1.179 0-.588.363-1.088 1.519-1.246l1.972-.273a5.718 5.718 0 00.907-.181zm-1.9-7.323c-3.378 0-5.011 1.292-5.147 3.718h3.333c.045-.634.407-1.11 1.813-1.11 1.247 0 1.837.407 1.837 1.02 0 .543-.34.747-1.179.838l-2.176.227c-2.948.318-4.285 1.542-4.285 3.764 0 2.063 1.27 3.65 3.968 3.65a4.462 4.462 0 003.877-1.769v1.428h3.128v-7.5c0-3.151-1.836-4.262-5.168-4.262" fill="#05164d"/></svg>