<svg width="98" height="56" viewBox="0 0 98 56" fill="none" xmlns="http://www.w3.org/2000/svg">
<mask id="mask0_530_1976" style="mask-type:luminance" maskUnits="userSpaceOnUse" x="0" y="0" width="98" height="56">
<path d="M94.4533 0H2.98667C1.33718 0 0 1.33718 0 2.98667V53.0133C0 54.6628 1.33718 56 2.98667 56H94.4533C96.1028 56 97.44 54.6628 97.44 53.0133V2.98667C97.44 1.33718 96.1028 0 94.4533 0Z" fill="white"/>
</mask>
<g mask="url(#mask0_530_1976)">
<path d="M94.4533 0H2.98667C1.33718 0 0 1.33718 0 2.98667V53.0133C0 54.6628 1.33718 56 2.98667 56H94.4533C96.1028 56 97.44 54.6628 97.44 53.0133V2.98667C97.44 1.33718 96.1028 0 94.4533 0Z" fill="white"/>
<path d="M0 2.98667C0 1.33718 1.33718 0 2.98667 0H94.4533C96.1029 0 97.44 1.33718 97.44 2.98667V53.0133C97.44 54.6629 96.1029 56 94.4533 56H2.98667C1.33718 56 0 54.6629 0 53.0133V2.98667Z" fill="#DCDCDC"/>
<path d="M0 5.6H97.44V16.8H0V5.6Z" fill="#333333"/>
<path d="M3.73334 25.2H72.8V36.4H3.73334V25.2Z" fill="white"/>
<path d="M66.3889 31.9107C66.4457 32.3859 66.7081 32.62 67.304 32.6058C67.9353 32.6058 68.2261 32.3079 68.2261 31.8043C68.2261 31.3148 67.9424 31.0311 67.304 31.0311H66.8358V30.3289H67.304C67.8572 30.3289 68.0771 30.0522 68.0771 29.6337C68.0771 29.2223 67.8572 28.9315 67.304 28.9315C66.8429 28.9315 66.623 29.1017 66.5521 29.4351L65.7434 29.4422C65.8144 28.7683 66.2683 28.1867 67.304 28.1867C68.2545 28.1867 68.9 28.6832 68.9 29.5699C68.9 30.1019 68.6659 30.4849 68.2758 30.6764C68.7581 30.8254 69.056 31.2652 69.056 31.861C69.056 32.8257 68.4247 33.3506 67.304 33.3506C66.1052 33.3506 65.6512 32.769 65.5661 31.9107H66.3889Z" fill="#333333"/>
<path d="M61.2746 29.655C61.3314 28.8038 61.7428 28.1867 62.8423 28.1867C63.8779 28.1867 64.4312 28.7825 64.4312 29.7188C64.4312 30.4565 64.0694 31.0169 63.4594 31.6411L63.0622 32.0313C62.8919 32.2015 62.6366 32.4214 62.4238 32.5562V32.5703C62.6933 32.542 63.0905 32.5278 63.431 32.5278H64.5163V33.2513H61.3243V32.6413L62.7997 31.1659C63.2679 30.6906 63.6013 30.2863 63.6013 29.7259C63.6013 29.2932 63.3955 28.9315 62.8565 28.9315C62.3528 28.9315 62.1117 29.1585 62.0762 29.655H61.2746Z" fill="#333333"/>
<path d="M59.1528 29.2932C59.018 29.4351 58.8478 29.5911 58.6634 29.7188L58.0533 30.1728V29.2578L59.3159 28.286H59.9331V33.2513H59.1244V29.9955C59.1244 29.7401 59.1386 29.4989 59.167 29.2932H59.1528Z" fill="#333333"/>
<path fill-rule="evenodd" clip-rule="evenodd" d="M75.6833 32.3036L73.4621 32.0139C73.5177 31.587 73.5467 31.1507 73.5467 30.7067C73.5467 30.2626 73.5177 29.8263 73.4621 29.3994L75.6833 29.1097C75.7516 29.6324 75.7867 30.1655 75.7867 30.7067C75.7867 31.2478 75.7516 31.7809 75.6833 32.3036ZM74.8589 26.0264L72.7897 26.8845C72.4536 26.0738 72.0132 25.3161 71.4846 24.6282L73.2607 23.2633C73.9071 24.1046 74.4468 25.0324 74.8589 26.0264ZM71.0033 21.006L69.6384 22.7821C68.9506 22.2535 68.1929 21.8131 67.3822 21.4769L68.2403 19.4077C69.2343 19.8199 70.162 20.3595 71.0033 21.006ZM65.1569 18.5833L64.8672 20.8046C64.4403 20.7489 64.0041 20.72 63.56 20.72C63.1159 20.72 62.6797 20.7489 62.2528 20.8046L61.9631 18.5833C62.4857 18.5152 63.0189 18.48 63.56 18.48C64.1011 18.48 64.6343 18.5152 65.1569 18.5833ZM58.8797 19.4077L59.7378 21.4769C58.9271 21.8131 58.1694 22.2535 57.4816 22.7821L56.1167 21.006C56.958 20.3595 57.8857 19.8199 58.8797 19.4077ZM53.8593 23.2633L55.6354 24.6282C55.1068 25.3161 54.6665 26.0738 54.3303 26.8845L52.2611 26.0264C52.6732 25.0324 53.2129 24.1046 53.8593 23.2633ZM51.4367 29.1097C51.3684 29.6324 51.3333 30.1655 51.3333 30.7067C51.3333 31.2478 51.3684 31.7809 51.4367 32.3036L53.6579 32.0139C53.6023 31.587 53.5733 31.1507 53.5733 30.7067C53.5733 30.2626 53.6023 29.8263 53.6579 29.3994L51.4367 29.1097ZM52.2611 35.387L54.3303 34.5289C54.6665 35.3395 55.1068 36.0972 55.6354 36.7851L53.8593 38.15C53.2129 37.3087 52.6732 36.381 52.2611 35.387ZM56.1167 40.4074L57.4816 38.6312C58.1694 39.1599 58.9271 39.6002 59.7378 39.9364L58.8797 42.0056C57.8857 41.5934 56.958 41.0538 56.1167 40.4074ZM61.9631 42.8299L62.2528 40.6088C62.6797 40.6644 63.1159 40.6933 63.56 40.6933C64.0041 40.6933 64.4403 40.6644 64.8672 40.6088L65.1569 42.8299C64.6343 42.8982 64.1011 42.9333 63.56 42.9333C63.0189 42.9333 62.4857 42.8982 61.9631 42.8299ZM68.2403 42.0056L67.3822 39.9364C68.1929 39.6002 68.9506 39.1599 69.6384 38.6312L71.0033 40.4074C70.162 41.0538 69.2343 41.5934 68.2403 42.0056ZM73.2607 38.15C73.9071 37.3087 74.4468 36.381 74.8589 35.387L72.7897 34.5289C72.4536 35.3395 72.0132 36.0972 71.4846 36.7851L73.2607 38.15Z" fill="#05164D"/>
</g>
</svg>
