<svg xmlns="http://www.w3.org/2000/svg" viewBox="0 0 1024 1024">
    <path fill="#051446"
          d="M642 205Q702 231 747.5 276.5T818 380L819 382Q831 411 838 444T845 512T838 580T818 644L819 642Q793 702 747.5 747.5T644 818L642 819Q613 831 580 838T512 845T444 838T380 818L382 819Q322 793 276.5 747.5T206 644L205 642Q193 613 186 580T179 512T186 444T206 380L205 382Q231 322 276.5 276.5T380 206L382 205Q411 193 444 186T512 179T580 186T644 206L642 205zM642 475Q645 470 647 464L651 452V451Q652 445 653 438T654 424V423Q654 416 653 409.5T651 396V397Q649 390 647 384T643 373V374Q640 368 637 363T630 353V354Q627 349 623 345T615 338H614Q610 334 605.5 330.5T596 324H595Q590 321 584.5 319T574 315H573Q568 313 561.5 311.5T549 309H548Q542 308 535.5 307.5T522 307V307V307V307H520Q512 307 503 308T486 310H487Q479 311 471.5 313.5T457 319L458 318Q451 322 445 325.5T434 332H435Q429 336 424.5 340T416 349V349Q412 353 408.5 358T402 368H401Q398 373 395.5 378.5T391 390V391Q389 395 387.5 400.5T385 411L384 413Q383 418 382 423.5T381 435V435H454Q454 433 454.5 430.5T455 425Q456 422 456.5 419.5T458 415V415Q459 412 460.5 409T463 403V404Q464 401 465.5 398.5T469 394V394L473 390T478 386V386Q480 384 483 382.5L488 380H489Q492 378 495.5 377T503 376V375Q507 375 511 374.5T519 374H522Q528 374 534.5 375T547 378H546Q552 380 556.5 382.5T565 389V389L571 397T576 406V406Q577 410 578 415T579 426V426V426V426V427Q579 431 578.5 434.5T577 441V441Q576 445 574.5 448T571 454V453Q569 457 566 460L560 466Q554 472 546 479L529 492Q526 494 523.5 496T518 501V501Q514 505 510 510Q508 512 506 514.5T503 519L502 520Q501 522 499.5 524.5T497 530V530L493 542Q492 545 491.5 548.5T491 555V556Q490 563 489 571V589H560V588Q560 583 560.5 578.5T561 569V570Q562 566 563 562.5T565 555V556Q566 553 568 550T572 545V545L583 534L607 516Q613 511 618 506.5T628 496V496Q632 492 635.5 486.5T642 476V475zM563 614H486V691H563V614z"/>
</svg>