<svg width="29" height="18" viewBox="0 0 29 18" fill="none" xmlns="http://www.w3.org/2000/svg">
<g clip-path="url(#clip0_3398_26160)">
<path d="M28.2711 8.43929L21.5719 0.61228C21.4198 0.379442 21.1751 0.225008 20.8837 0.225008C20.4394 0.225008 20.079 0.585353 20.079 1.02965C20.079 1.26407 20.1796 1.47473 20.3388 1.62204L26.4068 8.97862L20.4061 16.1958H17.8132L23.4956 9.58527C23.6532 9.41104 23.7236 9.20829 23.7197 9.00872C23.7236 8.80914 23.6555 8.62699 23.5011 8.44008C23.5011 8.44008 16.7084 0.621784 16.7068 0.619408C16.5112 0.384194 16.3092 0.225008 16.0146 0.225008H11.2581C10.8138 0.225008 10.4534 0.585353 10.4534 1.02965C10.4534 1.16507 10.4717 1.30525 10.5453 1.40346L16.8486 9.03802L11.4759 15.483C11.4442 15.5147 10.9817 16.1744 10.1675 16.1744H3.71143C2.83868 16.1744 2.11561 15.4933 2.11561 14.5889V3.41822C2.11561 2.631 2.83868 1.82241 3.73123 1.82241H7.76472C8.23514 1.82241 8.56935 1.50087 8.56935 1.03044C8.56935 0.56001 8.23514 0.209961 7.76472 0.209961L3.69163 0.2258C1.78299 0.2258 0.5 1.80102 0.5 3.40159V14.5905C0.5 16.3138 2.01978 17.7821 3.69163 17.7821H10.1485C10.4725 17.7821 10.7679 17.7346 11.0347 17.6586C11.0728 17.6483 11.11 17.6364 11.1472 17.6245C12.0318 17.3378 12.5648 16.7486 12.6686 16.6243L18.7137 9.57814C19.0004 9.25423 19.0257 8.8028 18.7192 8.43216L12.9877 1.82161H15.6274L21.6035 9.00872L15.3153 16.595C15.3153 16.595 15.3169 16.6037 15.3256 16.614C15.267 16.7256 15.2338 16.8532 15.2338 16.9878C15.2338 17.4329 15.5941 17.7924 16.0392 17.7924H20.795C21.0896 17.7924 21.347 17.634 21.4871 17.398C21.4887 17.3964 21.4903 17.3941 21.4919 17.3925L28.264 9.59636C28.264 9.59636 28.2711 9.58844 28.2743 9.58448H28.2751C28.5942 9.23364 28.557 8.76321 28.2711 8.4385V8.43929Z" fill="#05164D"/>
</g>
<defs>
<clipPath id="clip0_3398_26160">
<rect width="28" height="17.5825" fill="white" transform="translate(0.5 0.209961)"/>
</clipPath>
</defs>
</svg>
