<svg id="Ebene_1" data-name="Ebene 1" xmlns="http://www.w3.org/2000/svg" xmlns:xlink="http://www.w3.org/1999/xlink" viewBox="0 0 57.13 57.13"><defs><style>.cls-1{fill:none;}.cls-2{clip-path:url(#clip-path);}.cls-3{fill:#1d1d1b;}.cls-4{fill:#db2f34;}</style><clipPath id="clip-path" transform="translate(-6.43 -6.43)"><path class="cls-1" d="M.5,35A34.5,34.5,0,1,0,35,.5,34.5,34.5,0,0,0,.5,35"/></clipPath></defs><g class="cls-2"><polygon class="cls-3" points="32.52 12.63 35.98 13.05 35.98 10.23 32.52 10.65 32.52 12.63"/><rect class="cls-3" x="31.04" y="10.16" width="0.99" height="2.96"/><rect class="cls-3" x="27.59" y="13.12" width="1.97" height="1.98"/><path class="cls-3" d="M34.9,37.45a1.1,1.1,0,0,0-.34-.37.91.91,0,0,0-.54-.14.86.86,0,0,0-.52.14,1.1,1.1,0,0,0-.34.37A2,2,0,0,0,33,38a3.51,3.51,0,0,0,0,.55,2.65,2.65,0,0,0,0,.56,1.4,1.4,0,0,0,.17.51,1,1,0,0,0,.33.37,1,1,0,0,0,1.08,0,1,1,0,0,0,.34-.37,1.92,1.92,0,0,0,.18-.51,3.11,3.11,0,0,0,0-1.11,1.73,1.73,0,0,0-.18-.5" transform="translate(-6.43 -6.43)"/><path class="cls-3" d="M37,24.34V22H33v2.31a5.91,5.91,0,0,0-4,5.56v.93a6.94,6.94,0,0,1,4-12.26v.5H37v-2H33v.56a7.86,7.86,0,0,0-4,14.33V52.13H40.92V29.89a5.91,5.91,0,0,0-4-5.55M35.89,39.41a2.09,2.09,0,0,1-.37.71,1.74,1.74,0,0,1-.63.47,2,2,0,0,1-.87.17,2.14,2.14,0,0,1-.87-.16,1.8,1.8,0,0,1-.62-.46,2.09,2.09,0,0,1-.37-.71,3.47,3.47,0,0,1,0-1.81,2.11,2.11,0,0,1,.38-.71,1.62,1.62,0,0,1,.62-.47,2,2,0,0,1,.87-.17,2.16,2.16,0,0,1,.88.16,1.62,1.62,0,0,1,.62.47,2.17,2.17,0,0,1,.37.71,3.26,3.26,0,0,1,.12.9,2.84,2.84,0,0,1-.13.9M38,41.19H36.43v-.06a.9.9,0,0,1,.06-.34,1.08,1.08,0,0,1,.16-.28l.23-.24.26-.22.21-.2a.39.39,0,0,0,.1-.27.29.29,0,0,0-.07-.22l-.19-.08-.18.07-.09.16v.09h-.48l0-.2.12-.21A.62.62,0,0,1,36.8,39a1.15,1.15,0,0,1,.4-.07.73.73,0,0,1,.54.18.6.6,0,0,1,.19.46.64.64,0,0,1-.07.31,1.5,1.5,0,0,1-.19.25l-.24.22-.24.21L37,40.8h1Z" transform="translate(-6.43 -6.43)"/><path class="cls-4" d="M35,11.19A23.81,23.81,0,1,1,11.2,35,23.84,23.84,0,0,1,35,11.19m0-4.76A28.57,28.57,0,1,0,63.57,35,28.57,28.57,0,0,0,35,6.43" transform="translate(-6.43 -6.43)"/></g></svg>