<svg id="Ebene_1" data-name="Ebene 1" xmlns="http://www.w3.org/2000/svg" xmlns:xlink="http://www.w3.org/1999/xlink" viewBox="0 0 69.8 69.8"><defs><style>.cls-1{fill:none;}.cls-2{clip-path:url(#clip-path);}.cls-3{fill:#fff;}.cls-4{fill:#1d1d1b;}.cls-5{fill:#db2f34;}</style><clipPath id="clip-path" transform="translate(-0.1 -0.1)"><path class="cls-1" d="M.5,35A34.5,34.5,0,1,0,35,.48,34.51,34.51,0,0,0,.5,35"/></clipPath></defs><g class="cls-2"><rect class="cls-3" width="69.8" height="69.8"/><path class="cls-4" d="M26.87,41.46a.95.95,0,0,0,.67-1.62.94.94,0,0,0-1.34,0,1,1,0,0,0,.67,1.62" transform="translate(-0.1 -0.1)"/><path class="cls-4" d="M24.27,44.11a.93.93,0,0,0,.67-.28.94.94,0,0,0,0-1.34,1,1,0,0,0-.67-.28,1,1,0,0,0-.67.28,1,1,0,0,0,0,1.34,1,1,0,0,0,.67.28" transform="translate(-0.1 -0.1)"/><path class="cls-4" d="M24.5,47.57a1,1,0,0,0-.67.28,1,1,0,0,0-.27.67,1,1,0,0,0,.27.67,1,1,0,0,0,.67.27,1,1,0,0,0,.95-.94.94.94,0,0,0-.95-1" transform="translate(-0.1 -0.1)"/><path class="cls-4" d="M27,46.82a1,1,0,0,0,.67-.28,1,1,0,0,0,0-1.34,1,1,0,0,0-.67-.28.93.93,0,0,0-.67.28.94.94,0,0,0,0,1.34.93.93,0,0,0,.67.28" transform="translate(-0.1 -0.1)"/><path class="cls-4" d="M27.12,50.24a1,1,0,0,0-.67.28,1,1,0,0,0-.28.67.93.93,0,0,0,.28.67.94.94,0,0,0,1.34,0,.93.93,0,0,0,.28-.67,1,1,0,0,0-.28-.67,1,1,0,0,0-.67-.28" transform="translate(-0.1 -0.1)"/><path class="cls-4" d="M29.56,44.19a1,1,0,0,0,1-.95,1,1,0,0,0-.28-.67,1,1,0,0,0-.67-.28,1,1,0,0,0-.67.28,1,1,0,0,0-.27.67,1,1,0,0,0,.27.67,1,1,0,0,0,.67.28" transform="translate(-0.1 -0.1)"/><path class="cls-4" d="M29.7,47.64a1,1,0,1,0,.67.28.95.95,0,0,0-.67-.28" transform="translate(-0.1 -0.1)"/><path class="cls-4" d="M28.67,34a.37.37,0,0,0-.52,0l-.27.26-.92.92-.26.26a.37.37,0,0,0,0,.53l5.45,5.47a.37.37,0,0,0,.53,0l.26-.26.92-.92.26-.26a.38.38,0,0,0,0-.53Z" transform="translate(-0.1 -0.1)"/><path class="cls-4" d="M50.52,25.51l-7.84-7.87a1.73,1.73,0,0,0-2.44,0l-9.43,9.4a5.37,5.37,0,0,0-.16,7.71l2.7,2.72a5.4,5.4,0,0,0,7.72-.13L50.5,28a1.73,1.73,0,0,0,0-2.44" transform="translate(-0.1 -0.1)"/><path class="cls-5" d="M35,11.2A23.8,23.8,0,1,1,11.2,35,23.83,23.83,0,0,1,35,11.2m0-4.76A28.56,28.56,0,1,0,63.55,35,28.56,28.56,0,0,0,35,6.44" transform="translate(-0.1 -0.1)"/></g></svg>