<svg id="Ebene_1" data-name="Ebene 1" xmlns="http://www.w3.org/2000/svg" xmlns:xlink="http://www.w3.org/1999/xlink" viewBox="0 0 69.83 69.83"><defs><style>.cls-1{fill:none;}.cls-2{clip-path:url(#clip-path);}.cls-3{fill:#fff;}.cls-4{fill:#1d1d1b;}.cls-5{fill:#db2f34;}</style><clipPath id="clip-path" transform="translate(-0.09 -0.09)"><path class="cls-1" d="M.5,35A34.5,34.5,0,1,0,35,.5,34.5,34.5,0,0,0,.5,35"/></clipPath></defs><g class="cls-2"><rect class="cls-3" width="69.83" height="69.83"/><path class="cls-4" d="M39.54,35A4.53,4.53,0,1,1,35,30.43,4.53,4.53,0,0,1,39.54,35" transform="translate(-0.09 -0.09)"/><path class="cls-4" d="M28.23,35H16.93a18.09,18.09,0,0,0,9,15.66l5.65-9.8A6.8,6.8,0,0,1,28.23,35" transform="translate(-0.09 -0.09)"/><path class="cls-4" d="M26,19.3l5.65,9.78a6.79,6.79,0,0,1,6.79,0l5.64-9.77A18.13,18.13,0,0,0,26,19.3" transform="translate(-0.09 -0.09)"/><path class="cls-4" d="M41.8,35a6.77,6.77,0,0,1-3.4,5.87l5.65,9.79a18.08,18.08,0,0,0,9-15.65Z" transform="translate(-0.09 -0.09)"/><path class="cls-5" d="M35,11.19A23.81,23.81,0,1,1,11.2,35,23.84,23.84,0,0,1,35,11.19m0-4.76A28.57,28.57,0,1,0,63.57,35,28.57,28.57,0,0,0,35,6.43" transform="translate(-0.09 -0.09)"/></g></svg>