<svg id="Ebene_1" data-name="Ebene 1" xmlns="http://www.w3.org/2000/svg" xmlns:xlink="http://www.w3.org/1999/xlink" viewBox="0 0 57.17 57.17"><defs><style>.cls-1,.cls-6{fill:none;}.cls-2{clip-path:url(#clip-path);}.cls-3{fill:#db2f34;}.cls-4{fill:#1d1d1b;}.cls-5{fill:#fff;}.cls-6{stroke:#fff;stroke-width:0.46px;}</style><clipPath id="clip-path" transform="translate(-6.42 -6.42)"><path class="cls-1" d="M.5,35A34.5,34.5,0,1,0,35,.48,34.51,34.51,0,0,0,.5,35"/></clipPath></defs><g class="cls-2"><path class="cls-3" d="M35,11.18A23.82,23.82,0,1,1,11.18,35,23.85,23.85,0,0,1,35,11.18m0-4.76A28.58,28.58,0,1,0,63.58,35,28.58,28.58,0,0,0,35,6.42" transform="translate(-6.42 -6.42)"/><rect class="cls-4" x="27.88" y="26.87" width="13.51" height="1.13"/><path class="cls-4" d="M44.88,25.89l.16-.35q-.4-.18-.81-.33a9.5,9.5,0,0,0-6.37,0c-.27.1-.55.21-.81.33l.16.35A9,9,0,0,0,32.05,34,9.71,9.71,0,0,0,32.24,36l0,.15h.52v.56h.75v15h15v-15h.75V36.1h.53l0-.15A9.67,9.67,0,0,0,50,34a9,9,0,0,0-5.16-8.13m4.65,9.84H49.3v-.56h-.75v-.38H46.3v4.87h0a.75.75,0,1,1-1.5,0h0V34.79h-.75V46.42a.75.75,0,0,1-1.5,0V34.79h-9v.37h-.75v.57h-.22A9.3,9.3,0,0,1,32.42,34a8.64,8.64,0,0,1,4.95-7.8l.15.33a7.06,7.06,0,0,1,.71-.29,8.16,8.16,0,0,1,2.82-.49,8.32,8.32,0,0,1,2.8.48q.36.13.72.3l.15-.33a8.64,8.64,0,0,1,5,7.8,10.12,10.12,0,0,1-.14,1.71" transform="translate(-6.42 -6.42)"/><line class="cls-5" x1="26.8" y1="28.15" x2="42.25" y2="28.15"/><line class="cls-6" x1="26.8" y1="28.15" x2="42.25" y2="28.15"/><path class="cls-4" d="M30.88,29.14A4.35,4.35,0,0,0,28,25.05V18.81h.49V17.35H24.57v1.46h.49v6.24a4.35,4.35,0,0,0-2.91,4.09V51.67h8.73Zm-5.73,7.37a.91.91,0,0,1-.49-.12.83.83,0,0,1-.3-.29,1.2,1.2,0,0,1-.16-.4,2.12,2.12,0,0,1,0-.44,2.18,2.18,0,0,1,0-.44,1,1,0,0,1,.17-.38.84.84,0,0,1,.31-.28.93.93,0,0,1,.47-.11,1,1,0,0,1,.48.11.84.84,0,0,1,.31.28,1.14,1.14,0,0,1,.16.39,2.12,2.12,0,0,1,0,.44,2.3,2.3,0,0,1,0,.45,1.29,1.29,0,0,1-.16.4.84.84,0,0,1-.31.28,1,1,0,0,1-.48.11m0-.44A.33.33,0,0,0,25.4,36a.46.46,0,0,0,.13-.2.75.75,0,0,0,0-.26,1.93,1.93,0,0,0,0-.23,2.11,2.11,0,0,0,0-.23.75.75,0,0,0,0-.26.52.52,0,0,0-.12-.22.33.33,0,0,0-.25-.09.36.36,0,0,0-.26.09.45.45,0,0,0-.13.22.75.75,0,0,0-.05.26c0,.1,0,.17,0,.24s0,.14,0,.23a1.14,1.14,0,0,0,.06.25.46.46,0,0,0,.13.2.32.32,0,0,0,.24.09m.52,2.73h-.61L27.45,34h.61Zm2.29.06a1,1,0,0,1-.49-.11.93.93,0,0,1-.3-.29,1.29,1.29,0,0,1-.16-.4,2.28,2.28,0,0,1,0-.45,2.09,2.09,0,0,1,0-.43,1,1,0,0,1,.17-.39A.9.9,0,0,1,28,36.4a1,1,0,0,1,.48.11.93.93,0,0,1,.31.28,1.23,1.23,0,0,1,.16.39,2.2,2.2,0,0,1,.05.44,2.3,2.3,0,0,1-.05.45,1.29,1.29,0,0,1-.16.4.84.84,0,0,1-.31.28,1,1,0,0,1-.48.11m0-.44a.37.37,0,0,0,.25-.08.57.57,0,0,0,.13-.21.7.7,0,0,0,.05-.25c0-.09,0-.17,0-.23s0-.14,0-.23a.81.81,0,0,0-.05-.27.59.59,0,0,0-.12-.22.33.33,0,0,0-.25-.09.36.36,0,0,0-.26.09.5.5,0,0,0-.13.22.81.81,0,0,0,0,.27c0,.09,0,.17,0,.23s0,.14,0,.23a1,1,0,0,0,.06.25.57.57,0,0,0,.13.21.36.36,0,0,0,.24.08" transform="translate(-6.42 -6.42)"/></g></svg>