<svg id="Ebene_1" data-name="Ebene 1" xmlns="http://www.w3.org/2000/svg" xmlns:xlink="http://www.w3.org/1999/xlink" viewBox="0 0 57.13 57.13"><defs><style>.cls-1{fill:none;}.cls-2{clip-path:url(#clip-path);}.cls-3{fill:#1d1d1b;}.cls-4{fill:#db2f34;}</style><clipPath id="clip-path" transform="translate(-6.43 -6.43)"><path class="cls-1" d="M.5,35A34.5,34.5,0,1,0,35,.5,34.5,34.5,0,0,0,.5,35"/></clipPath></defs><g class="cls-2"><rect class="cls-3" x="12.91" y="20.11" width="6.28" height="22.42"/><rect class="cls-3" x="14.48" y="18.02" width="3.12" height="1.56"/><rect class="cls-3" x="24.39" y="13.33" width="4.69" height="2.09"/><rect class="cls-3" x="37.44" y="13.33" width="4.67" height="2.09"/><path class="cls-3" d="M28.76,49h21.9V22.37H28.76Zm4.42-20.86A1.83,1.83,0,1,1,35,26.28a1.83,1.83,0,0,1-1.82,1.83m7.61,12.52h-4v-7h.88v6.2h3.11Zm1.76,0h-.84v-5h.84Zm0-5.74h-.84V34h.84Zm3.66-6.78A1.83,1.83,0,1,1,48,26.28a1.82,1.82,0,0,1-1.83,1.83" transform="translate(-6.43 -6.43)"/><polygon class="cls-3" points="41.08 19.59 40.04 19.59 40.04 18.55 39.52 18.55 39.52 19.59 38.47 19.59 38.47 20.11 39.52 20.11 39.52 21.15 40.04 21.15 40.04 20.11 41.08 20.11 41.08 19.59"/><rect class="cls-3" x="25.44" y="19.59" width="2.61" height="0.52"/><path class="cls-4" d="M35,11.2A23.81,23.81,0,1,1,11.2,35,23.83,23.83,0,0,1,35,11.2m0-4.77A28.57,28.57,0,1,0,63.57,35,28.57,28.57,0,0,0,35,6.43" transform="translate(-6.43 -6.43)"/></g></svg>