<svg id="Ebene_1" data-name="Ebene 1" xmlns="http://www.w3.org/2000/svg" xmlns:xlink="http://www.w3.org/1999/xlink" viewBox="0 0 57.13 57.13"><defs><style>.cls-1{fill:none;}.cls-2{clip-path:url(#clip-path);}.cls-3{fill:#1d1d1b;}.cls-4{fill:#db2f34;}</style><clipPath id="clip-path" transform="translate(-6.37 -6.6)"><path class="cls-1" d="M.43,35.17A34.5,34.5,0,1,0,34.93.67,34.5,34.5,0,0,0,.43,35.17"/></clipPath></defs><g class="cls-2"><rect class="cls-3" x="25.59" y="14.53" width="2.12" height="33.07"/><path class="cls-3" d="M31.42,38.86V21.13H23V38.86h1.86v5.32a1.3,1.3,0,0,1-1.33,1.32.79.79,0,0,0,0,1.57,2.87,2.87,0,0,0,2.9-2.84h0v-.07h0v-5.3Z" transform="translate(-6.37 -6.6)"/><path class="cls-3" d="M20.93,46.8H18.28a.52.52,0,0,1,0-1h2.65a.52.52,0,0,1,0,1" transform="translate(-6.37 -6.6)"/><path class="cls-3" d="M20.39,50a.5.5,0,0,1-.31-.1.52.52,0,0,1-.1-.73l1.35-1.8a.53.53,0,0,1,.84.63l-1.36,1.8a.53.53,0,0,1-.42.2" transform="translate(-6.37 -6.6)"/><path class="cls-3" d="M21.74,45.43a.51.51,0,0,1-.42-.21L20,43.42a.52.52,0,0,1,.83-.63l1.36,1.81a.52.52,0,0,1-.11.73.5.5,0,0,1-.31.1" transform="translate(-6.37 -6.6)"/><path class="cls-3" d="M28.53,16.77h0a1.72,1.72,0,0,0-2.68,0h0L23,20.6h8.46Z" transform="translate(-6.37 -6.6)"/><path class="cls-3" d="M44.66,26.73h0a1,1,0,0,0-1,1v19a1,1,0,0,0,.53.91v6.49h1.06V47.72a1.06,1.06,0,0,0,.53-.91v-19a1,1,0,0,0-1.05-1" transform="translate(-6.37 -6.6)"/><path class="cls-3" d="M48.88,29.09H40.41a.27.27,0,0,1,0-.53h8.47a.27.27,0,0,1,0,.53" transform="translate(-6.37 -6.6)"/><path class="cls-3" d="M39.36,29.09H37.77a.27.27,0,0,1,0-.53h1.59a.27.27,0,0,1,0,.53" transform="translate(-6.37 -6.6)"/><path class="cls-3" d="M36.71,29.09h-.53a.27.27,0,0,1,0-.53h.53a.27.27,0,1,1,0,.53" transform="translate(-6.37 -6.6)"/><path class="cls-3" d="M51.52,29.09H49.94a.27.27,0,1,1,0-.53h1.58a.27.27,0,1,1,0,.53" transform="translate(-6.37 -6.6)"/><path class="cls-3" d="M53.11,29.09h-.53a.27.27,0,0,1,0-.53h.53a.27.27,0,1,1,0,.53" transform="translate(-6.37 -6.6)"/><path class="cls-3" d="M41,31.2a.28.28,0,0,1-.23-.13.26.26,0,0,1,.1-.36l7.33-4.23a.26.26,0,0,1,.36.09.26.26,0,0,1-.1.36l-7.33,4.24-.13,0" transform="translate(-6.37 -6.6)"/><path class="cls-3" d="M38.69,32.52a.26.26,0,0,1-.23-.13.26.26,0,0,1,.1-.36l1.37-.79a.27.27,0,0,1,.37.09.29.29,0,0,1-.1.37l-1.38.79-.13,0" transform="translate(-6.37 -6.6)"/><path class="cls-3" d="M37.32,33.32a.28.28,0,0,1-.23-.13.27.27,0,0,1,.09-.37l.46-.26a.27.27,0,0,1,.27.46l-.46.26-.13,0" transform="translate(-6.37 -6.6)"/><path class="cls-3" d="M49.23,26.44a.28.28,0,0,1-.23-.13.26.26,0,0,1,.1-.36l1.37-.8a.26.26,0,1,1,.26.46l-1.37.8-.13,0" transform="translate(-6.37 -6.6)"/><path class="cls-3" d="M51.52,25.12a.27.27,0,0,1-.13-.5l.45-.26a.28.28,0,0,1,.37.1.26.26,0,0,1-.1.36l-.46.26-.13,0" transform="translate(-6.37 -6.6)"/><path class="cls-3" d="M42.53,32.75l-.13,0a.28.28,0,0,1-.1-.37L46.53,25a.26.26,0,0,1,.36-.09.25.25,0,0,1,.1.36l-4.23,7.33a.28.28,0,0,1-.23.13" transform="translate(-6.37 -6.6)"/><path class="cls-3" d="M41.21,35l-.13,0a.27.27,0,0,1-.1-.36l.79-1.38a.27.27,0,0,1,.36-.1.28.28,0,0,1,.1.37l-.79,1.37a.28.28,0,0,1-.23.13" transform="translate(-6.37 -6.6)"/><path class="cls-3" d="M40.41,36.42l-.13,0a.26.26,0,0,1-.09-.36l.26-.46a.26.26,0,0,1,.36-.1.28.28,0,0,1,.1.37l-.27.45a.24.24,0,0,1-.23.14" transform="translate(-6.37 -6.6)"/><path class="cls-3" d="M47.29,24.5l-.13,0a.26.26,0,0,1-.1-.36l.8-1.38a.26.26,0,0,1,.45.27l-.79,1.37a.26.26,0,0,1-.23.13" transform="translate(-6.37 -6.6)"/><path class="cls-3" d="M48.61,22.21l-.13,0a.26.26,0,0,1-.09-.36l.26-.46a.26.26,0,0,1,.36-.1.27.27,0,0,1,.1.36l-.27.46a.25.25,0,0,1-.23.13" transform="translate(-6.37 -6.6)"/><path class="cls-3" d="M44.65,33.32a.27.27,0,0,1-.27-.27V24.59a.27.27,0,0,1,.53,0v8.46a.27.27,0,0,1-.26.27" transform="translate(-6.37 -6.6)"/><path class="cls-3" d="M44.65,23.8a.27.27,0,0,1-.27-.27V21.94a.27.27,0,0,1,.53,0v1.59a.27.27,0,0,1-.26.27" transform="translate(-6.37 -6.6)"/><path class="cls-3" d="M44.65,21.15a.27.27,0,0,1-.27-.26v-.53a.27.27,0,1,1,.53,0v.53a.26.26,0,0,1-.26.26" transform="translate(-6.37 -6.6)"/><path class="cls-3" d="M46.76,32.75a.28.28,0,0,1-.23-.13L42.3,25.29a.26.26,0,0,1,.1-.36.26.26,0,0,1,.36.09L47,32.35a.27.27,0,0,1-.1.37l-.13,0" transform="translate(-6.37 -6.6)"/><path class="cls-3" d="M48.09,35a.26.26,0,0,1-.23-.13l-.8-1.37a.28.28,0,0,1,.1-.37.26.26,0,0,1,.36.1l.79,1.38a.26.26,0,0,1-.09.36l-.13,0" transform="translate(-6.37 -6.6)"/><path class="cls-3" d="M48.88,36.42a.27.27,0,0,1-.23-.14l-.26-.45a.27.27,0,0,1,.09-.37.26.26,0,0,1,.36.1l.27.46a.26.26,0,0,1-.1.36l-.13,0" transform="translate(-6.37 -6.6)"/><path class="cls-3" d="M42,24.5a.26.26,0,0,1-.23-.13L41,23a.27.27,0,0,1,.46-.27l.79,1.38a.26.26,0,0,1-.1.36l-.13,0" transform="translate(-6.37 -6.6)"/><path class="cls-3" d="M40.68,22.21a.26.26,0,0,1-.23-.13l-.26-.46a.26.26,0,1,1,.45-.26l.27.46a.26.26,0,0,1-.1.36l-.13,0" transform="translate(-6.37 -6.6)"/><path class="cls-3" d="M48.31,31.2l-.13,0-7.33-4.24a.26.26,0,1,1,.26-.45l7.33,4.23a.26.26,0,0,1,.1.36.28.28,0,0,1-.23.13" transform="translate(-6.37 -6.6)"/><path class="cls-3" d="M50.6,32.52l-.13,0L49.1,31.7a.28.28,0,0,1-.1-.37.26.26,0,0,1,.36-.09l1.37.79a.26.26,0,0,1-.13.49" transform="translate(-6.37 -6.6)"/><path class="cls-3" d="M52,33.32l-.13,0L51.39,33a.27.27,0,0,1-.1-.36.26.26,0,0,1,.36-.1l.46.26a.27.27,0,0,1-.13.5" transform="translate(-6.37 -6.6)"/><path class="cls-3" d="M40.07,26.44l-.14,0-1.37-.8a.26.26,0,0,1-.1-.36.27.27,0,0,1,.36-.1l1.38.8a.27.27,0,0,1,.1.36.28.28,0,0,1-.23.13" transform="translate(-6.37 -6.6)"/><path class="cls-3" d="M37.77,25.12l-.13,0-.46-.26a.27.27,0,0,1,.27-.46l.46.26A.27.27,0,0,1,38,25a.25.25,0,0,1-.23.13" transform="translate(-6.37 -6.6)"/><path class="cls-4" d="M34.93,11.36a23.81,23.81,0,1,1-23.8,23.81,23.84,23.84,0,0,1,23.8-23.81m0-4.76A28.57,28.57,0,1,0,63.5,35.17,28.57,28.57,0,0,0,34.93,6.6" transform="translate(-6.37 -6.6)"/></g></svg>