<svg id="Ebene_1" data-name="Ebene 1" xmlns="http://www.w3.org/2000/svg" xmlns:xlink="http://www.w3.org/1999/xlink" viewBox="0 0 57.13 57.13"><defs><style>.cls-1{fill:none;}.cls-2{clip-path:url(#clip-path);}.cls-3{fill:#1d1d1b;}.cls-4{fill:#db2f34;}</style><clipPath id="clip-path" transform="translate(-6.43 -6.43)"><path class="cls-1" d="M.5,35A34.5,34.5,0,1,0,35,.5,34.5,34.5,0,0,0,.5,35"/></clipPath></defs><g class="cls-2"><path class="cls-3" d="M38.71,27.07H17.54V31.3l1.58,1.58L16,42.94h6.88l1.55-5.82H29.7l.73-2.88,9.87-1.36.88-3.53.17-.7Zm-9.82,9H24.66L24.94,35l4.37-.6Z" transform="translate(-6.43 -6.43)"/><polygon class="cls-3" points="41.3 24.57 42.31 22.91 42.8 22.09 36.53 22.91 35.8 23.01 35.52 24.1 40.79 23.41 39.29 25.89 47.62 24.8 47.62 23.75 41.3 24.57"/><path class="cls-4" d="M35,11.2A23.81,23.81,0,1,1,11.2,35,23.83,23.83,0,0,1,35,11.2m0-4.77A28.57,28.57,0,1,0,63.57,35,28.57,28.57,0,0,0,35,6.43" transform="translate(-6.43 -6.43)"/></g></svg>