<svg id="Ebene_1" data-name="Ebene 1" xmlns="http://www.w3.org/2000/svg" xmlns:xlink="http://www.w3.org/1999/xlink" viewBox="0 0 57.13 57.13"><defs><style>.cls-1{fill:none;}.cls-2{clip-path:url(#clip-path);}.cls-3{fill:#1d1d1b;}.cls-4{fill:#db2f34;}</style><clipPath id="clip-path" transform="translate(-6.43 -6.43)"><path class="cls-1" d="M.5,35A34.5,34.5,0,1,0,35,.5,34.5,34.5,0,0,0,.5,35"/></clipPath></defs><g class="cls-2"><path class="cls-3" d="M30.51,28.87H19.84v19a1.37,1.37,0,0,0,1.34,1.4h8a1.37,1.37,0,0,0,1.33-1.4v-19" transform="translate(-6.43 -6.43)"/><path class="cls-3" d="M25.19,24H19.84v1.35h2a.67.67,0,0,1,.66.66h0a.66.66,0,0,1-.66.66h-2V28h7.35l-2-4" transform="translate(-6.43 -6.43)"/><path class="cls-3" d="M24.63,21.89a2.64,2.64,0,0,0-2.36,1.44H25.6l.19.37,1.06,2.12h0l.42.85L27.94,28h1.24V26.67h1.33V25.33L27,25.8a2.61,2.61,0,0,0,.32-1.25,2.67,2.67,0,0,0-2.67-2.66" transform="translate(-6.43 -6.43)"/><path class="cls-3" d="M36.06,29.44H33.9l0-7.69,14,.05,0,7.69H45.68l0-3.66a2.51,2.51,0,0,1-.55.06h0a2.35,2.35,0,0,1-.54-.06l0,3.66H42.85l0-3.66a3.27,3.27,0,0,1-.54,0h0a4.56,4.56,0,0,1-.54,0l0,3.66H40l0-3.66a2.44,2.44,0,0,1-.55.06h0a4.63,4.63,0,0,1-.55-.06l0,3.66H37.18l0-3.66a3.31,3.31,0,0,1-.55.05h0a3.1,3.1,0,0,1-.54-.05l0,3.65m-3-8.59,0,8.58h-.87l-.08,19.85,17.49.07.07-19.85h-.87l0-8.58L33,20.85" transform="translate(-6.43 -6.43)"/><path class="cls-3" d="M36.69,23l-.18,0-.17.06a.92.92,0,0,0-.28.24l-.11.17a1.24,1.24,0,0,0-.16.62,1.21,1.21,0,0,0,.07.43l.08.19.11.17.12.14.15.1a.73.73,0,0,0,.35.09h0a.65.65,0,0,0,.36-.1.82.82,0,0,0,.25-.21l.07-.09,0-.09.07-.13a1.52,1.52,0,0,0,.09-.49,1.24,1.24,0,0,0-.09-.48l-.06-.14-.05-.09-.12-.15a.78.78,0,0,0-.56-.26" transform="translate(-6.43 -6.43)"/><path class="cls-3" d="M39.52,23l-.18,0-.16.07a.8.8,0,0,0-.29.23l-.11.17a1.35,1.35,0,0,0-.16.62,1.49,1.49,0,0,0,.07.43l.08.19.11.17L39,25l.15.1a.67.67,0,0,0,.34.09h0a.65.65,0,0,0,.36-.1.72.72,0,0,0,.25-.21l.07-.09.05-.08.07-.14a1.3,1.3,0,0,0,.09-.49,1.51,1.51,0,0,0-.08-.48l-.07-.14,0-.09-.12-.15a.76.76,0,0,0-.56-.26" transform="translate(-6.43 -6.43)"/><path class="cls-3" d="M42.36,23l-.18,0L42,23.1a.89.89,0,0,0-.29.23l-.11.17a1.35,1.35,0,0,0-.15.62,1.61,1.61,0,0,0,.06.44l.08.19.11.16.13.14.15.1a.7.7,0,0,0,.35.09h0a.81.81,0,0,0,.37-.09,1.27,1.27,0,0,0,.25-.22l.07-.09,0-.08.06-.14a1.3,1.3,0,0,0,.09-.49,1.1,1.1,0,0,0-.08-.48l-.06-.14L43,23.42l-.12-.15a.78.78,0,0,0-.56-.26" transform="translate(-6.43 -6.43)"/><path class="cls-3" d="M45.19,23,45,23l-.17.07a.86.86,0,0,0-.28.23l-.11.17a1.33,1.33,0,0,0-.09,1.06l.08.19.11.16.12.14.15.1a.73.73,0,0,0,.35.09h0a.74.74,0,0,0,.36-.09,1.27,1.27,0,0,0,.25-.21l.07-.1,0-.08.07-.14a1.51,1.51,0,0,0,.09-.48,1.3,1.3,0,0,0-.09-.49l-.06-.14-.05-.09-.12-.15a.78.78,0,0,0-.56-.26" transform="translate(-6.43 -6.43)"/><path class="cls-4" d="M35,11.2A23.8,23.8,0,1,1,11.19,35,23.83,23.83,0,0,1,35,11.2m0-4.77A28.57,28.57,0,1,0,63.57,35,28.57,28.57,0,0,0,35,6.43" transform="translate(-6.43 -6.43)"/></g></svg>