<svg id="Ebene_1" data-name="Ebene 1" xmlns="http://www.w3.org/2000/svg" xmlns:xlink="http://www.w3.org/1999/xlink" viewBox="0 0 57.13 57.13"><defs><style>.cls-1,.cls-7{fill:none;}.cls-2{clip-path:url(#clip-path);}.cls-3{fill:#db2f34;}.cls-4{fill:#1d1d1b;}.cls-5{clip-path:url(#clip-path-2);}.cls-6{fill:#fff;}.cls-7{stroke:#fff;stroke-width:0.46px;}</style><clipPath id="clip-path" transform="translate(-6.43 -6.43)"><path class="cls-1" d="M.5,35A34.5,34.5,0,1,0,35,.5,34.5,34.5,0,0,0,.5,35"/></clipPath><clipPath id="clip-path-2" transform="translate(-6.43 -6.43)"><path class="cls-1" d="M15.65,6.43a34.56,34.56,0,0,0-9.22,9.22v38.7a34.56,34.56,0,0,0,9.22,9.22h38.7a34.71,34.71,0,0,0,9.22-9.22V15.65a34.56,34.56,0,0,0-9.22-9.22Z"/></clipPath></defs><g class="cls-2"><path class="cls-3" d="M35,11.2A23.8,23.8,0,1,1,11.19,35,23.83,23.83,0,0,1,35,11.2m0-4.77A28.57,28.57,0,1,0,63.57,35,28.57,28.57,0,0,0,35,6.43" transform="translate(-6.43 -6.43)"/><path class="cls-4" d="M21,24.53v5l2,2h0l-6,14H27l3.86-9h7.47l2.3-5h12V28h0V24.53Zm16,10H31.73l1.29-3h5.42Z" transform="translate(-6.43 -6.43)"/><rect class="cls-4" x="28.17" y="37.04" width="2.78" height="7.73"/></g><g class="cls-5"><path class="cls-4" d="M37.39,43.58l-.68-2,0-.06a.73.73,0,0,0-1.39,0l0,.06-.67,2Z" transform="translate(-6.43 -6.43)"/><line class="cls-6" x1="31.45" y1="43.78" x2="31.46" y2="43.78"/><line class="cls-7" x1="31.45" y1="43.78" x2="31.46" y2="43.78"/><line class="cls-6" x1="27.56" y1="43.59" x2="31.32" y2="43.59"/><line class="cls-7" x1="27.56" y1="43.59" x2="31.32" y2="43.59"/><line class="cls-6" x1="27.56" y1="37.25" x2="31.32" y2="37.25"/><line class="cls-7" x1="27.56" y1="37.25" x2="31.32" y2="37.25"/><rect class="cls-4" x="32.54" y="37.04" width="2.78" height="7.73"/><path class="cls-4" d="M41.76,43.58l-.68-2,0-.06a.73.73,0,0,0-1.39,0l0,.06-.67,2Z" transform="translate(-6.43 -6.43)"/><line class="cls-6" x1="35.82" y1="43.78" x2="35.82" y2="43.78"/><line class="cls-7" x1="35.82" y1="43.78" x2="35.82" y2="43.78"/><line class="cls-6" x1="31.92" y1="43.59" x2="35.69" y2="43.59"/><line class="cls-7" x1="31.92" y1="43.59" x2="35.69" y2="43.59"/><line class="cls-6" x1="31.92" y1="37.25" x2="35.69" y2="37.25"/><line class="cls-7" x1="31.92" y1="37.25" x2="35.69" y2="37.25"/><rect class="cls-4" x="36.91" y="37.04" width="2.78" height="7.73"/><path class="cls-4" d="M46.12,43.58l-.67-2,0-.06a.73.73,0,0,0-1.39,0l0,.06-.68,2Z" transform="translate(-6.43 -6.43)"/><line class="cls-6" x1="40.19" y1="43.78" x2="40.19" y2="43.78"/><line class="cls-7" x1="40.19" y1="43.78" x2="40.19" y2="43.78"/><line class="cls-6" x1="36.29" y1="43.59" x2="40.05" y2="43.59"/><line class="cls-7" x1="36.29" y1="43.59" x2="40.05" y2="43.59"/><line class="cls-6" x1="14.07" y1="22.85" x2="48.66" y2="22.85"/><line class="cls-7" x1="14.07" y1="22.85" x2="48.66" y2="22.85"/><line class="cls-6" x1="36.29" y1="37.25" x2="40.05" y2="37.25"/><line class="cls-7" x1="36.29" y1="37.25" x2="40.05" y2="37.25"/><polygon class="cls-4" points="46.96 21.68 46.07 21.71 46.07 19.07 46.96 19.04 46.96 21.68"/><rect class="cls-6" x="43.76" y="22.85" width="2.64" height="2.64"/></g></svg>