<svg id="Ebene_1" data-name="Ebene 1" xmlns="http://www.w3.org/2000/svg" xmlns:xlink="http://www.w3.org/1999/xlink" viewBox="0 0 57.13 57.13"><defs><style>.cls-1{fill:none;}.cls-2{clip-path:url(#clip-path);}.cls-3{fill:#1d1d1b;}.cls-4{fill:#db2f34;}</style><clipPath id="clip-path" transform="translate(-6.43 -6.43)"><path class="cls-1" d="M.5,35A34.5,34.5,0,1,0,35,.5,34.5,34.5,0,0,0,.5,35"/></clipPath></defs><g class="cls-2"><path class="cls-3" d="M48.35,37.63l-.06-.08-2-2.57a1.31,1.31,0,0,1-.3-.78V30.84H17.15l-3.57,3,35.71,5.89V38h-.2a.89.89,0,0,1-.74-.39" transform="translate(-6.43 -6.43)"/><path class="cls-3" d="M56.41,36.67l0-.08L55.14,31h0l0-.26a.68.68,0,0,0-.64-.54H47.31a.67.67,0,0,0-.65.67v3.28a.65.65,0,0,0,.16.39l2,2.58.05.05c.14.16.14.17.26.17h6.68a.65.65,0,0,0,.64-.65v-.06m-3.77-.6H50.33a.66.66,0,0,1-.43-.23h0l-1.14-1.5a.52.52,0,0,1-.13-.35V32.1a.56.56,0,0,1,.56-.56h2.65a.56.56,0,0,1,.55.45s.77,3.38.76,3.55a.52.52,0,0,1-.51.53" transform="translate(-6.43 -6.43)"/><path class="cls-4" d="M35,11.2A23.81,23.81,0,1,1,11.19,35,23.83,23.83,0,0,1,35,11.2m0-4.77A28.57,28.57,0,1,0,63.57,35,28.57,28.57,0,0,0,35,6.43" transform="translate(-6.43 -6.43)"/></g></svg>