<svg id="Ebene_1" data-name="Ebene 1" xmlns="http://www.w3.org/2000/svg" xmlns:xlink="http://www.w3.org/1999/xlink" viewBox="0 0 57.13 57.13"><defs><style>.cls-1{fill:none;}.cls-2{clip-path:url(#clip-path);}.cls-3{fill:#db2f34;}.cls-4{fill:#1d1d1b;}</style><clipPath id="clip-path" transform="translate(-6.43 -6.43)"><path class="cls-1" d="M.5,35A34.5,34.5,0,1,0,35,.5,34.5,34.5,0,0,0,.5,35"/></clipPath></defs><g class="cls-2"><path class="cls-3" d="M35,11.19A23.81,23.81,0,1,1,11.2,35,23.84,23.84,0,0,1,35,11.19m0-4.76A28.57,28.57,0,1,0,63.57,35,28.57,28.57,0,0,0,35,6.43" transform="translate(-6.43 -6.43)"/><polygon class="cls-4" points="23.09 15.17 24.74 12.98 32.4 12.98 34.04 15.17 23.09 15.17"/><rect class="cls-4" x="16.52" y="41.45" width="24.07" height="2.2"/><path class="cls-4" d="M48.14,20.14v-1.8H47.05v1.79c0,.1,0,.36-.22.45L36.1,25.14v-3H33.91v3L23.17,20.59c-.2-.09-.22-.35-.22-.45V18.35H21.87v1.8a1.5,1.5,0,0,0,.83,1.42h0l0,0h0l11.17,4.73v.78h-1.1v1.09h1.1v1A12,12,0,0,0,23,41.16V46.8H47V41.17h0A12,12,0,0,0,36.1,29.21v-1h3.23v1.09h2.19V26H39.33v1.11H36.1v-.78l11.16-4.73h0l0,0h0a1.5,1.5,0,0,0,.83-1.42" transform="translate(-6.43 -6.43)"/></g></svg>