<svg id="Ebene_1" data-name="Ebene 1" xmlns="http://www.w3.org/2000/svg" xmlns:xlink="http://www.w3.org/1999/xlink" viewBox="0 0 57.13 57.13"><defs><style>.cls-1{fill:none;}.cls-2{clip-path:url(#clip-path);}.cls-3{fill:#1d1d1b;}.cls-4{fill:#db2f34;}</style><clipPath id="clip-path" transform="translate(-6.43 -6.43)"><path class="cls-1" d="M.5,35A34.5,34.5,0,1,0,35,.5,34.5,34.5,0,0,0,.5,35"/></clipPath></defs><g class="cls-2"><path class="cls-3" d="M32.22,28.64a.35.35,0,0,0,.18-.45l-4.27-10a.34.34,0,0,0-.63.27l4.27,9.94a.34.34,0,0,0,.31.21l.14,0m1.78,0a.35.35,0,0,0,.3-.38l-1.54-12a.34.34,0,1,0-.68.08l1.54,12a.34.34,0,0,0,.34.3h0m2.37-.31,1.54-12a.33.33,0,0,0-.29-.38.35.35,0,0,0-.39.3l-1.53,12a.33.33,0,0,0,.29.38h0a.33.33,0,0,0,.33-.3m1.86.09,4.27-9.93a.35.35,0,0,0-.18-.45.35.35,0,0,0-.45.18L37.6,28.18a.35.35,0,0,0,.18.45l.14,0a.34.34,0,0,0,.31-.21m.47,10H31.3l-.53-5.61h8.46Zm2.19,5.07V54h-8.8V39.24h5.82V52.38h1.32V43.47ZM38.17,32.05H31.83V30.26h6.34Z" transform="translate(-6.43 -6.43)"/><path class="cls-4" d="M35,11.2A23.81,23.81,0,1,1,11.19,35,23.83,23.83,0,0,1,35,11.2m0-4.77A28.57,28.57,0,1,0,63.57,35,28.57,28.57,0,0,0,35,6.43" transform="translate(-6.43 -6.43)"/></g></svg>