<svg width="48" height="32" viewBox="0 0 48 32" fill="none" xmlns="http://www.w3.org/2000/svg">
<rect width="48" height="32" rx="4" fill="#010864"/>
<path d="M28.167 9.19604H19.8363V22.8025H28.167V9.19604Z" fill="#FF5F00"/>
<path d="M20.6944 16.0005C20.6934 14.6903 20.9904 13.3971 21.5629 12.2186C22.1355 11.0402 22.9686 10.0074 23.9993 9.19847C22.7228 8.19528 21.1898 7.57146 19.5755 7.3983C17.9613 7.22514 16.3309 7.50963 14.8706 8.21925C13.4104 8.92887 12.1793 10.035 11.318 11.4112C10.4567 12.7874 9.99989 14.3782 9.99989 16.0017C9.99989 17.6252 10.4567 19.216 11.318 20.5922C12.1793 21.9684 13.4104 23.0746 14.8706 23.7842C16.3309 24.4938 17.9613 24.7783 19.5755 24.6051C21.1898 24.432 22.7228 23.8081 23.9993 22.805C22.9683 21.9958 22.135 20.9626 21.5624 19.7837C20.9898 18.6048 20.693 17.3111 20.6944 16.0005Z" fill="#EB001B"/>
<path d="M37.9999 16.0005C37.9999 17.6241 37.543 19.215 36.6815 20.5913C35.82 21.9675 34.5887 23.0736 33.1283 23.7832C31.6679 24.4927 30.0373 24.777 28.423 24.6036C26.8086 24.4302 25.2756 23.806 23.9992 22.8025C25.0295 21.9929 25.8624 20.9598 26.4351 19.7813C27.0078 18.6028 27.3054 17.3096 27.3054 15.9993C27.3054 14.689 27.0078 13.3958 26.4351 12.2173C25.8624 11.0388 25.0295 10.0057 23.9992 9.19605C25.2756 8.19255 26.8086 7.56843 28.423 7.39502C30.0373 7.22161 31.6679 7.50591 33.1283 8.21543C34.5887 8.92495 35.82 10.0311 36.6815 11.4073C37.543 12.7836 37.9999 14.3744 37.9999 15.9981V16.0005Z" fill="#F79E1B"/>
</svg>
