<?xml version="1.0" encoding="utf-8"?>
<!-- Generator: Adobe Illustrator 12.0.0, SVG Export Plug-In  -->
<!DOCTYPE svg PUBLIC "-//W3C//DTD SVG 1.1//EN" "http://www.w3.org/Graphics/SVG/1.1/DTD/svg11.dtd" [
	<!ENTITY ns_flows "http://ns.adobe.com/Flows/1.0/">
	<!ENTITY ns_svg "http://www.w3.org/2000/svg">
	<!ENTITY ns_xlink "http://www.w3.org/1999/xlink">
]>
<svg  version="1.1" xmlns="&ns_svg;" xmlns:xlink="&ns_xlink;" xmlns:a="http://ns.adobe.com/AdobeSVGViewerExtensions/3.0/"
	 width="42" height="29" viewBox="0 -0.07 42 29" enable-background="new 0 -0.07 42 29" xml:space="preserve">
<defs>
</defs>
<path fill="#F0F0F0" d="M37.275,28.93H3.807C1.703,28.93,0,27.225,0,25.122V3.807C0,1.703,1.703,0,3.807,0h33.468
	c2.104,0,3.809,1.703,3.809,3.807v21.314C41.083,27.225,39.378,28.93,37.275,28.93"/>
<path fill="#273D82" d="M16.361,25.276l0.395-2.518l-0.881-0.023h-4.216l2.929-18.571c0.01-0.053,0.04-0.106,0.082-0.143
	c0.043-0.041,0.1-0.056,0.156-0.056h7.105c2.359,0,3.984,0.488,4.838,1.46c0.396,0.454,0.648,0.928,0.772,1.452
	c0.131,0.546,0.131,1.201,0.008,2.003l-0.01,0.059v0.513l0.396,0.225c0.338,0.177,0.604,0.38,0.809,0.616
	c0.343,0.387,0.563,0.885,0.654,1.467c0.099,0.602,0.064,1.321-0.094,2.132c-0.187,0.931-0.478,1.741-0.873,2.412
	c-0.363,0.608-0.832,1.118-1.385,1.513c-0.523,0.37-1.152,0.657-1.859,0.842c-0.687,0.181-1.467,0.265-2.326,0.265h-0.557
	c-0.396,0-0.781,0.146-1.082,0.399c-0.303,0.26-0.504,0.614-0.563,1.006l-0.043,0.229l-0.699,4.438l-0.033,0.158
	c-0.007,0.055-0.021,0.078-0.045,0.096c-0.021,0.018-0.047,0.025-0.069,0.025L16.361,25.276L16.361,25.276z"/>
<path fill="#279BD2" d="M28.316,8.998L28.316,8.998L28.316,8.998c-0.023,0.135-0.047,0.272-0.075,0.415
	c-0.937,4.812-4.142,6.475-8.237,6.475H17.92c-0.503,0-0.924,0.36-1.002,0.858l0,0l0,0l-1.066,6.77l-0.303,1.919
	c-0.053,0.323,0.201,0.616,0.527,0.616h3.697c0.438,0,0.81-0.319,0.879-0.75l0.037-0.188l0.694-4.418l0.044-0.246
	c0.069-0.435,0.441-0.75,0.88-0.75h0.553c3.582,0,6.388-1.455,7.207-5.668c0.343-1.756,0.164-3.227-0.741-4.258
	C29.053,9.467,28.711,9.205,28.316,8.998z"/>
<path fill="#252F66" d="M27.335,8.605c-0.144-0.043-0.292-0.079-0.442-0.115c-0.152-0.034-0.311-0.061-0.471-0.088
	c-0.563-0.092-1.178-0.135-1.839-0.135h-5.567c-0.139,0-0.269,0.034-0.384,0.087c-0.258,0.126-0.448,0.368-0.496,0.667l-1.186,7.507
	l-0.033,0.219c0.078-0.493,0.499-0.857,1.002-0.857h2.084c4.093,0,7.3-1.663,8.237-6.475c0.029-0.143,0.052-0.28,0.074-0.415
	c-0.237-0.129-0.494-0.234-0.771-0.326C27.477,8.649,27.404,8.628,27.335,8.605z"/>
<path fill="#273D82" d="M18.136,9.021c0.048-0.299,0.238-0.541,0.496-0.667c0.115-0.053,0.248-0.087,0.384-0.087h5.567
	c0.661,0,1.276,0.043,1.839,0.135c0.16,0.025,0.316,0.054,0.471,0.088c0.15,0.036,0.299,0.072,0.442,0.115
	c0.069,0.02,0.142,0.041,0.211,0.063c0.276,0.092,0.531,0.2,0.771,0.323c0.279-1.778-0.004-2.986-0.963-4.084
	c-1.063-1.203-2.977-1.721-5.422-1.721h-7.106c-0.501,0-0.926,0.362-1.002,0.86l-2.961,18.765c-0.057,0.369,0.229,0.703,0.604,0.703
	h4.385l1.102-6.986L18.136,9.021z"/>
</svg>
