<svg width="48" height="32" viewBox="0 0 48 32" fill="none" xmlns="http://www.w3.org/2000/svg">
<rect width="48" height="32" rx="4" fill="#1434CB"/>
<g clip-path="url(#clip0_159_2197)">
<path d="M19.8735 10.8551L15.5495 21.1721H12.7283L10.6005 12.9386C10.4712 12.4315 10.359 12.2458 9.96611 12.0322C9.32469 11.6841 8.26531 11.3577 7.33337 11.155L7.39668 10.8551H11.938C12.5168 10.8551 13.0371 11.2405 13.1685 11.9071L14.2924 17.877L17.0699 10.8551H19.8735ZM30.9275 17.8036C30.9388 15.0807 27.1623 14.9306 27.1882 13.7143C27.1963 13.3442 27.5489 12.9506 28.3203 12.85C28.7027 12.7999 29.7563 12.7617 30.9514 13.3117L31.4201 11.124C30.778 10.891 29.9518 10.6667 28.9237 10.6667C26.2857 10.6667 24.4293 12.0691 24.4136 14.077C24.3966 15.5623 25.7387 16.391 26.7498 16.8846C27.79 17.39 28.139 17.7147 28.1351 18.1669C28.1276 18.859 27.3054 19.1645 26.537 19.1765C25.1956 19.1971 24.4172 18.8135 23.7966 18.525L23.3129 20.7852C23.9365 21.0713 25.0875 21.3209 26.2809 21.3333C29.0848 21.3333 30.9188 19.9484 30.9275 17.8036ZM37.8933 21.1721H40.3617L38.2071 10.8551H35.9288C35.4165 10.8551 34.9845 11.1533 34.793 11.612L30.7881 21.1721H33.5905L34.1471 19.6309H37.5711L37.8933 21.1721ZM34.9155 17.5164L36.3202 13.6428L37.1286 17.5164H34.9155ZM23.6868 10.8551L21.48 21.1721H18.8112L21.0189 10.8551H23.6868Z" fill="white"/>
</g>
<defs>
<clipPath id="clip0_159_2197">
<rect width="33.0283" height="10.6667" fill="white" transform="translate(7.33337 10.6667)"/>
</clipPath>
</defs>
</svg>
