<svg width="60" height="33" viewBox="0 0 60 33" fill="none" xmlns="http://www.w3.org/2000/svg">
<g id="AIG_Logo">
<g id="Group">
<g id="Group_2">
<g id="Group_3">
<path id="Vector" d="M15.5145 12.1314L18.2184 18.3234H12.6844L15.5145 12.1314ZM15.0248 7.12012L6.54651 25.3355H9.5088L11.5397 20.9101H19.336L21.2468 25.3355H24.2542L16.0763 7.12012H15.0248Z" fill="#001871"/>
<path id="Vector_2" d="M29.8694 25.3325H27.1204V7.12012H29.8694V24.2329V25.3325Z" fill="#001871"/>
<g id="Group_4">
<path id="Vector_3" d="M44.2842 15.8479H51.8101V16.4487C51.8101 17.8157 51.6509 19.0295 51.3264 20.081C51.0139 21.0574 50.4822 21.9677 49.7341 22.818C48.0426 24.7227 45.8915 25.6721 43.2807 25.6721C40.73 25.6721 38.5489 24.7528 36.7342 22.9141C34.9166 21.0664 34.0093 18.8462 34.0093 16.2595C34.0093 13.6186 34.9346 11.3744 36.7823 9.53571C38.63 7.68803 40.8772 6.7627 43.5301 6.7627C44.9541 6.7627 46.2821 7.05111 47.5169 7.63095C48.6976 8.21079 49.8573 9.15116 50.9959 10.4551L49.0371 12.3298C47.5439 10.3409 45.7203 9.34644 43.5751 9.34644C41.6494 9.34644 40.03 10.0104 38.7261 11.3413C37.4222 12.6482 36.7673 14.2826 36.7673 16.2475C36.7673 18.2784 37.4943 19.9488 38.9514 21.2617C40.3124 22.4815 41.7876 23.0914 43.3739 23.0914C44.7258 23.0914 45.9396 22.6347 47.0181 21.7274C48.0937 20.8111 48.6976 19.7115 48.8238 18.4316H44.2812V15.8479H44.2842Z" fill="#001871"/>
</g>
</g>
<g id="Group_5">
<g id="Group_6">
<path id="Vector_4" d="M2.49662 2.49963H57.5034V29.9444H2.49662V2.49963ZM0 32.447H60V0H0V32.447Z" fill="#001871"/>
</g>
</g>
</g>
</g>
</g>
</svg>
