<svg width="161" height="9" viewBox="0 0 161 9" fill="none" xmlns="http://www.w3.org/2000/svg">
<g id="LHG_Endorsement-Member-of_1line_gray_rgb 1" clip-path="url(#clip0_1128_1232)">
<g id="Group">
<path id="Vector" d="M146.215 0.209351V4.88863C146.215 6.75143 147.256 8.04443 149.612 8.04443C151.957 8.04443 152.998 6.75143 152.998 4.88863V0.209351H151.223V4.77914C151.223 5.95183 150.686 6.46687 149.612 6.46687C148.527 6.46687 147.99 5.95183 147.99 4.77914V0.209351H146.215Z" fill="#666666"/>
<path id="Vector_2" d="M129.444 3.74875H126.277V5.29387H127.669V5.99546C127.296 6.2692 126.77 6.46656 125.938 6.46656C124.403 6.46656 123.746 5.65548 123.746 4.0448C123.746 2.43412 124.414 1.62304 125.872 1.62304C126.935 1.62304 127.395 1.87515 127.636 2.63148H129.499C129.291 1.06407 128.238 0.0447998 125.872 0.0447998C123.088 0.0447998 121.905 1.63385 121.905 4.0448C121.905 6.45575 123.088 8.0448 125.927 8.0448C127.571 8.0448 128.82 7.38715 129.444 6.79505V3.74875Z" fill="#666666"/>
<path id="Vector_3" d="M111.468 2.46681C111.314 0.833824 110.339 0.0450439 108.355 0.0450439C106.219 0.0450439 105.254 1.06431 105.254 2.44518C105.254 3.90243 106.065 4.56008 107.479 4.73514L108.564 4.86694C109.528 4.98725 109.78 5.23937 109.78 5.67735C109.78 6.20388 109.386 6.49925 108.323 6.49925C107.051 6.49925 106.822 6.00652 106.755 5.38198H104.947C105.068 7.00347 105.901 8.04437 108.323 8.04437C110.471 8.04437 111.61 7.20084 111.61 5.56785C111.61 4.04504 110.734 3.33264 109.122 3.13528L108.038 3.00415C107.326 2.91628 107.084 2.72974 107.084 2.32419C107.084 1.90783 107.369 1.55704 108.355 1.55704C109.309 1.55704 109.572 1.92946 109.66 2.46681L111.468 2.46681Z" fill="#666666"/>
<path id="Vector_4" d="M102.437 4.96525L98.8097 0.209595H97.1436V7.88043H98.9192V3.12409L102.546 7.88043H104.211V0.209595H102.437V4.96525Z" fill="#666666"/>
<path id="Vector_5" d="M157.609 0.209473H154.059V7.88031H155.834V5.11856H157.609C159.308 5.11856 160.173 4.11079 160.173 2.66368C160.173 1.09693 159.296 0.209473 157.609 0.209473ZM157.324 3.57345H155.834V1.75459H157.324C158.036 1.75459 158.332 2.05063 158.332 2.66368C158.332 3.2774 158.036 3.57345 157.324 3.57345Z" fill="#666666"/>
<path id="Vector_6" d="M141.372 0.0447998C138.534 0.0447998 137.372 1.74335 137.372 4.0448C137.372 6.34625 138.534 8.0448 141.372 8.0448C144.21 8.0448 145.372 6.34625 145.372 4.0448C145.372 1.74335 144.21 0.0447998 141.372 0.0447998ZM141.372 6.46656C139.882 6.46656 139.213 5.58992 139.213 4.0448C139.213 2.49968 139.882 1.62303 141.372 1.62303C142.862 1.62303 143.531 2.49968 143.531 4.0448C143.531 5.58992 142.862 6.46656 141.372 6.46656Z" fill="#666666"/>
<path id="Vector_7" d="M136.742 6.76236C136.567 5.60048 136.128 4.91038 135.493 4.52647C136.326 4.19798 136.731 3.5187 136.731 2.59812C136.731 1.14087 135.865 0.209473 134.068 0.209473H130.484V7.88031H132.26V5.11856H133.356C134.299 5.11856 134.78 5.73228 134.945 6.91579L135.076 7.88031H136.906L136.742 6.76236ZM133.849 3.57345H132.26V1.75459H133.849C134.55 1.75459 134.89 2.05063 134.89 2.66368C134.89 3.2774 134.55 3.57345 133.849 3.57345Z" fill="#666666"/>
<path id="Vector_8" d="M116.741 0.209839H114.571L111.788 7.88H113.727L114.144 6.58699H117.157L117.585 7.88H119.524L116.741 0.209839ZM114.637 5.08581L115.656 2.00707L116.664 5.08581H114.637Z" fill="#666666"/>
<path id="Vector_9" d="M93.7838 0.209839H91.6141L88.8301 7.88H90.7699L91.1863 6.58699H94.2001L94.6273 7.88H96.5672L93.7838 0.209839ZM91.6797 5.08581L92.699 2.00707L93.7067 5.08581H91.6797Z" fill="#666666"/>
<path id="Vector_10" d="M83.0816 3.25565V0.209351H81.3066V7.88019H83.0816V4.80077H86.38V7.88019H88.1556V0.209351H86.38V3.25565H83.0816Z" fill="#666666"/>
<path id="Vector_11" d="M76.606 1.75447V7.88018H78.3816V1.75447H80.529V0.209351H74.458V1.75447H76.606Z" fill="#666666"/>
<path id="Vector_12" d="M70.1301 7.88018V4.9765H73.4833V3.43071H70.1301V1.75447H73.6806V0.209351H68.3545V7.88018H70.1301Z" fill="#666666"/>
<path id="Vector_13" d="M60.501 0.209351V4.88863C60.501 6.75143 61.5419 8.04443 63.8981 8.04443C66.2435 8.04443 67.2844 6.75143 67.2844 4.88863V0.209351H65.5087V4.77914C65.5087 5.95183 64.9721 6.46687 63.8981 6.46687C62.8132 6.46687 62.2766 5.95183 62.2766 4.77914V0.209351H60.501Z" fill="#666666"/>
<path id="Vector_14" d="M54.7959 0.209351V7.88019H60.0754V6.33507H56.5715V0.209351H54.7959Z" fill="#666666"/>
</g>
<g id="Group_2">
<path id="Vector_15" d="M0 0.23291H0.916497L4.09206 6.71472L7.26729 0.23291H8.18378V7.87115H7.38742V1.74973L4.37555 7.87115H3.80823L0.796695 1.74973V7.87115H0V0.23291Z" fill="#666666"/>
<path id="Vector_16" d="M14.1448 5.4817H9.94383C9.99828 6.63813 10.555 7.30347 11.7115 7.30347C12.7154 7.30347 13.0864 6.92196 13.2501 6.34374H14.0468C13.8722 7.29291 13.1408 8.00182 11.7115 8.00182C10.0313 8.00182 9.14746 6.9543 9.14746 5.26322C9.14746 3.61571 10.0092 2.52429 11.6897 2.52429C13.3593 2.52429 14.1557 3.48468 14.1557 5.15431C14.1557 5.27444 14.1557 5.36157 14.1448 5.4817ZM13.3593 4.82692C13.2719 3.68105 12.7372 3.22264 11.6897 3.22264C10.6095 3.22264 10.0748 3.81207 9.95472 4.82692H13.3593Z" fill="#666666"/>
<path id="Vector_17" d="M15.2061 2.65531H15.948V3.28831C16.21 2.88436 16.6793 2.52429 17.5192 2.52429C18.4143 2.52429 19.0687 2.80812 19.3961 3.44112C19.6582 2.9936 20.2255 2.52429 21.2077 2.52429C22.5278 2.52429 23.3463 3.16818 23.3463 4.63022V7.87113H22.5823V4.71735C22.5823 3.6266 22.0149 3.22264 21.1202 3.22264C20.2146 3.22264 19.6582 3.6266 19.6582 4.71735V7.87113H18.8942V4.71735C18.8942 3.6266 18.3268 3.22264 17.4321 3.22264C16.5265 3.22264 15.9701 3.6266 15.9701 4.71735V7.87113H15.2061V2.65531Z" fill="#666666"/>
<path id="Vector_18" d="M29.7222 5.27447C29.7222 6.97611 28.8711 8.00185 27.147 8.00185C26.2849 8.00185 25.641 7.71868 25.281 7.1398V7.87115H24.5391V0.23291H25.3031V3.35369C25.674 2.79725 26.3067 2.52432 27.147 2.52432C28.8711 2.52432 29.7222 3.56095 29.7222 5.27447ZM28.9364 5.27447C28.9364 3.97579 28.3364 3.22266 27.1034 3.22266C25.8704 3.22266 25.281 3.97579 25.281 5.27447C25.281 6.56159 25.8704 7.3035 27.1034 7.3035C28.3364 7.3035 28.9364 6.56159 28.9364 5.27447Z" fill="#666666"/>
<path id="Vector_19" d="M35.485 5.4817H31.284C31.3385 6.63813 31.8952 7.30347 33.0516 7.30347C34.0556 7.30347 34.4266 6.92196 34.5903 6.34374H35.3869C35.2124 7.29291 34.481 8.00182 33.0516 8.00182C31.3715 8.00182 30.4873 6.9543 30.4873 5.26322C30.4873 3.61571 31.3493 2.52429 33.0299 2.52429C34.6995 2.52429 35.4959 3.48468 35.4959 5.15431C35.4959 5.27444 35.4959 5.36157 35.485 5.4817ZM34.6995 4.82692C34.612 3.68105 34.0774 3.22264 33.0299 3.22264C31.9497 3.22264 31.415 3.81207 31.2949 4.82692H34.6995Z" fill="#666666"/>
<path id="Vector_20" d="M38.6953 3.26653C37.8332 3.26653 37.2005 3.85564 37.2005 4.63022V7.87113H36.4365V2.65531H37.1784V3.37544C37.4296 2.91736 37.9751 2.52429 38.859 2.52429C38.9243 2.52429 38.99 2.52429 39.0771 2.53518V3.28831C38.99 3.27742 38.8372 3.26653 38.6953 3.26653Z" fill="#666666"/>
<path id="Vector_21" d="M43.8804 2.52429C45.6153 2.52429 46.4992 3.57181 46.4992 5.26322C46.4992 6.9543 45.6153 8.00182 43.8804 8.00182C42.1457 8.00182 41.2725 6.9543 41.2725 5.26322C41.2725 3.57181 42.1457 2.52429 43.8804 2.52429ZM43.8804 7.30347C45.1246 7.30347 45.7137 6.551 45.7137 5.26322C45.7137 3.97577 45.1246 3.22264 43.8804 3.22264C42.6365 3.22264 42.0583 3.97577 42.0583 5.26322C42.0583 6.551 42.6365 7.30347 43.8804 7.30347Z" fill="#666666"/>
<path id="Vector_22" d="M47.8763 2.65535V1.94611C47.8763 0.669553 48.5529 0.178467 49.6331 0.178467C49.873 0.178467 50.0476 0.189358 50.2331 0.222031V0.909486C50.0694 0.887704 49.9278 0.876813 49.775 0.876813C49.1202 0.876813 48.64 1.04051 48.64 1.95701V2.65535H50.2331V3.31013H48.64V7.87116H47.8763V3.31013H46.8506V2.65535H47.8763Z" fill="#666666"/>
</g>
</g>
<defs>
<clipPath id="clip0_1128_1232">
<rect width="160.173" height="8" fill="white" transform="translate(0 0.0447998)"/>
</clipPath>
</defs>
</svg>
