<?xml version="1.0" encoding="utf-8"?>
<!-- Generator: Adobe Illustrator 25.4.1, SVG Export Plug-In . SVG Version: 6.00 Build 0)  -->
<svg version="1.1" id="Ebene_1" xmlns="http://www.w3.org/2000/svg" xmlns:xlink="http://www.w3.org/1999/xlink" x="0px" y="0px"
	 viewBox="0 0 2494.5 439.4" style="enable-background:new 0 0 2494.5 439.4;" xml:space="preserve">
<style type="text/css">
	.st0{fill:#FFFFFF;}
</style>
<path class="st0" d="M2395.1,151.2c-60.3,0-89.5,23.1-91.9,66.4h59.5c0.8-11.3,7.3-19.8,32.4-19.8c22.3,0,32.8,7.3,32.8,18.2
	c0,9.7-6.1,13.4-21.1,15l-38.9,4c-52.6,5.7-76.5,27.5-76.5,67.2c0,36.8,22.7,65.2,70.9,65.2c32.8,0,52.2-10.5,69.2-31.6v25.5h55.9
	v-134C2487.4,171.1,2454.6,151.2,2395.1,151.2 M2429.1,282c0,22.3-21.1,38.9-53.5,38.9c-15.8,0-25.1-7.3-25.1-21.1
	c0-10.5,6.5-19.4,27.1-22.3l35.2-4.9c6.1-0.8,12.6-2,16.2-3.2V282z M2198.3,233.5c51.8,6.9,77.7,23.1,77.7,65.6
	c0,42.9-30.4,68.4-94.8,68.4c-70.1,0-94.8-27.9-96-68.8h60.3c1.6,15,12.2,22.3,35.6,22.3c23.9,0,33.6-5.7,33.6-17
	c0-10.5-8.1-15.4-29.2-18.2l-21.5-2.8c-44.9-6.1-70.9-23.5-70.9-64c0-38.9,28.8-67.6,89.1-67.6c55.9,0,85.8,22.3,88.7,66.4h-59.5
	c-2-11.7-8.5-19-29.2-19c-20.2,0-27.9,6.9-27.9,15.8c0,8.9,4.9,13.8,22.3,16.2L2198.3,233.5 M1989.1,151.2
	c53.1,0,80.2,23.5,80.2,90.7v119.5h-61.1V244.8c0-27.1-11.7-39.3-37.3-39.3c-23.1,0-36.8,12.1-36.8,39.3v116.6h-61.1V157.3h57.5
	v23.5C1938.9,165,1956.3,151.2,1989.1,151.2 M1755.4,151.2c-60.3,0-89.5,23.1-91.9,66.4h59.5c0.8-11.3,7.3-19.8,32.4-19.8
	c22.3,0,32.8,7.3,32.8,18.2c0,9.7-6.1,13.4-21.1,15l-38.9,4c-52.6,5.7-76.5,27.5-76.5,67.2c0,36.8,22.7,65.2,70.9,65.2
	c32.8,0,52.2-10.5,69.2-31.6v25.5h55.9v-134C1847.7,171.1,1814.9,151.2,1755.4,151.2 M1789.4,282c0,22.3-21.1,38.9-53.5,38.9
	c-15.8,0-25.1-7.3-25.1-21.1c0-10.5,6.5-19.4,27.1-22.3l35.2-4.9c6.1-0.8,12.6-2,16.2-3.2V282z M1554.5,151.2
	c51.8,0,79,23.5,79,90.7v119.5h-61.2V244.8c0-27.1-11.7-39.3-37.3-39.3c-23.1,0-36.8,12.1-36.8,39.3v116.6h-61.1V78.4h61.6v98.8
	C1509.2,162.2,1525.8,151.2,1554.5,151.2 M1372.6,157.3h46.6v49.8h-46.6v79.4c0,21.9,11.3,27.5,29.2,27.5c7.3,0,17.4-1.2,17.4-1.2
	v49c0,0-14.2,3.2-29.2,3.2c-49,0-78.6-22.3-78.6-71.7v-86.3h-30.8v-49.8h30.8V97.8h61.1V157.3z M1158.8,149.6
	c0-49.4,31.2-75.7,80.2-75.7c15.8,0,25.9,2.4,25.9,2.4v49.4c0,0-8.5-0.8-15.8-0.8c-19,0-29.2,6.5-29.2,24.3v8.1h45v49.8h-45v154.3
	h-61.1V207.1H1128v-49.8h30.8V149.6 M1050.6,157.3h61.1v204.1h-57.5v-23.5c-8.5,15.8-25.9,29.6-57.9,29.6
	c-52.2,0-79.4-23.5-79.4-90.7V157.3h61.1v116.6c0,27.1,11.7,39.3,36.4,39.3c22.3,0,36-12.1,36-39.3V157.3z M781.3,304.3h121.9v57.1
	H715.7V78h65.6V304.3z M219.7,7.1c-117.6,0-212.6,95-212.6,212.6s95,212.6,212.6,212.6c117.6,0,212.6-95,212.6-212.6
	S337.3,7.1,219.7,7.1 M219.7,419.5c-110.3,0-199.8-89.5-199.8-199.8S109.3,19.8,219.7,19.8s199.8,89.5,199.8,199.8
	S330,419.5,219.7,419.5 M302.1,177.4c-1.6,0-3,0-3.7,0.1c-0.9,1.6-2.2,3.8-4.2,6.8c30.4,0,58.1,2.5,88.6,8l-8.6,8.3
	c-27.6-4.9-50.5-6.8-79.7-6.8c-4.3,0-5.1,0-6.2,0c-1,1.5-3.3,4.5-5.6,7.3c2.6-0.2,7.6-0.3,14.5-0.3c24,0,46.5,1.8,70.8,5.7l-8.6,8.4
	c-18.5-2.9-41.2-4.5-61.5-4.5c-7.2,0-15.4,0.3-22.8,0.7c-1.7,1.9-6,6.6-7.3,8c9.7-1,20.4-1.5,33.2-1.5c18.2,0,35.5,1.2,51.9,3.6
	l-8.6,8.3c-11.7-1.4-25.9-2.3-38.4-2.3c-32.4,0-57.9,7-84.2,23.1c25.1,27,66.3,44,106.2,44h3.7l-13.9,13.5
	c-57.5-10.8-118.1-36.1-169.2-70.7c-49.2-33.2-66.4-43-104.8-60l-0.3-9.9l26,11.1l8.8-7l84.8,38.9l-5.5,4.4L114,195.7l-4.3,3.4
	l22.6,12.6c19.1,10.6,33.6,15.4,47.1,15.4c29.4,0,55.7-20.8,72.7-57.4c12.8-1.7,26.4-2.4,42.9-2.4c33.7,0,66.4,3.2,103.4,10.2
	l-9,8.7C366.3,181.3,327.1,177.4,302.1,177.4"/>
</svg>
