<svg width="246" height="25" viewBox="0 0 246 25" fill="none" xmlns="http://www.w3.org/2000/svg">
<g id="Logo">
<g id="star">
<path id="Vector" d="M226.669 7.57785C227.562 6.33962 228.555 5.14765 229.645 4.01518C230.742 2.88107 231.903 1.84286 233.113 0.903809L231.817 6.10155L226.669 7.57785Z" fill="#D0D2D3"/>
<path id="Vector_2" d="M235.669 9.82149C234.15 9.66774 232.621 9.40487 231.096 9.02465C229.565 8.64277 228.087 8.15835 226.669 7.57785L231.817 6.10156L235.669 9.82149Z" fill="#58595B"/>
<path id="Vector_3" d="M233.114 0.907227C233.738 2.29925 234.274 3.75409 234.709 5.26513C235.144 6.78276 235.464 8.30396 235.669 9.8249L231.817 6.10167L233.114 0.907227Z" fill="#929497"/>
<path id="Vector_4" d="M224.851 18.2596C223.948 17.0263 223.121 15.7136 222.384 14.3283C221.643 12.9346 221.015 11.5112 220.496 10.0679L225.037 12.9065L224.851 18.2596Z" fill="#929497"/>
<path id="Vector_5" d="M229.767 10.3936C229.149 11.7922 228.428 13.1644 227.595 14.4968C226.758 15.836 225.841 17.0891 224.851 18.2596L225.037 12.9064L229.767 10.3936Z" fill="#58595B"/>
<path id="Vector_6" d="M220.496 10.0694C222.015 9.90402 223.564 9.84452 225.137 9.89742C226.712 9.95363 228.26 10.1189 229.767 10.3934L225.037 12.9063L220.496 10.0694Z" fill="#D0D2D3"/>
<path id="Vector_7" d="M234.447 23.2903C232.996 23.768 231.493 24.1483 229.944 24.4211C228.391 24.6938 226.844 24.8525 225.312 24.9005L229.415 21.4585L234.447 23.2903Z" fill="#58595B"/>
<path id="Vector_8" d="M228.484 16.1848C229.623 17.2015 230.706 18.3125 231.716 19.5194C232.73 20.7262 233.641 21.986 234.448 23.2903L229.415 21.4586L228.484 16.1848Z" fill="#929497"/>
<path id="Vector_9" d="M225.312 24.9005C225.624 23.4044 226.044 21.9131 226.585 20.4352C227.123 18.9506 227.76 17.5338 228.487 16.1831L229.415 21.4585L225.312 24.9005Z" fill="#D0D2D3"/>
<path id="Vector_10" d="M242.196 15.7168C242.203 17.2444 242.1 18.7918 241.882 20.3491C241.66 21.9098 241.333 23.4324 240.905 24.9037L238.899 19.9358L242.196 15.7168Z" fill="#929497"/>
<path id="Vector_11" d="M233.596 19.1918C234.915 18.4231 236.307 17.737 237.765 17.1485C239.227 16.5566 240.708 16.0805 242.197 15.7168L238.899 19.9358L233.596 19.1918Z" fill="#D0D2D3"/>
<path id="Vector_12" d="M240.905 24.9021C239.579 24.145 238.289 23.282 237.051 22.3132C235.808 21.3428 234.654 20.2963 233.596 19.1919L238.899 19.9359L240.905 24.9021Z" fill="#58595B"/>
<path id="Vector_13" d="M237.391 6.00732C238.844 6.47355 240.285 7.05053 241.697 7.73844C243.116 8.42953 244.461 9.21148 245.728 10.0745L240.385 10.4464L237.391 6.00732Z" fill="#929497"/>
<path id="Vector_14" d="M238.037 15.2606C237.713 13.766 237.491 12.2318 237.382 10.6646C237.273 9.09075 237.277 7.53485 237.391 6.00562L240.385 10.4464L238.037 15.2606Z" fill="#D0D2D3"/>
<path id="Vector_15" d="M245.728 10.0745C244.594 11.0994 243.377 12.06 242.074 12.9395C240.765 13.8223 239.416 14.5944 238.037 15.2606L240.385 10.4464L245.728 10.0745Z" fill="#58595B"/>
</g>
<g id="Vector_16">
<path d="M5.16795 9.50835H4.28265L0 18.8234H1.05226C1.05226 18.8234 2.27728 16.1642 2.37649 15.9468C2.6162 15.9468 6.82779 15.9468 7.06751 15.9468C7.17001 16.1675 8.37768 18.8234 8.37768 18.8234H9.45394L5.16795 9.50835ZM2.78071 15.0499C2.99727 14.5812 4.42896 11.4401 4.71827 10.7979C5.01339 11.4401 6.45498 14.5812 6.66989 15.0499C6.15906 15.0499 3.28824 15.0499 2.78071 15.0499Z" fill="black"/>
<path d="M14.9703 15.7641C14.9703 16.6875 15.2423 17.3678 15.7829 17.91C16.4987 18.6325 17.7783 18.997 19.3803 18.997C20.2796 18.997 23.3546 18.8003 23.3546 16.2469C23.3546 14.0002 21.3055 13.7935 19.496 13.6108C17.6308 13.4231 16.2516 13.2165 16.2516 11.9485C16.2516 11.3195 16.5752 10.8632 17.241 10.5573C17.9263 10.2415 18.6661 10.1944 19.4332 10.1944C20.0242 10.1944 21.1083 10.2862 21.7188 10.897C22.0023 11.1797 22.1461 11.6311 22.1461 12.0758L23.086 12.0865C23.086 11.4038 22.8686 10.7144 22.4371 10.2829C21.6502 9.4951 20.3276 9.33144 19.3571 9.33144C18.0226 9.33144 16.7074 9.61746 15.8994 10.425C15.4779 10.8474 15.2646 11.36 15.2646 11.9485C15.2646 14.1465 17.5022 14.3266 19.2588 14.4845C20.0912 14.5589 20.8756 14.63 21.4576 14.8855C22.0742 15.1533 22.3623 15.6005 22.3623 16.2882C22.3623 16.7255 22.2164 17.0925 21.9295 17.3785C21.2484 18.0604 19.8341 18.134 19.3191 18.134C18.0503 18.134 17.0298 17.8596 16.4896 17.319C16.0995 16.9288 15.8994 16.4469 15.8953 15.7633L14.9703 15.7641ZM24.5036 9.50505V10.4168C24.5036 10.4168 27.7489 10.4168 28.1118 10.4168C28.1118 10.8045 28.1118 18.8234 28.1118 18.8234H29.0707C29.0707 18.8234 29.0707 10.8045 29.0707 10.4168C29.4343 10.4168 32.6788 10.4168 32.6788 10.4168V9.50505H24.5036ZM36.9098 9.50505L32.6246 18.8234H33.6773C33.6773 18.8234 34.9024 16.1642 35.0032 15.9443C35.2438 15.9443 39.4537 15.9443 39.6959 15.9443C39.7963 16.1642 41.0052 18.8234 41.0052 18.8234H42.0807L37.7955 9.50505H36.9098ZM37.3454 10.7945C37.6393 11.4368 39.0813 14.5812 39.2958 15.0483C38.7866 15.0483 35.9158 15.0483 35.4086 15.0483C35.6207 14.5821 37.0532 11.4368 37.3454 10.7945ZM44.4522 9.50505V18.8234H45.4218C45.4218 18.8234 45.4218 15.14 45.4218 14.7722C45.7884 14.7722 49.1965 14.7722 49.1965 14.7722C50.8572 14.7722 51.2474 15.1053 51.2903 16.5536C51.3251 18.067 51.3928 18.5639 51.5945 18.7639L51.6545 18.8234H52.6555L52.4984 18.5234C52.3463 18.2341 52.2918 17.6562 52.2777 16.1501C52.2636 15.2277 51.7586 14.5556 50.9576 14.2614C52.0025 13.7926 52.4307 12.847 52.4307 12.0692C52.4307 10.344 51.3771 9.50505 49.211 9.50505H44.4522ZM49.256 10.4168C50.7278 10.4168 51.4433 10.9475 51.4433 12.0394C51.4433 13.2653 50.6819 13.8613 49.118 13.8613C49.118 13.8613 45.788 13.8613 45.4218 13.8613C45.4218 13.5149 45.4218 10.7631 45.4218 10.4168C45.7888 10.4168 49.256 10.4168 49.256 10.4168ZM63.4898 9.50505L59.2051 18.8234H60.2739C60.2739 18.8234 61.4832 16.1642 61.5837 15.9443C61.8259 15.9443 66.0354 15.9443 66.2764 15.9443C66.3776 16.1642 67.6019 18.8234 67.6019 18.8234H68.6603L64.3913 9.50505H63.4898ZM63.9399 10.7945C64.2318 11.4368 65.6634 14.5821 65.8771 15.0483C65.3696 15.0483 62.4987 15.0483 61.99 15.0483C62.204 14.5812 63.6452 11.4368 63.9399 10.7945ZM96.1331 9.50505L91.8488 18.8234H92.9163C92.9163 18.8234 94.1274 16.1642 94.2274 15.9443C94.4696 15.9443 98.6795 15.9443 98.9208 15.9443C99.0213 16.1642 100.245 18.8234 100.245 18.8234H101.305L97.035 9.50505H96.1331ZM96.5828 10.7945C96.875 11.4368 98.3084 14.5821 98.52 15.0483C98.0132 15.0483 95.1412 15.0483 94.6336 15.0483C94.8473 14.5812 96.2897 11.4368 96.5828 10.7945ZM71.0302 9.50505V18.8234H77.7451V17.9125C77.7451 17.9125 72.3809 17.9125 72.0002 17.9125C72.0002 17.524 72.0002 9.50505 72.0002 9.50505H71.0302ZM79.8216 9.50505V18.8234H86.5238V17.9125C86.5238 17.9125 81.1706 17.9125 80.7921 17.9125C80.7921 17.524 80.7921 9.50505 80.7921 9.50505H79.8216ZM88.5349 9.50505V18.8234H89.4938V9.50505H88.5349ZM111.331 9.50505C111.331 9.50505 111.331 16.308 111.331 17.281C110.731 16.5544 104.584 9.50505 104.584 9.50505H103.616V18.8234H104.57C104.57 18.8234 104.57 11.9774 104.57 11.0475C105.17 11.7732 111.317 18.8234 111.317 18.8234H112.285V9.50505H111.331ZM127.152 9.50505V18.8234H134.671V17.9125C134.671 17.9125 128.499 17.9125 128.118 17.9125C128.118 17.567 128.118 14.7978 128.118 14.4523C128.498 14.4523 134.336 14.4523 134.336 14.4523V13.5562C134.336 13.5562 128.498 13.5562 128.118 13.5562C128.118 13.2157 128.118 10.7582 128.118 10.4168C128.499 10.4168 134.596 10.4168 134.596 10.4168V9.50505H127.152ZM114.991 14.1779C114.991 17.1198 117.037 19.021 120.042 19.021C122.842 19.021 124.535 17.1313 124.759 15.2607L124.788 15.0334H123.777L123.746 15.202C123.426 16.9966 122.006 18.11 120.042 18.11C117.146 18.11 115.99 16.0758 115.99 14.1713C115.99 11.8443 117.67 10.2184 120.078 10.2184C121.913 10.2184 123.232 11.0938 123.608 12.561L123.647 12.7164H124.656L124.6 12.4668C124.142 10.4598 122.493 9.30664 120.078 9.30664C116.655 9.30664 114.991 11.8319 114.991 14.1779Z" fill="black"/>
<path d="M151.371 9.46865H152.734V18.8292H151.784V10.7416H151.752L147.629 18.8292H146.732L142.621 10.7334H142.597V18.8292H141.638V9.46865H143.044L147.21 17.6083L151.371 9.46865Z" fill="black"/>
<path d="M156.171 9.5191V18.8416H163.7V17.9257C163.7 17.9257 157.525 17.9257 157.144 17.9257C157.144 17.5802 157.144 14.8135 157.144 14.4647C157.524 14.4647 163.367 14.4647 163.367 14.4647V13.5728C163.367 13.5728 157.524 13.5728 157.144 13.5728C157.144 13.2331 157.144 10.7681 157.144 10.4292C157.524 10.4292 163.626 10.4292 163.626 10.4292V9.5191H156.171Z" fill="black"/>
<path d="M176.376 9.47195H177.744V18.8358H176.789V10.754H176.759L172.632 18.8358H171.741L167.625 10.7367H167.6V18.8358H166.643V9.47195H168.045L172.214 17.6116L176.376 9.47195Z" fill="black"/>
<path d="M182.167 10.3771H186.32C187.377 10.3771 188.134 10.7416 188.134 11.8873C188.134 13.138 187.299 13.5538 185.996 13.5538H182.167V10.3771ZM181.209 18.8234H186.382C187.818 18.8234 189.457 18.12 189.457 16.1675C189.457 14.9698 188.718 14.0762 187.493 13.8869V13.8629C188.601 13.5976 189.093 12.7569 189.093 11.8518C189.093 10.5168 188.332 9.4976 186.506 9.4976H181.209V18.8234ZM182.167 14.4324H186.464C187.585 14.4324 188.426 14.8135 188.426 16.1675C188.426 17.4479 187.478 17.9464 186.229 17.9464H182.167V14.4324Z" fill="black"/>
<path d="M192.504 9.51165V18.8292H200.03V17.915C200.03 17.915 193.858 17.915 193.469 17.915C193.469 17.5711 193.469 14.8011 193.469 14.4539C193.852 14.4539 199.695 14.4539 199.695 14.4539V13.5595C199.695 13.5595 193.852 13.5595 193.469 13.5595C193.469 13.219 193.469 10.7631 193.469 10.4193C193.852 10.4193 199.951 10.4193 199.951 10.4193V9.51165H192.504Z" fill="black"/>
<path d="M211.001 18.5308C210.847 18.2373 210.794 17.6604 210.781 16.1518C210.767 15.2343 210.259 14.5622 209.46 14.2663C210.508 13.7993 210.931 12.852 210.931 12.0733C210.931 10.3449 209.882 9.50175 207.714 9.50175H202.954V18.8292H203.925C203.925 18.8292 203.925 15.1417 203.925 14.778C204.291 14.778 207.695 14.778 207.695 14.778C209.359 14.778 209.752 15.1095 209.796 16.5569C209.829 18.0712 209.893 18.568 210.1 18.7688L210.157 18.8292H211.158L211.001 18.5308ZM207.625 13.8629C207.625 13.8629 204.291 13.8629 203.925 13.8629C203.925 13.5174 203.925 10.7631 203.925 10.4193C204.291 10.4193 207.759 10.4193 207.759 10.4193C209.23 10.4193 209.947 10.9508 209.947 12.0419C209.947 13.2678 209.19 13.8629 207.625 13.8629Z" fill="black"/>
</g>
</g>
</svg>
