<?xml version="1.0" encoding="utf-8"?>
<!-- Generator: Adobe Illustrator 12.0.0, SVG Export Plug-In . SVG Version: 6.00 Build 51448)  -->
<!DOCTYPE svg PUBLIC "-//W3C//DTD SVG 1.1//EN" "http://www.w3.org/Graphics/SVG/1.1/DTD/svg11.dtd" [
	<!ENTITY ns_svg "http://www.w3.org/2000/svg">
	<!ENTITY ns_xlink "http://www.w3.org/1999/xlink">
]>
<svg  version="1.1" id="Ebene_1" xmlns="&ns_svg;" xmlns:xlink="&ns_xlink;" width="42" height="29" viewBox="0 0 42 29"
	 overflow="visible" enable-background="new 0 0 42 29" xml:space="preserve">
<g>
	<path id="XMLID_4_" d="M37.408,1.139H3.623c-0.14,0-0.281,0-0.421,0.001c-0.119,0-0.238,0.002-0.356,0.006
		C2.587,1.152,2.327,1.167,2.072,1.213c-0.26,0.047-0.501,0.123-0.736,0.243C1.104,1.573,0.893,1.728,0.709,1.911
		C0.526,2.094,0.372,2.306,0.254,2.538c-0.12,0.235-0.195,0.477-0.242,0.736c-0.046,0.254-0.062,0.515-0.068,0.773
		c-0.003,0.118-0.005,0.236-0.005,0.355c-0.001,0.141-0.001,0.281-0.001,0.422v18.976c0,0.142,0,0.281,0.001,0.423
		c0,0.118,0.002,0.236,0.005,0.354c0.006,0.259,0.021,0.519,0.068,0.774c0.047,0.259,0.123,0.5,0.242,0.735
		c0.117,0.231,0.271,0.443,0.455,0.626c0.183,0.184,0.395,0.339,0.626,0.455c0.235,0.12,0.477,0.196,0.736,0.243
		c0.254,0.047,0.515,0.062,0.773,0.068c0.118,0.003,0.237,0.005,0.356,0.005c0.14,0.002,0.281,0.002,0.421,0.002h33.785
		c0.14,0,0.281,0,0.421-0.002c0.118,0,0.238-0.002,0.356-0.005c0.258-0.007,0.519-0.021,0.775-0.068
		c0.258-0.047,0.499-0.123,0.733-0.243c0.233-0.116,0.442-0.271,0.627-0.455c0.184-0.183,0.338-0.395,0.455-0.626
		c0.121-0.235,0.197-0.477,0.242-0.735c0.047-0.256,0.062-0.516,0.068-0.774c0.004-0.118,0.005-0.236,0.005-0.354
		c0.002-0.142,0.002-0.281,0.002-0.423V4.825c0-0.141,0-0.281-0.002-0.422c0-0.119-0.001-0.237-0.005-0.355
		c-0.007-0.259-0.021-0.519-0.068-0.773c-0.045-0.26-0.121-0.501-0.242-0.736c-0.117-0.231-0.271-0.443-0.455-0.626
		c-0.185-0.184-0.394-0.338-0.627-0.455c-0.234-0.12-0.476-0.195-0.733-0.243c-0.257-0.046-0.518-0.061-0.775-0.067
		c-0.118-0.003-0.238-0.005-0.356-0.006C37.689,1.139,37.548,1.139,37.408,1.139L37.408,1.139z"/>
	<path id="XMLID_3_" fill="#FFFFFF" d="M37.408,2.018h0.416c0.111,0.002,0.225,0.002,0.338,0.006
		c0.196,0.005,0.428,0.016,0.643,0.054c0.186,0.034,0.343,0.085,0.492,0.161c0.148,0.076,0.284,0.174,0.404,0.293
		c0.118,0.119,0.218,0.254,0.293,0.405c0.076,0.149,0.128,0.304,0.161,0.493c0.038,0.212,0.048,0.443,0.054,0.641
		c0.003,0.112,0.005,0.224,0.006,0.338c0,0.138,0,0.277,0,0.416v18.976c0,0.139,0,0.277,0,0.418
		c-0.001,0.112-0.003,0.224-0.006,0.336c-0.006,0.197-0.016,0.428-0.054,0.644c-0.033,0.186-0.085,0.341-0.161,0.491
		c-0.075,0.149-0.175,0.286-0.293,0.404c-0.12,0.119-0.255,0.217-0.404,0.293c-0.149,0.077-0.307,0.128-0.491,0.161
		c-0.22,0.039-0.459,0.05-0.641,0.055c-0.112,0.003-0.226,0.003-0.343,0.004c-0.138,0.002-0.275,0.002-0.414,0.002H3.623
		c-0.001,0-0.003,0-0.005,0c-0.136,0-0.273,0-0.413-0.002c-0.113-0.001-0.226-0.001-0.336-0.004
		c-0.185-0.005-0.425-0.016-0.642-0.055c-0.186-0.033-0.342-0.084-0.494-0.161c-0.149-0.076-0.284-0.174-0.403-0.293
		c-0.118-0.119-0.217-0.254-0.293-0.404c-0.076-0.15-0.127-0.307-0.16-0.493c-0.04-0.215-0.05-0.445-0.055-0.641
		c-0.003-0.113-0.004-0.226-0.005-0.337l-0.001-0.331v-0.087V4.825V4.738l0.001-0.329c0.001-0.112,0.001-0.225,0.005-0.338
		c0.005-0.196,0.016-0.427,0.055-0.643c0.033-0.186,0.084-0.342,0.16-0.493c0.076-0.149,0.175-0.284,0.294-0.403
		c0.118-0.118,0.253-0.217,0.403-0.293c0.15-0.076,0.306-0.126,0.493-0.161C2.441,2.039,2.672,2.028,2.87,2.023
		C2.982,2.02,3.095,2.02,3.207,2.018h0.416H37.408"/>
	<g>
		<g>
			<path d="M11.173,10c0.352-0.441,0.591-1.032,0.528-1.637c-0.516,0.026-1.146,0.34-1.51,0.781
				C9.865,9.523,9.575,10.14,9.65,10.719C10.23,10.77,10.808,10.429,11.173,10"/>
			<path d="M11.695,10.832c-0.841-0.05-1.556,0.478-1.958,0.478s-1.017-0.452-1.682-0.44c-0.866,0.013-1.668,0.502-2.108,1.28
				c-0.904,1.558-0.238,3.868,0.641,5.136c0.427,0.628,0.941,1.319,1.619,1.294c0.64-0.025,0.89-0.415,1.669-0.415
				c0.778,0,1.004,0.415,1.682,0.402c0.702-0.013,1.142-0.627,1.568-1.256c0.49-0.715,0.69-1.405,0.703-1.444
				c-0.012-0.012-1.356-0.527-1.368-2.071c-0.013-1.292,1.055-1.908,1.104-1.946C12.963,10.958,12.022,10.857,11.695,10.832"/>
		</g>
		<g>
			<path d="M19.018,9.082c1.828,0,3.101,1.26,3.101,3.094c0,1.841-1.3,3.106-3.146,3.106h-2.024v3.219h-1.462V9.082H19.018z
				 M16.948,14.056h1.678c1.273,0,1.998-0.686,1.998-1.874s-0.725-1.867-1.991-1.867h-1.685V14.056z"/>
			<path d="M22.5,16.549c0-1.2,0.921-1.938,2.552-2.03l1.881-0.111V13.88c0-0.764-0.517-1.22-1.377-1.22
				c-0.817,0-1.325,0.392-1.45,1.005h-1.331c0.078-1.241,1.136-2.154,2.832-2.154c1.665,0,2.729,0.881,2.729,2.258v4.732h-1.353
				v-1.129h-0.031c-0.398,0.764-1.267,1.247-2.168,1.247C23.439,18.619,22.5,17.783,22.5,16.549z M26.933,15.929v-0.542l-1.69,0.104
				c-0.843,0.06-1.319,0.432-1.319,1.019c0,0.601,0.496,0.992,1.254,0.992C26.162,17.502,26.933,16.823,26.933,15.929z"/>
			<path d="M29.611,21.027v-1.143c0.104,0.026,0.339,0.026,0.457,0.026c0.653,0,1.005-0.274,1.221-0.979
				c0-0.014,0.124-0.418,0.124-0.426l-2.48-6.873h1.527l1.736,5.588h0.026l1.736-5.588h1.487l-2.571,7.227
				c-0.587,1.664-1.266,2.2-2.689,2.2C30.068,21.061,29.716,21.047,29.611,21.027z"/>
		</g>
	</g>
</g>
</svg>
