<?xml version="1.0" encoding="utf-8"?>
<!-- Generator: Adobe Illustrator 12.0.0, SVG Export Plug-In . SVG Version: 6.00 Build 51448)  -->
<!DOCTYPE svg PUBLIC "-//W3C//DTD SVG 1.1//EN" "http://www.w3.org/Graphics/SVG/1.1/DTD/svg11.dtd" [
	<!ENTITY ns_svg "http://www.w3.org/2000/svg">
	<!ENTITY ns_xlink "http://www.w3.org/1999/xlink">
]>
<svg  version="1.1" id="Ebene_1" xmlns="&ns_svg;" xmlns:xlink="&ns_xlink;" width="43" height="29" viewBox="0 -0.126 43 29"
	 overflow="visible" enable-background="new 0 -0.126 43 29" xml:space="preserve">
<path fill="#141C40" d="M42.9,25.894V10.638H0v15.253c0,0.817,0.292,1.521,0.876,2.104c0.585,0.586,1.286,0.878,2.105,0.878H39.92
	c0.818,0,1.521-0.292,2.104-0.878C42.609,27.413,42.9,26.71,42.9,25.894L42.9,25.894L42.9,25.894z M42.9,2.981
	c0-0.818-0.291-1.52-0.877-2.105C41.439,0.291,40.738,0,39.92,0H2.98C2.161,0,1.46,0.291,0.876,0.877C0.293,1.461,0,2.163,0,2.981
	v3.272h42.9V2.981z"/>
</svg>
