<svg width="122" height="239" viewBox="0 0 122 239" fill="none" xmlns="http://www.w3.org/2000/svg">
<g clip-path="url(#clip0_4782_17592)">
<path d="M103.715 2.62988H17.6153C10.5054 2.62988 4.7417 8.39359 4.7417 15.5035V222.588C4.7417 229.698 10.5054 235.462 17.6153 235.462H103.715C110.825 235.462 116.589 229.698 116.589 222.588V15.5035C116.589 8.39359 110.825 2.62988 103.715 2.62988Z" stroke="#CED4DA" stroke-width="0.830552"/>
<path d="M104.827 0.415039H16.5118C8.79027 0.415039 2.53076 6.67455 2.53076 14.396V223.696C2.53076 231.418 8.79027 237.677 16.5118 237.677H104.827C112.548 237.677 118.808 231.418 118.808 223.696V14.396C118.808 6.67455 112.548 0.415039 104.827 0.415039Z" stroke="#CED4DA" stroke-width="0.830552"/>
<path d="M2.52783 48.5889V60.4932H2.11279C1.27189 60.4932 0.590404 59.8116 0.590332 58.9708V50.1114C0.590332 49.2704 1.27184 48.5889 2.11279 48.5889H2.52783Z" stroke="#CED4DA" stroke-width="0.830552"/>
<path d="M2.52783 64.0918V75.9961H2.11279C1.27189 75.9961 0.590404 75.3145 0.590332 74.4736V65.6143C0.590332 64.7733 1.27184 64.0918 2.11279 64.0918H2.52783Z" stroke="#CED4DA" stroke-width="0.830552"/>
<path d="M2.52783 79.5957V91.5H2.11279C1.27189 91.5 0.590404 90.8184 0.590332 89.9775V81.1181C0.590332 80.2772 1.27184 79.5957 2.11279 79.5957H2.52783Z" stroke="#CED4DA" stroke-width="0.830552"/>
<path d="M118.804 60.7686V79.3174H119.219C120.06 79.3174 120.741 78.6358 120.741 77.795V62.2911C120.741 61.4501 120.06 60.7686 119.219 60.7686H118.804Z" stroke="#CED4DA" stroke-width="0.830552"/>
<path d="M68.5555 9.27441H53.052C52.6697 9.27441 52.3599 9.58429 52.3599 9.96654C52.3599 10.3488 52.6697 10.6587 53.052 10.6587H68.5555C68.9378 10.6587 69.2477 10.3488 69.2477 9.96654C69.2477 9.58429 68.9378 9.27441 68.5555 9.27441Z" stroke="#CED4DA" stroke-width="0.830552"/>
<path d="M75.2022 9.27441C75.5844 9.27442 75.8946 9.58454 75.8946 9.96679C75.8946 10.349 75.5844 10.6591 75.2022 10.6591C74.82 10.6591 74.5098 10.349 74.5098 9.96679C74.5098 9.58453 74.8199 9.27441 75.2022 9.27441Z" stroke="#CED4DA" stroke-width="0.830552"/>
<mask id="mask0_4782_17592" style="mask-type:luminance" maskUnits="userSpaceOnUse" x="5" y="6" width="110" height="226">
<path d="M114.879 6.03711H5.32324V231.19H114.879V6.03711Z" fill="white"/>
</mask>
<g mask="url(#mask0_4782_17592)">
<path fill-rule="evenodd" clip-rule="evenodd" d="M18.9841 6.03809C12.8681 6.03809 7.91016 10.9961 7.91016 17.1122V219.767C7.91016 225.883 12.8681 230.841 18.9841 230.841H100.655C106.771 230.841 111.729 225.883 111.729 219.767V17.1122C111.729 10.9961 106.771 6.03809 100.655 6.03809H18.9841ZM85.8433 6.03814H33.9339V8.25295C33.9339 11.9226 36.9087 14.8974 40.5783 14.8974H79.1989C82.8685 14.8974 85.8433 11.9226 85.8433 8.25296V6.03814Z" fill="white"/>
<path d="M105.884 113.01H15.6843C14.7314 113.01 13.959 113.782 13.959 114.735V222.278C13.959 223.231 14.7314 224.004 15.6843 224.004H105.884C106.837 224.004 107.61 223.231 107.61 222.278V114.735C107.61 113.782 106.837 113.01 105.884 113.01Z" fill="#F2F4F8"/>
<path d="M101.916 137.698H19.4516C17.5459 137.698 16.001 139.243 16.001 141.149V218.105C16.001 220.011 17.5459 221.556 19.4516 221.556H101.916C103.822 221.556 105.367 220.011 105.367 218.105V141.149C105.367 139.243 103.822 137.698 101.916 137.698Z" fill="white"/>
<mask id="mask1_4782_17592" style="mask-type:alpha" maskUnits="userSpaceOnUse" x="31" y="163" width="15" height="9">
<path d="M44.6491 163.042H31.8309C31.4728 163.042 31.1826 163.332 31.1826 163.69V171.02C31.1826 171.378 31.4728 171.668 31.8309 171.668H44.6491C45.0072 171.668 45.2974 171.378 45.2974 171.02V163.69C45.2974 163.332 45.0072 163.042 44.6491 163.042Z" fill="#0CD19E"/>
</mask>
<g mask="url(#mask1_4782_17592)">
<path d="M44.3835 162.945H32.2437C31.5676 162.945 31.0195 163.493 31.0195 164.17V170.474C31.0195 171.15 31.5676 171.698 32.2437 171.698H44.3835C45.0596 171.698 45.6077 171.15 45.6077 170.474V164.17C45.6077 163.493 45.0596 162.945 44.3835 162.945Z" fill="#0CD19E"/>
</g>
<path d="M48.4512 167.787C48.4512 168.502 49.0306 169.081 49.7452 169.081C50.4598 169.081 51.0392 168.502 51.0392 167.787C51.0392 167.072 50.4598 166.493 49.7452 166.493C49.0306 166.493 48.4512 167.072 48.4512 167.787Z" fill="#848FA4"/>
<path d="M57.0801 167.787C57.0801 168.502 57.6594 169.081 58.3741 169.081C59.0887 169.081 59.668 168.502 59.668 167.787C59.668 167.072 59.0887 166.493 58.3741 166.493C57.6594 166.493 57.0801 167.072 57.0801 167.787Z" fill="#848FA4"/>
<path d="M52.7661 167.787C52.7661 168.502 53.3454 169.081 54.06 169.081C54.7747 169.081 55.354 168.502 55.354 167.787C55.354 167.072 54.7747 166.493 54.06 166.493C53.3454 166.493 52.7661 167.072 52.7661 167.787Z" fill="#848FA4"/>
<path d="M61.394 167.787C61.394 168.502 61.9733 169.081 62.688 169.081C63.4026 169.081 63.9819 168.502 63.9819 167.787C63.9819 167.072 63.4026 166.493 62.688 166.493C61.9733 166.493 61.394 167.072 61.394 167.787Z" fill="#848FA4"/>
<mask id="mask2_4782_17592" style="mask-type:alpha" maskUnits="userSpaceOnUse" x="31" y="178" width="15" height="10">
<path d="M44.6491 178.576H31.8309C31.4728 178.576 31.1826 178.867 31.1826 179.225V186.554C31.1826 186.913 31.4728 187.203 31.8309 187.203H44.6491C45.0072 187.203 45.2974 186.913 45.2974 186.554V179.225C45.2974 178.867 45.0072 178.576 44.6491 178.576Z" fill="#3E83A5"/>
</mask>
<g mask="url(#mask2_4782_17592)">
<path d="M44.3835 178.479H32.2437C31.5676 178.479 31.0195 179.028 31.0195 179.704V186.008C31.0195 186.684 31.5676 187.232 32.2437 187.232H44.3835C45.0596 187.232 45.6077 186.684 45.6077 186.008V179.704C45.6077 179.028 45.0596 178.479 44.3835 178.479Z" fill="#3E83A5"/>
</g>
<path d="M48.4512 183.493C48.4512 184.208 49.0306 184.787 49.7452 184.787C50.4598 184.787 51.0392 184.208 51.0392 183.493C51.0392 182.778 50.4598 182.199 49.7452 182.199C49.0306 182.199 48.4512 182.778 48.4512 183.493Z" fill="#848FA4"/>
<path d="M57.0801 183.493C57.0801 184.208 57.6594 184.787 58.3741 184.787C59.0887 184.787 59.668 184.208 59.668 183.493C59.668 182.778 59.0887 182.199 58.3741 182.199C57.6594 182.199 57.0801 182.778 57.0801 183.493Z" fill="#848FA4"/>
<path d="M52.7661 183.493C52.7661 184.208 53.3454 184.787 54.06 184.787C54.7747 184.787 55.354 184.208 55.354 183.493C55.354 182.778 54.7747 182.199 54.06 182.199C53.3454 182.199 52.7661 182.778 52.7661 183.493Z" fill="#848FA4"/>
<path d="M61.394 183.493C61.394 184.208 61.9733 184.787 62.688 184.787C63.4026 184.787 63.9819 184.208 63.9819 183.493C63.9819 182.778 63.4026 182.199 62.688 182.199C61.9733 182.199 61.394 182.778 61.394 183.493Z" fill="#848FA4"/>
<path d="M48.4658 144.064H23.449C22.9726 144.064 22.5864 144.45 22.5864 144.927C22.5864 145.403 22.9726 145.79 23.449 145.79H48.4658C48.9423 145.79 49.3285 145.403 49.3285 144.927C49.3285 144.45 48.9423 144.064 48.4658 144.064Z" fill="#CED4DA"/>
<path d="M53.2926 144.064H51.9124C51.436 144.064 51.0498 144.45 51.0498 144.927C51.0498 145.403 51.436 145.79 51.9124 145.79H53.2926C53.7691 145.79 54.1553 145.403 54.1553 144.927C54.1553 144.45 53.7691 144.064 53.2926 144.064Z" fill="#CED4DA"/>
<path d="M57.9504 144.064H56.5702C56.0937 144.064 55.7075 144.45 55.7075 144.927C55.7075 145.403 56.0937 145.79 56.5702 145.79H57.9504C58.4268 145.79 58.8131 145.403 58.8131 144.927C58.8131 144.45 58.4268 144.064 57.9504 144.064Z" fill="#CED4DA"/>
<path d="M48.4659 149.351H23.449C22.9726 149.351 22.5864 149.738 22.5864 150.214C22.5864 150.69 22.9726 151.077 23.449 151.077H48.4659C48.9423 151.077 49.3285 150.69 49.3285 150.214C49.3285 149.738 48.9423 149.351 48.4659 149.351Z" fill="#CED4DA"/>
<path d="M53.2926 149.351H51.9124C51.436 149.351 51.0498 149.738 51.0498 150.214C51.0498 150.69 51.436 151.077 51.9124 151.077H53.2926C53.7691 151.077 54.1553 150.69 54.1553 150.214C54.1553 149.738 53.7691 149.351 53.2926 149.351Z" fill="#CED4DA"/>
<path d="M25.1739 164.941C26.5078 164.941 27.5889 166.022 27.5889 167.356C27.5889 168.69 26.5078 169.771 25.1739 169.771C23.8399 169.771 22.7588 168.69 22.7588 167.356C22.7588 166.022 23.8399 164.941 25.1739 164.941Z" stroke="#848FA4" stroke-width="0.34506"/>
<path d="M25.1703 168.494C25.7972 168.494 26.3054 167.985 26.3054 167.359C26.3054 166.732 25.7972 166.223 25.1703 166.223C24.5434 166.223 24.0352 166.732 24.0352 167.359C24.0352 167.985 24.5434 168.494 25.1703 168.494Z" fill="#848FA4"/>
<path d="M25.1739 180.468C26.5078 180.468 27.5889 181.549 27.5889 182.883C27.5889 184.217 26.5078 185.298 25.1739 185.298C23.8399 185.298 22.7588 184.217 22.7588 182.883C22.7588 181.549 23.8399 180.468 25.1739 180.468Z" stroke="#848FA4" stroke-width="0.34506"/>
<path d="M22.5269 155.589H98.6309" stroke="#848FA4" stroke-width="0.34506" stroke-miterlimit="10" stroke-linecap="round"/>
<path d="M93.3186 193.235H27.7575C24.8989 193.235 22.5815 195.553 22.5815 198.411C22.5815 201.27 24.8989 203.587 27.7575 203.587H93.3186C96.1772 203.587 98.4945 201.27 98.4945 198.411C98.4945 195.553 96.1772 193.235 93.3186 193.235Z" fill="#8C27A6"/>
<path d="M95.041 144.237H82.1013C80.2909 144.237 78.8232 145.705 78.8232 147.515V147.515C78.8232 149.326 80.2909 150.793 82.1013 150.793H95.041C96.8514 150.793 98.319 149.326 98.319 147.515V147.515C98.319 145.705 96.8514 144.237 95.041 144.237Z" stroke="#CED4DA" stroke-width="0.34506"/>
<path d="M41.9119 125.144C41.9119 128.887 38.8778 131.921 35.1351 131.921C31.3924 131.921 28.3584 128.887 28.3584 125.144C28.3584 121.402 31.3924 118.367 35.1351 118.367C38.8778 118.367 41.9119 121.402 41.9119 125.144Z" fill="black"/>
<path fill-rule="evenodd" clip-rule="evenodd" d="M37.4285 122.519C37.5375 122.414 37.7105 122.415 37.8186 122.521L39.7778 124.9C39.9145 125.034 39.9131 125.255 39.7748 125.387L37.8529 127.785C37.8055 127.831 37.7425 127.856 37.677 127.856H36.0633C35.8358 127.856 35.7227 127.581 35.8845 127.421L37.8538 125.145L36.0633 122.943H35.345L37.0574 124.901C37.1972 125.034 37.1973 125.257 37.0577 125.39L34.8077 127.785C34.7603 127.831 34.6973 127.856 34.6317 127.856H32.0859C31.5246 127.856 31.0695 127.401 31.0694 126.84C31.0693 125.71 31.0694 124.581 31.0695 123.451C31.0696 122.89 31.5247 122.435 32.0861 122.435H33.0973C33.2378 122.435 33.3517 122.548 33.3517 122.689C33.3517 122.829 33.2378 122.943 33.0973 122.943H32.2561C31.8818 122.943 31.5784 123.246 31.5784 123.62C31.5784 124.637 31.5784 125.654 31.5784 126.67C31.5784 127.044 31.8818 127.348 32.2561 127.348H34.4435L36.497 125.145L34.5277 122.87C34.3658 122.71 34.479 122.435 34.7064 122.435H36.2792C36.3448 122.435 36.4078 122.46 36.4552 122.505L38.4145 124.9C38.5541 125.034 38.554 125.257 38.4143 125.39L36.7018 127.348H37.4652L39.2106 125.145L37.4285 122.943C37.3168 122.832 37.3154 122.628 37.4285 122.519Z" fill="white"/>
<path d="M20.2265 117.464H32.4559C31.5642 117.775 30.7432 118.237 30.0236 118.819H20.6783C20.1793 118.819 19.7747 119.224 19.7747 119.723V127.84C19.7747 128.348 20.1858 128.759 20.6929 128.759H27.8486C28.0876 129.239 28.3726 129.693 28.6981 130.114H20.3328C19.276 130.114 18.4194 129.257 18.4194 128.201V119.271C18.4194 118.273 19.2285 117.464 20.2265 117.464Z" fill="black"/>
<path d="M24.2922 124.241C24.7912 124.241 25.1958 123.836 25.1958 123.337V121.53C25.1958 121.031 24.7912 120.626 24.2922 120.626H22.485C21.986 120.626 21.5815 121.031 21.5815 121.53V123.337C21.5815 123.836 21.986 124.241 22.485 124.241H24.2922Z" fill="black"/>
<path d="M54.147 196.686C54.4042 196.686 54.6507 196.788 54.8326 196.97C55.0146 197.152 55.1168 197.399 55.1168 197.657V198.051H55.2252C55.3014 198.051 55.3744 198.082 55.4283 198.136C55.4821 198.19 55.5123 198.263 55.5123 198.339V199.849C55.5122 199.925 55.4822 199.998 55.4283 200.052C55.3744 200.106 55.3013 200.136 55.2252 200.136H53.0679C52.9918 200.136 52.9186 200.106 52.8648 200.052C52.811 199.998 52.7809 199.925 52.7808 199.849V198.339C52.7808 198.263 52.811 198.19 52.8648 198.136C52.9186 198.082 52.9918 198.051 53.0679 198.051H53.1763V197.657C53.1763 197.399 53.2785 197.152 53.4605 196.97C53.6425 196.788 53.8896 196.686 54.147 196.686ZM59.2271 196.685C59.5327 196.685 59.7944 196.735 60.0113 196.833C60.2313 196.932 60.4009 197.073 60.5191 197.257C60.6372 197.441 60.6958 197.66 60.6959 197.912C60.6959 198.165 60.6372 198.384 60.5191 198.568C60.4008 198.752 60.2314 198.894 60.0113 198.992C59.7944 199.091 59.5327 199.14 59.2271 199.14H58.4488V200.136H57.8072V196.685H59.2271ZM64.4175 200.135H63.7476L63.4048 199.337H61.6783L61.3365 200.135H60.6763L62.2291 196.685H62.8599L64.4175 200.135ZM65.8345 198.363L66.855 196.685H67.4859L66.1353 198.92V200.135H65.4947V198.928L64.1392 196.685H64.8248L65.8345 198.363ZM54.0904 198.776C54.0347 198.787 53.9831 198.815 53.9429 198.855C53.9029 198.895 53.8759 198.947 53.8648 199.002C53.8538 199.058 53.8597 199.116 53.8814 199.168C53.9032 199.221 53.9397 199.266 53.9869 199.297C54.0342 199.329 54.0902 199.345 54.147 199.345C54.2232 199.345 54.2963 199.315 54.3502 199.261C54.404 199.207 54.4341 199.134 54.4341 199.058C54.4341 199.001 54.4169 198.945 54.3853 198.898C54.3537 198.851 54.3088 198.814 54.2564 198.792C54.2039 198.771 54.1461 198.765 54.0904 198.776ZM61.8931 198.834H63.189L62.5396 197.323L61.8931 198.834ZM58.4488 198.598H59.1978C59.4803 198.598 59.6923 198.538 59.8336 198.42C59.9781 198.299 60.0503 198.129 60.0503 197.912C60.0503 197.692 59.9781 197.523 59.8336 197.405C59.6923 197.286 59.4803 197.227 59.1978 197.227H58.4488V198.598ZM54.147 197.045C53.985 197.045 53.829 197.109 53.7144 197.224C53.5998 197.338 53.5357 197.494 53.5357 197.657V197.98C53.5357 197.999 53.5429 198.017 53.5562 198.031C53.5697 198.044 53.5889 198.051 53.608 198.051H54.6861C54.7051 198.051 54.7235 198.044 54.7369 198.031C54.7503 198.017 54.7573 197.999 54.7574 197.98V197.657C54.7574 197.494 54.6933 197.338 54.5787 197.224C54.4642 197.109 54.3089 197.045 54.147 197.045Z" fill="white"/>
<path d="M35.921 216.909H34.8032C34.6516 216.909 34.5141 216.823 34.4453 216.687C34.3766 216.55 34.3924 216.389 34.4841 216.266L36.152 214.034L34.403 211.69H33.7048L35.2581 213.791C35.3656 213.937 35.3621 214.137 35.251 214.279L33.3099 216.754C33.2341 216.852 33.1195 216.907 32.9961 216.907H30.7287C30.2862 216.907 29.9248 216.545 29.9248 216.098V211.967C29.9248 211.52 30.2845 211.158 30.7287 211.158H32.2926C32.4372 211.158 32.5553 211.277 32.5553 211.424C32.5553 211.571 32.4372 211.69 32.2908 211.69H30.7287C30.5771 211.69 30.4537 211.815 30.4537 211.967V216.099C30.4537 216.252 30.5771 216.376 30.7287 216.376H32.9344L34.775 214.029L33.1265 211.8C33.0366 211.678 33.0225 211.516 33.0895 211.38C33.1565 211.243 33.294 211.158 33.4456 211.158H34.4665C34.5916 211.158 34.7098 211.218 34.7856 211.318L36.6333 213.791C36.7391 213.933 36.7391 214.132 36.6333 214.274L35.0624 216.375H35.8558L37.6312 214.009L35.7764 211.586C35.6865 211.469 35.7094 211.302 35.824 211.213C35.9404 211.123 36.1061 211.146 36.1943 211.261L38.109 213.765C38.2183 213.906 38.2201 214.107 38.1107 214.252L36.2366 216.749C36.1608 216.848 36.0427 216.909 35.9175 216.909H35.921Z" fill="black"/>
<path d="M41.1602 209.72V218.346" stroke="black" stroke-width="0.184854"/>
<path d="M52.9567 210.884H44.6365C44.3014 210.884 44.0298 211.155 44.0298 211.49V216.575C44.0298 216.91 44.3014 217.182 44.6365 217.182H52.9567C53.2917 217.182 53.5634 216.91 53.5634 216.575V211.49C53.5634 211.155 53.2917 210.884 52.9567 210.884Z" fill="#F2F4F8" stroke="#CED4DA" stroke-width="0.173338"/>
<path d="M65.5387 210.884H57.2185C56.8834 210.884 56.6118 211.155 56.6118 211.49V216.575C56.6118 216.91 56.8834 217.182 57.2185 217.182H65.5387C65.8738 217.182 66.1454 216.91 66.1454 216.575V211.49C66.1454 211.155 65.8738 210.884 65.5387 210.884Z" fill="#F2F4F8" stroke="#CED4DA" stroke-width="0.173338"/>
<path d="M78.1212 210.884H69.801C69.466 210.884 69.1943 211.155 69.1943 211.49V216.575C69.1943 216.91 69.466 217.182 69.801 217.182H78.1212C78.4563 217.182 78.7279 216.91 78.7279 216.575V211.49C78.7279 211.155 78.4563 210.884 78.1212 210.884Z" fill="#F2F4F8" stroke="#CED4DA" stroke-width="0.173338"/>
<path d="M90.7037 210.884H82.3835C82.0485 210.884 81.7769 211.155 81.7769 211.49V216.575C81.7769 216.91 82.0485 217.182 82.3835 217.182H90.7037C91.0388 217.182 91.3104 216.91 91.3104 216.575V211.49C91.3104 211.155 91.0388 210.884 90.7037 210.884Z" fill="#F2F4F8" stroke="#CED4DA" stroke-width="0.173338"/>
<g opacity="0.8">
<path d="M106.477 65.7129H66.2915C65.8948 65.7129 65.5732 66.0346 65.5732 66.4313C65.5732 66.8281 65.8948 67.1497 66.2915 67.1497H106.477C106.874 67.1497 107.195 66.8281 107.195 66.4313C107.195 66.0346 106.874 65.7129 106.477 65.7129Z" fill="#CED4DA"/>
<path d="M106.477 70.959H66.2912C65.8944 70.959 65.5728 71.2806 65.5728 71.6773C65.5728 72.0741 65.8944 72.3957 66.2912 72.3957H106.477C106.873 72.3957 107.195 72.0741 107.195 71.6773C107.195 71.2806 106.873 70.959 106.477 70.959Z" fill="#CED4DA"/>
<path d="M106.477 76.209H66.2912C65.8944 76.209 65.5728 76.5307 65.5728 76.9274C65.5728 77.3242 65.8944 77.6458 66.2912 77.6458H106.477C106.873 77.6458 107.195 77.3242 107.195 76.9274C107.195 76.5307 106.873 76.209 106.477 76.209Z" fill="#CED4DA"/>
<path d="M106.477 81.457H66.2912C65.8944 81.457 65.5728 81.7787 65.5728 82.1754C65.5728 82.5722 65.8944 82.8938 66.2912 82.8938H106.477C106.873 82.8938 107.195 82.5722 107.195 82.1754C107.195 81.7787 106.873 81.457 106.477 81.457Z" fill="#CED4DA"/>
</g>
<path d="M106.231 57.7969H66.5214C65.9931 57.7969 65.5649 58.2252 65.5649 58.7534C65.5649 59.2816 65.9931 59.7099 66.5214 59.7099H106.231C106.759 59.7099 107.187 59.2816 107.187 58.7534C107.187 58.2252 106.759 57.7969 106.231 57.7969Z" fill="#CED4DA"/>
<path d="M56.3693 58.124H13.5225V100.971H56.3693V58.124Z" fill="#ABD9D3"/>
<path d="M43.7916 71.1183C43.7672 70.7477 43.7835 69.7233 43.7407 68.8436C43.7509 68.5218 43.7244 68.2123 43.6552 67.9272C43.6145 67.6787 43.5595 67.4955 43.4841 67.4283C42.6064 65.6708 40.2767 65.7584 39.6617 66.7257C39.2422 67.3834 37.7882 68.0005 36.9003 68.3263C36.5378 68.0453 36.0593 67.6115 35.7619 67.3346C35.4626 67.0556 35.1062 66.8356 34.7091 66.7399C33.4343 66.4304 32.3122 67.2613 31.799 67.2979C31.184 67.3427 29.9988 70.3282 29.9988 70.3282L26.7038 74.8532C26.7038 74.8532 23.8487 77.7531 19.5437 80.651C15.8537 83.9011 18.2689 86.8866 18.2689 86.8886C18.2689 86.8886 18.4501 86.6259 22.5739 87.7236C26.7038 88.8212 33.5565 84.8685 34.874 83.9459C36.1916 83.0234 43.9668 75.9956 43.9668 75.9956C43.9668 75.9956 43.8344 71.7781 43.7916 71.1203V71.1183Z" fill="#BDB9B2"/>
<path d="M36.9766 69.2297C36.9766 69.2297 39.571 68.6758 40.2268 67.6922C41.2816 66.1099 42.8619 67.5598 42.5544 69.4049C42.5544 69.4049 42.5239 70.5575 42.422 70.9424C42.1593 71.9525 40.689 72.6265 39.4346 70.8548C38.6852 69.7959 38.1109 69.9242 37.3269 69.7572L37.0194 69.802L37.3717 68.9243" fill="#3A3735"/>
<path d="M31.1367 75.5532C31.1367 75.5532 32.2017 78.1639 33.4643 78.8033C36.7593 80.4732 34.3868 82.9333 34.3868 82.9333C34.3868 82.9333 39.1745 79.2005 39.9646 78.8481C40.7548 78.4958 42.1172 77.3554 42.1172 77.3554C42.1172 77.3554 37.2847 76.1254 35.2645 72.1726C33.2444 68.2199 32.2343 72.4353 32.2343 72.4353L31.1367 75.5532Z" fill="#DDD9D4"/>
<path d="M29.2843 78.9776C29.8932 78.1141 31.2087 78.1019 31.7789 78.9919C33.0171 80.9285 30.0337 84.0158 25.8732 84.4292C23.5497 84.7611 20.7679 84.2968 19.2813 83.2542C18.5767 82.7593 18.4545 81.7594 18.9901 81.0874C19.2365 80.7778 19.5195 80.4703 19.7883 80.2911C20.3524 79.9144 26.028 79.6924 28.097 79.6231C28.5715 79.6069 29.0094 79.3706 29.2843 78.9817V78.9776Z" fill="#5DBDAB" stroke="#5DBDAB" stroke-width="1.03445" stroke-miterlimit="10"/>
<path d="M38.8265 70.3062C38.8265 70.3062 36.8491 68.6587 35.6639 70.1087C34.4787 71.5586 36.059 73.3365 36.059 73.3365C36.059 73.3365 40.9342 76.1692 40.8039 74.1266C40.6715 72.084 38.8265 70.3042 38.8265 70.3042V70.3062Z" fill="#BDB9B2"/>
<path d="M43.5004 77.0265C38.9429 75.6783 37.1426 73.475 36.4767 72.2959C35.8495 71.3286 36.4727 69.2268 37.9654 70.4365C40.1057 72.4322 41.2502 72.9169 41.9894 72.4527C42.804 71.9415 43.867 72.4831 43.9057 73.4443L44.0279 76.4318L43.5004 77.0245V77.0265Z" fill="#DDD9D4"/>
<path d="M43.9671 75.5986C43.9671 75.5986 44.407 78.191 43.8796 79.5086C43.57 80.2825 40.1895 81.6163 38.3445 83.0235C37.701 83.5143 32.897 87.6789 28.0666 88.7338C25.3032 89.3365 21.2547 89.4954 18.7621 87.7257C17.6237 86.9172 17.1268 85.4693 17.4282 84.1069C17.4934 83.8096 17.5423 83.4043 17.7418 83.6324C18.4424 84.4328 20.3892 85.9825 23.672 85.9214C28.2804 85.8379 31.9297 84.6914 35.3571 81.9686C38.7824 79.2459 37.9922 79.7713 38.7824 79.2459C40.385 78.1768 43.6148 76.6535 43.9651 75.6006L43.9671 75.5986Z" fill="#94918C"/>
<path d="M17.9273 84.9164C18.0393 85.0569 18.1655 85.1831 18.3101 85.2911C19.1166 85.9 20.7355 86.6799 23.7108 86.6372C28.3477 86.572 32.0174 85.68 35.4631 83.5621C38.9087 81.4442 38.1144 81.8535 38.9086 81.4442C40.5215 80.6133 43.7697 79.4281 44.122 78.6074C44.122 78.6074 44.5639 80.6235 44.0345 81.6479C43.7229 82.2507 40.322 83.2872 38.4668 84.3808C37.8193 84.7636 32.9888 88.0036 28.1278 88.8223C25.3481 89.2907 21.432 89.7407 18.9944 88.0281C17.9252 87.2766 17.0841 85.8043 17.3957 84.2566L17.9252 84.9164H17.9273Z" fill="#E7E3DE"/>
<path d="M37.526 69.4637C37.526 69.4637 37.3875 71.8281 35.6912 72.5999C35.6912 72.5999 34.4978 73.2821 34.3145 74.1455C34.1312 75.009 33.168 75.4183 33.168 75.4183C33.168 75.4183 32.4797 75.7829 32.388 76.5547C32.2964 77.3265 29.9117 78.9638 29.9117 78.9638L27.1605 80.8272L24.0407 80.1449L22.7109 78.2816C22.7109 78.2816 25.5089 75.51 26.1056 74.9642C26.7023 74.4184 29.3171 70.9646 29.9586 69.3741C30.6 67.7837 30.6469 67.5108 31.4268 67.1462C32.2068 66.7817 34.0152 65.6332 35.5649 67.1849C35.5649 67.1849 36.243 67.7368 36.6564 68.0545C37.0698 68.3722 37.7113 68.6451 37.528 69.4637H37.526Z" fill="#BDB9B2"/>
<path d="M23.7893 78.0177C23.4614 77.922 23.1111 77.9628 22.8118 78.1277C21.4514 78.8812 17.6535 81.1763 19.362 82.4491C21.4066 83.9723 29.3263 84.8358 31.1734 80.0847C31.2589 79.8648 31.2365 79.6123 31.1103 79.4127C31.0777 79.3598 31.039 79.3068 30.9983 79.2518C30.6256 78.7712 29.9414 78.6592 29.4058 78.9443L28.0169 79.6815C28.0169 79.6815 27.6218 80.1642 26.4346 79.2416C25.6282 78.6144 24.4572 78.2112 23.7893 78.0157V78.0177Z" fill="#DDD9D4"/>
<path d="M31.2495 68.7228C31.2495 68.7228 28.7447 74.1927 26.1095 76.0357L25.187 76.8932C25.187 76.8932 27.032 77.0906 28.152 78.4754C28.152 78.4754 30.4369 77.3778 31.1395 75.5551C31.8421 73.7325 33.0945 72.9424 33.0945 72.9424C33.0945 72.9424 34.6096 72.2825 34.8744 70.3723C35.1371 68.4621 34.3469 68.2646 34.3469 68.2646L31.2495 68.7249V68.7228Z" fill="#F1EFEB" stroke="#575453" stroke-width="0.204033" stroke-miterlimit="10"/>
<path d="M32.1705 66.6811C32.1705 66.6811 31.3131 68.2634 31.2479 68.7236C31.1828 69.1839 34.8728 70.3711 34.8728 70.3711L36.6486 68.0537C36.6486 68.0537 35.5326 64.7688 32.1705 66.6811Z" fill="#276658"/>
<path d="M56.3695 88.9216L53.4635 87.266L53.4615 87.264L51.871 87.6428L47.7167 85.2764L24.9106 90.724C24.9616 90.8039 25.0089 90.9454 25.0715 91.1324C25.4666 92.3124 26.4673 95.3011 32.7957 96.0289C34.1438 97.0818 36.4328 98.0104 40.4222 98.159C46.8855 98.4011 53.094 99.3804 56.3695 100.06V88.9216Z" fill="#5FBDAC"/>
<path d="M51.1075 75.4708C51.0831 75.1002 51.0994 74.0758 51.0566 73.1961C51.0668 72.8743 51.0403 72.5648 50.9711 72.2797C50.9304 72.0312 50.8754 71.8479 50.8 71.7807C49.9223 70.0233 47.5926 70.1109 46.9776 71.0782C46.5581 71.7359 45.1041 72.353 44.2162 72.6788C43.8537 72.3978 43.3751 71.964 43.0778 71.6871C42.7785 71.4081 42.4221 71.1881 42.025 71.0924C40.7502 70.7829 39.6281 71.6138 39.1149 71.6504C38.4999 71.6952 37.3147 74.6807 37.3147 74.6807L34.0197 79.2057C34.0197 79.2057 31.1646 82.1056 26.8596 85.0035C23.1696 88.2536 25.5848 91.2391 25.5848 91.2411C25.5848 91.2411 25.766 90.9784 29.8898 92.0761C34.0197 93.1737 40.8724 89.221 42.1899 88.2984C43.5075 87.3759 51.2827 80.3481 51.2827 80.3481C51.2827 80.3481 51.1503 76.1306 51.1075 75.4728V75.4708Z" fill="#BDB9B2"/>
<path d="M44.293 73.5803C44.293 73.5803 46.8875 73.0264 47.5432 72.0428C48.5981 70.4605 50.1783 71.9104 49.8708 73.7555C49.8708 73.7555 49.8403 74.9081 49.7385 75.293C49.4758 76.3031 48.0055 76.9771 46.751 75.2054C46.0016 74.1465 45.4273 74.2748 44.6433 74.1078L44.3358 74.1526L44.6881 73.2748" fill="#3A3735"/>
<path d="M38.4531 79.9057C38.4531 79.9057 39.5181 82.5164 40.7807 83.1558C44.0757 84.8257 41.7032 87.2858 41.7032 87.2858C41.7032 87.2858 46.4909 83.5529 47.2811 83.2006C48.0712 82.8483 49.4336 81.7079 49.4336 81.7079C49.4336 81.7079 44.6011 80.4779 42.581 76.5251C40.5608 72.5724 39.5507 76.7878 39.5507 76.7878L38.4531 79.9057Z" fill="#DDD9D4"/>
<path d="M36.6007 83.3301C37.2096 82.4666 38.5251 82.4544 39.0953 83.3443C40.3335 85.281 37.3501 88.3683 33.1896 88.7817C30.8661 89.1136 28.0843 88.6493 26.5977 87.6067C25.8931 87.1118 25.7709 86.1119 26.3065 85.4399C26.5529 85.1303 26.8359 84.8228 27.1047 84.6436C27.6688 84.2669 33.3444 84.0449 35.4134 83.9756C35.8879 83.9594 36.3258 83.7231 36.6007 83.3342V83.3301Z" fill="#5DBDAB" stroke="#5DBDAB" stroke-width="1.03445" stroke-miterlimit="10"/>
<path d="M46.1434 74.6587C46.1434 74.6587 44.166 73.0112 42.9808 74.4611C41.7956 75.9111 43.3759 77.6889 43.3759 77.6889C43.3759 77.6889 48.2511 80.5216 48.1208 78.4791C47.9884 76.4365 46.1434 74.6566 46.1434 74.6566V74.6587Z" fill="#BDB9B2"/>
<path d="M50.8179 81.3771C46.2603 80.0289 44.4601 77.8255 43.7942 76.6464C43.1669 75.6791 43.7901 73.5774 45.2828 74.7871C47.4231 76.7828 48.5676 77.2675 49.3068 76.8032C50.1214 76.292 51.1844 76.8337 51.2231 77.7949L51.3453 80.7824L50.8179 81.375V81.3771Z" fill="#DDD9D4"/>
<path d="M51.284 79.9512C51.284 79.9512 51.7238 82.5436 51.1964 83.8611C50.8869 84.635 47.5064 85.9689 45.6614 87.3761C45.0178 87.8669 40.2139 92.0314 35.3834 93.0863C32.62 93.6891 28.5715 93.8479 26.0789 92.0783C24.9406 91.2698 24.4437 89.8219 24.7451 88.4595C24.8102 88.1621 24.8591 87.7569 25.0587 87.985C25.7592 88.7853 27.706 90.335 30.9888 90.2739C35.5973 90.1905 39.2466 89.0439 42.6739 86.3212C46.0992 83.5984 45.3091 84.1238 46.0992 83.5984C47.7019 82.5293 50.9317 81.006 51.2819 79.9532L51.284 79.9512Z" fill="#94918C"/>
<path d="M25.2432 89.2679C25.3552 89.4085 25.4815 89.5347 25.6261 89.6426C26.4325 90.2515 28.0515 91.0315 31.0267 90.9887C35.6637 90.9236 39.3333 90.0316 42.779 87.9137C46.2247 85.7958 45.4305 86.2051 46.2247 85.7958C47.8375 84.9649 51.0857 83.7797 51.438 82.959C51.438 82.959 51.8799 84.9751 51.3504 85.9994C51.0388 86.6022 47.638 87.6388 45.7828 88.7323C45.1352 89.1152 40.3047 92.3552 35.4437 93.1739C32.664 93.6422 28.7479 94.0923 26.3103 92.3796C25.2412 91.6282 24.4001 90.1558 24.7117 88.6081L25.2412 89.2679H25.2432Z" fill="#E7E3DE"/>
<path d="M44.8366 73.8173C44.8366 73.8173 44.6981 76.1816 43.0018 76.9534C43.0018 76.9534 41.8084 77.6356 41.6252 78.4991C41.4419 79.3625 40.4786 79.7719 40.4786 79.7719C40.4786 79.7719 39.7903 80.1364 39.6987 80.9082C39.607 81.68 37.2224 83.3173 37.2224 83.3173L34.4711 85.1807L31.3513 84.4985L30.0215 82.6351C30.0215 82.6351 32.8196 79.8635 33.4163 79.3177C34.0129 78.772 36.6277 75.3181 37.2692 73.7277C37.9107 72.1372 37.9575 71.8643 38.7375 71.4998C39.5174 71.1353 41.3258 69.9867 42.8755 71.5385C42.8755 71.5385 43.5537 72.0904 43.9671 72.408C44.3805 72.7257 45.0219 72.9986 44.8387 73.8173H44.8366Z" fill="#BDB9B2"/>
<path d="M31.1095 82.3732C30.7816 82.2775 30.4314 82.3182 30.132 82.4832C28.7717 83.2366 24.9737 85.5317 26.6823 86.8045C28.7269 88.3278 36.6466 89.1912 38.4936 84.4402C38.5792 84.2202 38.5568 83.9677 38.4305 83.7682C38.3979 83.7152 38.3592 83.6623 38.3185 83.6073C37.9458 83.1267 37.2616 83.0147 36.726 83.2998L35.3371 84.037C35.3371 84.037 34.9421 84.5196 33.7548 83.5971C32.9484 82.9699 31.7774 82.5666 31.1095 82.3711V82.3732Z" fill="#DDD9D4"/>
<path d="M38.5654 73.0754C38.5654 73.0754 36.0606 78.5453 33.4254 80.3883L32.5029 81.2457C32.5029 81.2457 34.3479 81.4432 35.468 82.828C35.468 82.828 37.7529 81.7303 38.4554 79.9077C39.158 78.0851 40.4104 77.2949 40.4104 77.2949C40.4104 77.2949 41.9255 76.6351 42.1903 74.7249C42.453 72.8147 41.6628 72.6172 41.6628 72.6172L38.5654 73.0774V73.0754Z" fill="#F1EFEB" stroke="#575453" stroke-width="0.204033" stroke-miterlimit="10"/>
<path d="M39.4878 71.0336C39.4878 71.0336 38.6304 72.616 38.5653 73.0762C38.5001 73.5364 42.1901 74.7237 42.1901 74.7237L43.9659 72.4062C43.9659 72.4062 42.8499 69.1214 39.4878 71.0336Z" fill="#276658"/>
<path d="M98.0669 28.1094H108.956" stroke="#848FA4" stroke-width="0.612099" stroke-miterlimit="10"/>
<path d="M98.0669 32.0859H108.956" stroke="#848FA4" stroke-width="0.612099" stroke-miterlimit="10"/>
<path d="M98.0669 36.0605H108.956" stroke="#848FA4" stroke-width="0.612099" stroke-miterlimit="10"/>
<path d="M13.0015 25.4688H14.6399C15.3499 25.4688 16.0028 25.8666 16.3272 26.4991L19.7284 33.1098C20.1324 33.8953 20.9424 34.389 21.8238 34.389H29.5342C30.3483 34.389 31.0094 33.728 31.0094 32.9139V28.7577C31.0094 27.9436 30.3483 27.2826 29.5342 27.2826H18.9307" stroke="#848FA4" stroke-width="0.612099" stroke-miterlimit="10"/>
<path d="M20.725 38.4491C21.2918 38.4491 21.7513 37.9896 21.7513 37.4228C21.7513 36.856 21.2918 36.3965 20.725 36.3965C20.1582 36.3965 19.6987 36.856 19.6987 37.4228C19.6987 37.9896 20.1582 38.4491 20.725 38.4491Z" stroke="#848FA4" stroke-width="0.612099" stroke-miterlimit="10"/>
<path d="M28.7416 38.4491C29.3084 38.4491 29.7679 37.9896 29.7679 37.4228C29.7679 36.856 29.3084 36.3965 28.7416 36.3965C28.1748 36.3965 27.7153 36.856 27.7153 37.4228C27.7153 37.9896 28.1748 38.4491 28.7416 38.4491Z" stroke="#848FA4" stroke-width="0.612099" stroke-miterlimit="10"/>
<path d="M30.4059 30.8637C32.0545 30.8637 33.3909 29.5272 33.3909 27.8787C33.3909 26.2301 32.0545 24.8936 30.4059 24.8936C28.7573 24.8936 27.4209 26.2301 27.4209 27.8787C27.4209 29.5272 28.7573 30.8637 30.4059 30.8637Z" fill="#E32351"/>
<path d="M114.324 43.6104H5.7793V45.2426H114.324V43.6104Z" fill="#F2F4F8"/>
</g>
</g>
<defs>
<clipPath id="clip0_4782_17592">
<rect width="122" height="239" fill="white"/>
</clipPath>
</defs>
</svg>
