<svg width="66" height="65" viewBox="0 0 66 65" fill="none" xmlns="http://www.w3.org/2000/svg">
<path d="M65.5 32.5C65.5 50.4492 50.9492 65 33 65C15.0508 65 0.5 50.4492 0.5 32.5C0.5 14.5508 15.0508 0 33 0C50.9492 0 65.5 14.5508 65.5 32.5Z" fill="#031029"/>
<path fill-rule="evenodd" clip-rule="evenodd" d="M43.054 21.173C43.5245 20.72 44.2705 20.7233 44.7367 21.1805L53.1872 31.4436C53.7767 32.0215 53.7707 32.9718 53.1743 33.5422L44.8847 43.8871C44.6804 44.0825 44.4086 44.1916 44.1258 44.1916H37.1655C36.1844 44.1916 35.6963 43.0038 36.3946 42.3154L44.8886 32.4996L37.1655 22.9998H34.0672L41.4535 31.4441C42.0563 32.0193 42.0568 32.9805 41.4547 33.5564L31.7499 43.8871C31.5455 44.0825 31.2736 44.1916 30.9908 44.1916H20.0099C17.589 44.1916 15.6263 42.2295 15.6259 39.8087C15.6251 34.9364 15.6257 30.0641 15.6262 25.192C15.6265 22.7705 17.5895 20.8076 20.0108 20.8076H24.3724C24.9785 20.8076 25.4697 21.2984 25.4697 21.9037C25.4697 22.5092 24.9785 22.9998 24.3724 22.9998H20.7441C19.1299 22.9998 17.8211 24.3085 17.8211 25.9229C17.8211 30.3074 17.8211 34.6919 17.8211 39.0764C17.8211 40.6907 19.1299 41.9994 20.7441 41.9994H30.1788L39.0362 32.4996L30.5422 22.6838C29.8439 21.9954 30.332 20.8076 31.3131 20.8076H38.0971C38.3799 20.8076 38.6517 20.9167 38.856 21.1121L47.3071 31.4428C47.9092 32.0187 47.9087 32.9799 47.306 33.5552L39.9196 41.9994H43.2122L50.7409 32.4996L43.054 22.9998C42.5723 22.5238 42.5662 21.6427 43.054 21.173Z" fill="white"/>
</svg>
