<svg id="Ebene_1" data-name="Ebene 1" xmlns="http://www.w3.org/2000/svg" xmlns:xlink="http://www.w3.org/1999/xlink" viewBox="0 0 57.13 57.13"><defs><style>.cls-1,.cls-6,.cls-7{fill:none;}.cls-2{clip-path:url(#clip-path);}.cls-3{fill:#db2f34;}.cls-4{fill:#1d1d1b;}.cls-5{fill:#fff;}.cls-6,.cls-7{stroke:#fff;}.cls-6{stroke-width:2.53px;}.cls-7{stroke-width:0.46px;}</style><clipPath id="clip-path" transform="translate(-6.41 -6.43)"><path class="cls-1" d="M.5,35A34.5,34.5,0,1,0,35,.5,34.5,34.5,0,0,0,.5,35"/></clipPath></defs><g class="cls-2"><path class="cls-3" d="M35,11.2A23.8,23.8,0,1,1,11.17,35,23.82,23.82,0,0,1,35,11.2m0-4.77A28.57,28.57,0,1,0,63.55,35,28.57,28.57,0,0,0,35,6.43" transform="translate(-6.41 -6.43)"/><path class="cls-4" d="M52.24,41.25H40.84V40.6h10.1a1.31,1.31,0,0,0,0-2.61h-.79a1,1,0,0,1-.1.17,1.69,1.69,0,0,1-1.48.78,1.66,1.66,0,0,1-1.47-.78A1,1,0,0,1,47,38H38.22v-.65h3.92a1.31,1.31,0,0,0,0-2.61H35.61l-1,12.37H51.12a1.32,1.32,0,0,0,1.12-1.29,1.31,1.31,0,0,0-1.3-1.31H40.84v-.65h11.4a1.3,1.3,0,0,0,0-2.6" transform="translate(-6.41 -6.43)"/><path class="cls-5" d="M50.24,37.6A1.61,1.61,0,1,1,48.63,36a1.61,1.61,0,0,1,1.61,1.61" transform="translate(-6.41 -6.43)"/><path class="cls-4" d="M38.59,25.5l0,.12-.34,1.95,0,.19-.08.46,10.21,3.09-.19.62.63.19,1.32-4.36-.62-.19-.19.61L39.14,25.11ZM43.1,27l6,1.81-.57,1.88L47,30.21Z" transform="translate(-6.41 -6.43)"/><path class="cls-4" d="M40.25,26a1.62,1.62,0,0,1-.8,2.15,1.63,1.63,0,1,1,.8-2.15" transform="translate(-6.41 -6.43)"/><path class="cls-4" d="M48.61,36.75a.93.93,0,0,0,.84-.43,1.29,1.29,0,0,0,0-1.29l-.81-1.63L47.79,35a1.32,1.32,0,0,0,0,1.29.94.94,0,0,0,.85.43" transform="translate(-6.41 -6.43)"/><path class="cls-6" d="M31.59,26H22.67a18.78,18.78,0,0,0-4.28,12.08A19.83,19.83,0,0,0,22,49.65H32.22a19.83,19.83,0,0,0,3.65-11.54A18.78,18.78,0,0,0,31.59,26Zm0,0H22.67a18.78,18.78,0,0,0-4.28,12.08A19.83,19.83,0,0,0,22,49.65H32.22a19.83,19.83,0,0,0,3.65-11.54A18.78,18.78,0,0,0,31.59,26Z" transform="translate(-6.41 -6.43)"/><path class="cls-5" d="M31.47,26.36H22.79a18.29,18.29,0,0,0-4.16,11.75,19.35,19.35,0,0,0,3.55,11.22h9.9a19.35,19.35,0,0,0,3.55-11.22,18.29,18.29,0,0,0-4.16-11.75m0,0H22.79a18.29,18.29,0,0,0-4.16,11.75,19.35,19.35,0,0,0,3.55,11.22h9.9a19.35,19.35,0,0,0,3.55-11.22,18.29,18.29,0,0,0-4.16-11.75" transform="translate(-6.41 -6.43)"/><path class="cls-4" d="M31.59,26H22.67a18.78,18.78,0,0,0-4.28,12.08A19.83,19.83,0,0,0,22,49.65H32.22a19.83,19.83,0,0,0,3.65-11.54A18.78,18.78,0,0,0,31.59,26M30,29.72a1.75,1.75,0,0,1,2.29.93l1.36,3.21a1.75,1.75,0,0,1-3.22,1.36L29,32A1.74,1.74,0,0,1,30,29.72M31.2,47.9H23.06a17.7,17.7,0,0,1-2.93-8.74h14A17.7,17.7,0,0,1,31.2,47.9" transform="translate(-6.41 -6.43)"/><path class="cls-4" d="M23.76,43.27a.57.57,0,0,0-.16-.11.66.66,0,0,0-.2-.06.69.69,0,0,0,.3-.18.5.5,0,0,0,.12-.35.56.56,0,0,0,0-.23.58.58,0,0,0-.11-.18.57.57,0,0,0-.16-.11L23.33,42l-.2,0h-.92v2.32h.9a1.46,1.46,0,0,0,.22,0,.79.79,0,0,0,.22-.06.55.55,0,0,0,.3-.3.62.62,0,0,0,0-.25.69.69,0,0,0,0-.22.62.62,0,0,0-.1-.16m-1.1-1h.45l.13,0a.27.27,0,0,1,.08.1.24.24,0,0,1,0,.15.29.29,0,0,1,0,.17.18.18,0,0,1-.09.1.21.21,0,0,1-.13,0h-.44Zm.73,1.48a.32.32,0,0,1-.1.1.28.28,0,0,1-.13,0h-.5v-.66H23l.16,0a.29.29,0,0,1,.13.05.21.21,0,0,1,.08.1.38.38,0,0,1,0,.16.42.42,0,0,1,0,.18" transform="translate(-6.41 -6.43)"/><rect class="cls-4" x="17.85" y="35.47" width="0.45" height="2.39"/><path class="cls-4" d="M26.43,42.76a.55.55,0,0,0-.22-.14.75.75,0,0,0-.31,0h-.14l-.18,0a.76.76,0,0,0-.18.09.85.85,0,0,0-.17.16,1.17,1.17,0,0,0-.12.25,1.79,1.79,0,0,0,0,.36,1.16,1.16,0,0,0,.06.4.75.75,0,0,0,.18.27.64.64,0,0,0,.25.15,1.13,1.13,0,0,0,.32.05,1,1,0,0,0,.39-.07.84.84,0,0,0,.23-.16.62.62,0,0,0,.1-.17.3.3,0,0,1,0-.11h-.42s0,0,0,.05l-.05.07L26,44l-.16,0a.24.24,0,0,1-.15,0,.24.24,0,0,1-.11-.09.61.61,0,0,1-.07-.14,1.1,1.1,0,0,1,0-.18h1.12v0a.19.19,0,0,0,0-.08,1.6,1.6,0,0,0-.05-.39.75.75,0,0,0-.18-.3m-.89.54a.5.5,0,0,1,.09-.33.35.35,0,0,1,.27-.11.3.3,0,0,1,.24.11.57.57,0,0,1,.08.33Z" transform="translate(-6.41 -6.43)"/><path class="cls-4" d="M28.23,42.7a.55.55,0,0,0-.22-.1,1,1,0,0,0-.3,0l-.24,0-.17.05a.41.41,0,0,0-.11.07l-.06,0a.41.41,0,0,0-.11.17A.57.57,0,0,0,27,43h.42a.2.2,0,0,1,.09-.16.34.34,0,0,1,.18,0,.28.28,0,0,1,.21.07.37.37,0,0,1,.07.23v.07h-.44l-.21.05a.66.66,0,0,0-.19.09.46.46,0,0,0-.14.17.46.46,0,0,0-.06.25A.52.52,0,0,0,27,44a.45.45,0,0,0,.11.17.78.78,0,0,0,.18.11.71.71,0,0,0,.26,0,.75.75,0,0,0,.23,0l.15-.08.08-.09s0-.06,0-.07v.24h.39V43.22a1,1,0,0,0-.05-.32.6.6,0,0,0-.14-.2m-.25.93a.72.72,0,0,1,0,.17.27.27,0,0,1-.06.1.33.33,0,0,1-.1.06.38.38,0,0,1-.16,0h-.09a.2.2,0,0,1-.08,0,.13.13,0,0,1-.06-.07.2.2,0,0,1,0-.11.23.23,0,0,1,.14-.23,1.2,1.2,0,0,1,.38-.05H28Z" transform="translate(-6.41 -6.43)"/><path class="cls-4" d="M29.87,43.82a.41.41,0,0,1-.05.09.22.22,0,0,1-.09.07.25.25,0,0,1-.16,0,.29.29,0,0,1-.19-.06.3.3,0,0,1-.11-.14.59.59,0,0,1-.05-.19,1.28,1.28,0,0,1,0-.19,1.21,1.21,0,0,1,0-.19,1.05,1.05,0,0,1,.05-.19.37.37,0,0,1,.12-.13.29.29,0,0,1,.19-.06.27.27,0,0,1,.22.09.37.37,0,0,1,.09.19h.42a.77.77,0,0,0-.07-.27.55.55,0,0,0-.16-.18.74.74,0,0,0-.22-.1,1.26,1.26,0,0,0-.28,0,1,1,0,0,0-.35.07.68.68,0,0,0-.26.18.88.88,0,0,0-.17.28,1.44,1.44,0,0,0-.05.37.92.92,0,0,0,.21.65.82.82,0,0,0,.61.22.85.85,0,0,0,.29,0,.53.53,0,0,0,.2-.09.55.55,0,0,0,.14-.12.56.56,0,0,0,.07-.13.84.84,0,0,0,0-.12.56.56,0,0,1,0-.07h-.44s0,0,0,.06" transform="translate(-6.41 -6.43)"/><path class="cls-4" d="M32.11,43a1,1,0,0,0,0-.12.36.36,0,0,0,0-.09L32,42.7a.28.28,0,0,0-.14-.09.57.57,0,0,0-.26,0,.73.73,0,0,0-.22,0,.52.52,0,0,0-.15.07.24.24,0,0,0-.09.08l-.06.07V41.9H30.6v2.39h.45v-.8a1.15,1.15,0,0,1,0-.18.58.58,0,0,1,0-.19.42.42,0,0,1,.11-.15.33.33,0,0,1,.21-.06l.14,0a.27.27,0,0,1,.07.08.21.21,0,0,1,0,.12.76.76,0,0,1,0,.16v1h.45V43.15a.86.86,0,0,0,0-.17" transform="translate(-6.41 -6.43)"/><path class="cls-4" d="M31.07,23.1a1,1,0,0,0-1-1H24.2a1,1,0,0,0-1,1v2.57h7.88Z" transform="translate(-6.41 -6.43)"/><path class="cls-4" d="M29.32,19.18a1,1,0,0,0-1-1H25.94a1,1,0,0,0-1,1v2.65h4.38Z" transform="translate(-6.41 -6.43)"/><line class="cls-5" x1="12.58" y1="19.24" x2="26.93" y2="19.24"/><line class="cls-7" x1="12.58" y1="19.24" x2="26.93" y2="19.24"/><line class="cls-5" x1="12.58" y1="15.4" x2="26.93" y2="15.4"/><line class="cls-7" x1="12.58" y1="15.4" x2="26.93" y2="15.4"/></g></svg>