<svg id="Ebene_1" data-name="Ebene 1" xmlns="http://www.w3.org/2000/svg" xmlns:xlink="http://www.w3.org/1999/xlink" viewBox="0 0 57.13 57.13"><defs><style>.cls-1{fill:none;}.cls-2{clip-path:url(#clip-path);}.cls-3{fill:#1d1d1b;}.cls-4{fill:#db2f34;}</style><clipPath id="clip-path" transform="translate(-6.43 -6.43)"><path class="cls-1" d="M.5,35A34.5,34.5,0,1,0,35,.5,34.5,34.5,0,0,0,.5,35"/></clipPath></defs><g class="cls-2"><path class="cls-3" d="M20,29.07a6.38,6.38,0,0,1,4.6-2h3.5v1h-3.5a5.71,5.71,0,0,0-5.49,5.49h-1A6.53,6.53,0,0,1,20,29.07" transform="translate(-6.43 -6.43)"/><path class="cls-3" d="M24.56,29h3.7a3.92,3.92,0,0,0,4.19-3.88h1A4.9,4.9,0,0,1,28.52,30h-4a3.63,3.63,0,0,0-3.49,3.49h-1A4.61,4.61,0,0,1,24.56,29" transform="translate(-6.43 -6.43)"/><path class="cls-3" d="M28,35.57s-6.78.9-7.3.9S17,36,17,36v3.35s3.13-.48,3.67-.48,7.3.9,7.3.9h0V35.57Zm-1,2.09v.92l-3.66-.45V37.2L27,36.75Z" transform="translate(-6.43 -6.43)"/><path class="cls-3" d="M29,39.76H53V35.57H29Zm2-1a1,1,0,1,1,1.05-1.05,1,1,0,0,1-1.05,1.05" transform="translate(-6.43 -6.43)"/><path class="cls-4" d="M35,11.2A23.81,23.81,0,1,1,11.2,35,23.83,23.83,0,0,1,35,11.2m0-4.77A28.57,28.57,0,1,0,63.57,35,28.57,28.57,0,0,0,35,6.43" transform="translate(-6.43 -6.43)"/></g></svg>