<svg id="Ebene_1" data-name="Ebene 1" xmlns="http://www.w3.org/2000/svg" xmlns:xlink="http://www.w3.org/1999/xlink" viewBox="0 0 57.13 57.13"><defs><style>.cls-1{fill:none;}.cls-2{clip-path:url(#clip-path);}.cls-3{fill:#db2f34;}.cls-4{fill:#1d1d1b;}</style><clipPath id="clip-path" transform="translate(-6.43 -6.43)"><path class="cls-1" d="M.5,35A34.5,34.5,0,1,0,35,.5,34.5,34.5,0,0,0,.5,35"/></clipPath></defs><g class="cls-2"><path class="cls-3" d="M35,11.2A23.8,23.8,0,1,1,11.19,35,23.83,23.83,0,0,1,35,11.2m0-4.77A28.57,28.57,0,1,0,63.57,35,28.57,28.57,0,0,0,35,6.43" transform="translate(-6.43 -6.43)"/><path class="cls-4" d="M33.28,38.5h0V29.39H30.91v2.35H15.6a1.18,1.18,0,0,0-1.18,1.18V37a1.18,1.18,0,0,0,1.18,1.18H30.91v2.36h2.37Z" transform="translate(-6.43 -6.43)"/><path class="cls-4" d="M34.46,36.92V38.5c18.39-.08,20.85-5.66,21.18-7H34.46v5.47Z" transform="translate(-6.43 -6.43)"/></g></svg>