<svg id="Ebene_1" data-name="Ebene 1" xmlns="http://www.w3.org/2000/svg" xmlns:xlink="http://www.w3.org/1999/xlink" viewBox="0 0 57.13 57.13"><defs><style>.cls-1{fill:none;}.cls-2{clip-path:url(#clip-path);}.cls-3{fill:#1d1d1b;}.cls-4{fill:#db2f34;}</style><clipPath id="clip-path" transform="translate(-6.43 -6.43)"><path class="cls-1" d="M.5,35A34.5,34.5,0,1,0,35,.5,34.5,34.5,0,0,0,.5,35"/></clipPath></defs><g class="cls-2"><path class="cls-3" d="M41.06,40.64H32.39V41.7H38L38.61,44a.7.7,0,0,0,.68.53h11.6a.71.71,0,0,0,.68-.53l.59-2.29h1V40.64Z" transform="translate(-6.43 -6.43)"/><path class="cls-3" d="M47.64,38.17H42.56l-.71,1.06H32.39v.35a.36.36,0,0,0,.35.36H48.82Zm-4,1.06a.36.36,0,0,1-.36-.35.36.36,0,0,1,.71,0,.35.35,0,0,1-.35.35m1.41,0a.36.36,0,0,1-.36-.35.36.36,0,0,1,.71,0,.35.35,0,0,1-.35.35m1.41,0a.36.36,0,0,1-.36-.35.36.36,0,0,1,.71,0,.35.35,0,0,1-.35.35" transform="translate(-6.43 -6.43)"/><path class="cls-3" d="M45.09,29.71c0,2.7-2.17,3.24-2.17,5.41a2.14,2.14,0,0,0,1,1.8,1.21,1.21,0,0,1,0-.34c0-1.23,1.24-1.54,1.24-3.08,0,1.55,1.23,1.85,1.23,3.08a1.21,1.21,0,0,1,0,.34,2.14,2.14,0,0,0,1-1.8c0-2.17-2.09-2.69-2.16-5.41" transform="translate(-6.43 -6.43)"/><path class="cls-3" d="M37.45,26.67a1.7,1.7,0,0,0-.25-.31,2.87,2.87,0,0,0-2.08-.88h0a3.19,3.19,0,0,0-1.78.62h0l-.14.1-.13.1L29.6,28.93l-.81-1.06-1.07.82,2.45,3.19,1.07-.82L30.42,30l3.46-2.63.11-.08.09-.07a2,2,0,0,1,1-.4,1.53,1.53,0,0,1,1.11.47,1.94,1.94,0,0,1,.14.18l.07.09,1.07-.81Z" transform="translate(-6.43 -6.43)"/><path class="cls-3" d="M26.84,28.2H25.62a2.72,2.72,0,0,0-2.7-2.38h-3.4a2.71,2.71,0,0,0-2.69,2.38h0v.08l0,.26h0v16H30.41V33.16Zm-7.32-1h3.4a1.37,1.37,0,0,1,1.33,1H18.19a1.37,1.37,0,0,1,1.33-1M20,36.94a1.79,1.79,0,0,0-.38,1.1,1.85,1.85,0,0,0,.13.66,2.43,2.43,0,0,1-1.32-1.88v0a2,2,0,0,1,0-.25h0v-.15a1.67,1.67,0,0,1,.44-1.1c.18-.18.48-.41.48-.73a.81.81,0,0,0-.3-.63h0a1.8,1.8,0,0,1,1.52,1.82v0a1.37,1.37,0,0,1-.26.8Zm2.79,4.8h0a3.06,3.06,0,0,1-2.47-3V38.6a2.58,2.58,0,0,1,1.11-2.12h0l1.15-.79h0a1.83,1.83,0,0,0,.8-1.51V34h0A2.93,2.93,0,0,0,23,32.48h0a4.11,4.11,0,0,1,.78,6.87h0a2.6,2.6,0,0,0-.94,2,2.69,2.69,0,0,0,0,.4m3.67-2a6.83,6.83,0,0,1-1.88.85,5.69,5.69,0,0,0-1,.58,3.21,3.21,0,0,1,1.28-1.74,3.89,3.89,0,0,0,1.19-3,3.48,3.48,0,0,0-.4-1.76h0a3.36,3.36,0,0,1,1.65,2.92,2.46,2.46,0,0,1-.87,2.11" transform="translate(-6.43 -6.43)"/><path class="cls-4" d="M35,11.2A23.81,23.81,0,1,1,11.2,35,23.83,23.83,0,0,1,35,11.2m0-4.77A28.57,28.57,0,1,0,63.57,35,28.57,28.57,0,0,0,35,6.43" transform="translate(-6.43 -6.43)"/></g></svg>