<svg id="Ebene_1" data-name="Ebene 1" xmlns="http://www.w3.org/2000/svg" xmlns:xlink="http://www.w3.org/1999/xlink" viewBox="0 0 57.17 57.17"><defs><style>.cls-1,.cls-6,.cls-7{fill:none;}.cls-2{clip-path:url(#clip-path);}.cls-3{fill:#db2f34;}.cls-4{fill:#1d1d1b;}.cls-5{fill:#fff;}.cls-6{stroke:#fff;stroke-width:1.15px;}.cls-7{stroke:#1d1d1b;stroke-linecap:round;stroke-linejoin:round;stroke-width:2.3px;}</style><clipPath id="clip-path" transform="translate(-6.42 -6.42)"><path class="cls-1" d="M.5,35A34.5,34.5,0,1,0,35,.48,34.51,34.51,0,0,0,.5,35"/></clipPath></defs><g class="cls-2"><path class="cls-3" d="M35,11.18A23.82,23.82,0,1,1,11.18,35,23.85,23.85,0,0,1,35,11.18m0-4.76A28.58,28.58,0,1,0,63.58,35,28.57,28.57,0,0,0,35,6.42" transform="translate(-6.42 -6.42)"/><path class="cls-4" d="M21.25,50c2.44-2.41,5.83-5.34,8.27-7.76.05,0,2.24-1.86,2.28-1.91s5.26-3.7,7.64-5.47a40.64,40.64,0,0,0,3.88-3.27c2.35-2.25,4.19-4.16,6.49-6.46a3.34,3.34,0,0,0-.15-4.8L49,19.6a3.34,3.34,0,0,0-4.8-.15c-2.3,2.3-4.21,4.14-6.46,6.49a39.11,39.11,0,0,0-3.27,3.87c-1.77,2.39-5.38,7.53-5.47,7.65s-1.86,2.23-1.91,2.28c-2.42,2.43-5.35,5.82-7.76,8.26" transform="translate(-6.42 -6.42)"/><line class="cls-5" x1="20.63" y1="32.37" x2="24.06" y2="35.8"/><line class="cls-6" x1="20.63" y1="32.37" x2="24.06" y2="35.8"/><line class="cls-3" x1="12.83" y1="41.52" x2="14.9" y2="43.59"/><line class="cls-7" x1="12.83" y1="41.52" x2="14.9" y2="43.59"/></g></svg>