<svg id="Ebene_1" data-name="Ebene 1" xmlns="http://www.w3.org/2000/svg" xmlns:xlink="http://www.w3.org/1999/xlink" viewBox="0 0 57.13 57.13"><defs><style>.cls-1,.cls-6{fill:none;}.cls-2{clip-path:url(#clip-path);}.cls-3{fill:#db2f34;}.cls-4{fill:#060606;}.cls-5{fill:#1d1d1b;}.cls-6{stroke:#fff;stroke-linejoin:round;stroke-width:0.12px;}</style><clipPath id="clip-path" transform="translate(-6.43 -6.43)"><path class="cls-1" d="M.5,35A34.5,34.5,0,1,0,35,.5,34.5,34.5,0,0,0,.5,35"/></clipPath></defs><g class="cls-2"><path class="cls-3" d="M35,11.2A23.8,23.8,0,1,1,11.2,35,23.83,23.83,0,0,1,35,11.2m0-4.77A28.57,28.57,0,1,0,63.57,35,28.57,28.57,0,0,0,35,6.43" transform="translate(-6.43 -6.43)"/><path class="cls-4" d="M17.68,38.42a10.79,10.79,0,0,1-1-5.91,10.94,10.94,0,0,1,2-5.43,7.66,7.66,0,0,1,1.57-1.44,4.1,4.1,0,0,1,.71-.37l-.83,0c-2.58.1-4.91,3.2-5.31,7.22-.43,4.25,1.46,7.93,4.22,8.21a3.31,3.31,0,0,0,.63,0,5.8,5.8,0,0,1-2-2.3" transform="translate(-6.43 -6.43)"/><path class="cls-5" d="M17.68,38.42a10.79,10.79,0,0,1-1-5.91,10.94,10.94,0,0,1,2-5.43,7.66,7.66,0,0,1,1.57-1.44,4.1,4.1,0,0,1,.71-.37l-.83,0c-2.58.1-4.91,3.2-5.31,7.22-.43,4.25,1.46,7.93,4.22,8.21a3.31,3.31,0,0,0,.63,0,5.8,5.8,0,0,1-2-2.3" transform="translate(-6.43 -6.43)"/><path class="cls-6" d="M17.68,38.42a10.79,10.79,0,0,1-1-5.91,10.94,10.94,0,0,1,2-5.43,7.66,7.66,0,0,1,1.57-1.44,4.1,4.1,0,0,1,.71-.37l-.83,0c-2.58.1-4.91,3.2-5.31,7.22-.43,4.25,1.46,7.93,4.22,8.21a3.31,3.31,0,0,0,.63,0A5.8,5.8,0,0,1,17.68,38.42Z" transform="translate(-6.43 -6.43)"/><path class="cls-5" d="M18.4,36.14V34.48a.15.15,0,0,1,0-.07.53.53,0,0,1,.22-.43L25.11,29a.55.55,0,0,1,.33-.11h.07l1.29.16C26.1,27,24.73,25.53,23,25.36a1.83,1.83,0,0,0-.33,0c-2.64,0-5,3.14-5.44,7.22-.43,4.26,1.46,7.94,4.22,8.21a1.83,1.83,0,0,0,.33,0,5,5,0,0,0,4-2.66l-6.19-.68a1.32,1.32,0,0,1-1.18-1.31" transform="translate(-6.43 -6.43)"/><path class="cls-6" d="M18.4,36.14V34.48a.15.15,0,0,1,0-.07.53.53,0,0,1,.22-.43L25.11,29a.55.55,0,0,1,.33-.11h.07l1.29.16C26.1,27,24.73,25.53,23,25.36a1.83,1.83,0,0,0-.33,0c-2.64,0-5,3.14-5.44,7.22-.43,4.26,1.46,7.94,4.22,8.21a1.83,1.83,0,0,0,.33,0,5,5,0,0,0,4-2.66l-6.19-.68A1.32,1.32,0,0,1,18.4,36.14Z" transform="translate(-6.43 -6.43)"/><path class="cls-5" d="M45.59,42.35a10.76,10.76,0,0,1-1-5.91,10.8,10.8,0,0,1,2-5.42,6.43,6.43,0,0,1,1.74-1.62,2.25,2.25,0,0,1,.63-.27s0,0,0,0a8.77,8.77,0,0,0-1.46.07,5.4,5.4,0,0,0-3.3,2.64l-.36,0-.28,0c-1.3,0-3.31.81-5.69.81a8.52,8.52,0,0,1-1.22-.08c-3.09-.38-2.12-1.85-3.54-2.06l-7.66-1-6.49,5,7.67,1,.27,0c1.31,0,3.32-.81,5.7-.81a10.1,10.1,0,0,1,1.21.08c3.09.39,2.13,1.85,3.55,2.06l5.33.67c0,.19,0,.37,0,.56l-5.41-.68h0a1.76,1.76,0,0,1-1.36-1c-.29-.44-.59-.9-2.18-1.1a8.51,8.51,0,0,0-1.14-.07,16.39,16.39,0,0,0-3.56.48A11.22,11.22,0,0,1,26.9,36h-.34L19,35v1.16a.77.77,0,0,0,.68.76l3.42.37,3.46.43c1.48.16,3.76-1.09,6.85-.7s2.22,1.86,3.64,2.06l5.91.71v0a6.17,6.17,0,0,0,2.93,4.48,8,8,0,0,0,1.67.38,5.82,5.82,0,0,1-1.92-2.25M26.87,33.77,23,33.28l.56-.42,3.86.48Zm2-1.7L25,31.58l.56-.42,3.87.48Zm13.4,1.14,1.09.08c-.07.15-.13.31-.19.48l-1.4-.13Zm-2,1.79,2.54.35c0,.16,0,.32-.07.49l-3-.41Z" transform="translate(-6.43 -6.43)"/><path class="cls-6" d="M45.59,42.35a10.76,10.76,0,0,1-1-5.91,10.8,10.8,0,0,1,2-5.42,6.43,6.43,0,0,1,1.74-1.62,2.25,2.25,0,0,1,.63-.27s0,0,0,0a8.77,8.77,0,0,0-1.46.07,5.4,5.4,0,0,0-3.3,2.64l-.36,0-.28,0c-1.3,0-3.31.81-5.69.81a8.52,8.52,0,0,1-1.22-.08c-3.09-.38-2.12-1.85-3.54-2.06l-7.66-1-6.49,5,7.67,1,.27,0c1.31,0,3.32-.81,5.7-.81a10.1,10.1,0,0,1,1.21.08c3.09.39,2.13,1.85,3.55,2.06l5.33.67c0,.19,0,.37,0,.56l-5.41-.68h0a1.76,1.76,0,0,1-1.36-1c-.29-.44-.59-.9-2.18-1.1a8.51,8.51,0,0,0-1.14-.07,16.39,16.39,0,0,0-3.56.48A11.22,11.22,0,0,1,26.9,36h-.34L19,35v1.16a.77.77,0,0,0,.68.76l3.42.37,3.46.43c1.48.16,3.76-1.09,6.85-.7s2.22,1.86,3.64,2.06l5.91.71v0a6.17,6.17,0,0,0,2.93,4.48,8,8,0,0,0,1.67.38A5.82,5.82,0,0,1,45.59,42.35ZM26.87,33.77,23,33.28l.56-.42,3.86.48Zm2-1.7L25,31.58l.56-.42,3.87.48Zm13.4,1.14,1.09.08c-.07.15-.13.31-.19.48l-1.4-.13Zm-2,1.79,2.54.35c0,.16,0,.32-.07.49l-3-.41Z" transform="translate(-6.43 -6.43)"/><path class="cls-5" d="M50.94,29.29h-.33c-2.63,0-5,3.13-5.44,7.22-.43,4.26,1.46,7.93,4.22,8.21l.33,0c2.64,0,5-3.14,5.44-7.23.43-4.25-1.46-7.93-4.22-8.21" transform="translate(-6.43 -6.43)"/><path class="cls-6" d="M50.94,29.29h-.33c-2.63,0-5,3.13-5.44,7.22-.43,4.26,1.46,7.93,4.22,8.21l.33,0c2.64,0,5-3.14,5.44-7.23C55.59,33.25,53.7,29.57,50.94,29.29Z" transform="translate(-6.43 -6.43)"/></g></svg>