<svg id="Ebene_1" data-name="Ebene 1" xmlns="http://www.w3.org/2000/svg" xmlns:xlink="http://www.w3.org/1999/xlink" viewBox="0 0 57.13 57.13"><defs><style>.cls-1{fill:none;}.cls-2{clip-path:url(#clip-path);}.cls-3{fill:#1d1d1b;}.cls-4{fill:#db2f34;}</style><clipPath id="clip-path" transform="translate(-6.43 -6.43)"><path class="cls-1" d="M.5,35A34.5,34.5,0,1,0,35,.5,34.5,34.5,0,0,0,.5,35"/></clipPath></defs><g class="cls-2"><polygon class="cls-3" points="24.24 21.55 19.92 21.55 19.38 19.39 24.78 19.39 24.24 21.55"/><path class="cls-3" d="M33,32.31H31.22l-.32-2.22h.61a.79.79,0,1,0,0-1.57h-6a.79.79,0,1,0,0,1.57h.61l-.32,2.22H24a4.12,4.12,0,0,0-4.12,4.12V49.6H37.16V36.43A4.11,4.11,0,0,0,33,32.31M21.71,39.19a.59.59,0,0,1,.76-.31l1.51.64a5.55,5.55,0,0,0-.07.82v.41L22,40a.59.59,0,0,1-.31-.76M25.48,44l-1.43.61-.22,0a.57.57,0,0,1-.54-.36.58.58,0,0,1,.31-.76L24.84,43l.64.48Zm5,.9H26.55V43l-1.11-.84a1.16,1.16,0,0,1-.46-.93v-.84A3.28,3.28,0,0,1,28.53,37a3.28,3.28,0,0,1,3.55,3.32v.84a1.16,1.16,0,0,1-.46.93L30.48,43Zm3.26-.59a.59.59,0,0,1-.54.35l-.22,0L31.55,44V43.5L32.2,43l1.23.52a.58.58,0,0,1,.31.76M35,39.94l-1.85.79v-.39a4.6,4.6,0,0,0-.08-.84l1.48-.63a.59.59,0,0,1,.76.31.58.58,0,0,1-.31.76" transform="translate(-6.43 -6.43)"/><path class="cls-3" d="M28.12,41a.78.78,0,0,1-.78.79h-.4a.79.79,0,0,1,0-1.57h.4a.78.78,0,0,1,.78.78" transform="translate(-6.43 -6.43)"/><path class="cls-3" d="M30.87,41a.78.78,0,0,1-.78.79h-.4a.79.79,0,0,1,0-1.57h.4a.78.78,0,0,1,.78.78" transform="translate(-6.43 -6.43)"/><path class="cls-3" d="M45.81,24.4v-.7H42.57v.71a5.41,5.41,0,0,0-3,2.49h9.36a5.33,5.33,0,0,0-3.08-2.5" transform="translate(-6.43 -6.43)"/><path class="cls-3" d="M43.11,20.42V21a.54.54,0,0,1,0,1.08v1.08h2.16v-2.7Z" transform="translate(-6.43 -6.43)"/><path class="cls-3" d="M43.09,21.59v0h0v0h0v0h0v0h0v0h0v0h0l0,0h0L40.12,19.7a.27.27,0,1,0-.26.48l1.92,1H39.59a.28.28,0,0,0-.27.28.27.27,0,0,0,.27.26h2.19l-1.92,1a.28.28,0,0,0-.11.37.28.28,0,0,0,.24.14l.13,0L43,21.73h0l0,0h0l0,0v0h0v0" transform="translate(-6.43 -6.43)"/><path class="cls-3" d="M38.78,21.5a.28.28,0,0,0-.27-.28H37.43a.28.28,0,0,0,0,.55h1.08a.28.28,0,0,0,.27-.27" transform="translate(-6.43 -6.43)"/><path class="cls-3" d="M36.62,21.5a.28.28,0,0,0-.27-.28h-.54a.28.28,0,0,0,0,.55h.54a.28.28,0,0,0,.27-.27" transform="translate(-6.43 -6.43)"/><path class="cls-3" d="M39.17,19.19l-1-.52a.27.27,0,0,0-.36.11.25.25,0,0,0,.1.36l.95.52.13,0a.27.27,0,0,0,.24-.14.27.27,0,0,0-.11-.36" transform="translate(-6.43 -6.43)"/><path class="cls-3" d="M36.54,18.37l.47.26.13,0a.27.27,0,0,0,.24-.14.28.28,0,0,0-.11-.37l-.47-.26a.27.27,0,1,0-.26.48" transform="translate(-6.43 -6.43)"/><path class="cls-3" d="M38.91,23.33l-.95.52a.27.27,0,0,0,.13.5l.13,0,1-.52a.27.27,0,0,0,.11-.36.27.27,0,0,0-.37-.11" transform="translate(-6.43 -6.43)"/><path class="cls-3" d="M37,24.36l-.47.26a.28.28,0,0,0-.11.37.27.27,0,0,0,.24.14l.13,0,.47-.26a.27.27,0,0,0-.26-.48" transform="translate(-6.43 -6.43)"/><path class="cls-3" d="M49.6,48.52H38.78a.54.54,0,0,0-.54.53v0a.54.54,0,0,0,.54.53H49.6a.53.53,0,0,0,.53-.53v0a.53.53,0,0,0-.53-.53" transform="translate(-6.43 -6.43)"/><path class="cls-3" d="M49.6,27.44H38.78a.54.54,0,0,0-.54.53v0a.54.54,0,0,0,.54.53h.54V48h9.73V28.52h.55a.53.53,0,0,0,.53-.53v0a.53.53,0,0,0-.53-.53" transform="translate(-6.43 -6.43)"/><path class="cls-4" d="M35,11.19A23.81,23.81,0,1,1,11.2,35,23.84,23.84,0,0,1,35,11.19m0-4.76A28.57,28.57,0,1,0,63.57,35,28.57,28.57,0,0,0,35,6.43" transform="translate(-6.43 -6.43)"/></g></svg>