<svg width="162" height="8" viewBox="0 0 162 8" fill="none" xmlns="http://www.w3.org/2000/svg">
<g clip-path="url(#clip0_514_8736)">
<path d="M147.057 0.164612V4.8439C147.057 6.70669 148.098 7.99969 150.454 7.99969C152.799 7.99969 153.84 6.70669 153.84 4.8439V0.164612H152.064V4.7344C152.064 5.90709 151.528 6.42213 150.454 6.42213C149.369 6.42213 148.832 5.90709 148.832 4.7344V0.164612H147.057Z" fill="#666666"/>
<path d="M130.286 3.70395H127.119V5.24907H128.511V5.95066C128.138 6.2244 127.612 6.42176 126.78 6.42176C125.245 6.42176 124.588 5.61068 124.588 4C124.588 2.38932 125.256 1.57824 126.714 1.57824C127.776 1.57824 128.237 1.83035 128.478 2.58668H130.341C130.133 1.01927 129.08 0 126.714 0C123.93 0 122.747 1.58905 122.747 4C122.747 6.41095 123.93 8 126.769 8C128.413 8 129.662 7.34235 130.286 6.75025V3.70395Z" fill="#666666"/>
<path d="M112.31 2.42201C112.157 0.789024 111.181 0.000244141 109.197 0.000244141C107.061 0.000244141 106.096 1.01951 106.096 2.40038C106.096 3.85763 106.908 4.51528 108.321 4.69034L109.406 4.82214C110.37 4.94245 110.622 5.19457 110.622 5.63255C110.622 6.15908 110.228 6.45445 109.165 6.45445C107.894 6.45445 107.664 5.96172 107.598 5.33718H105.79C105.911 6.95867 106.743 7.99957 109.165 7.99957C111.313 7.99957 112.453 7.15604 112.453 5.52306C112.453 4.00024 111.576 3.28784 109.965 3.09048L108.88 2.95935C108.168 2.87148 107.927 2.68494 107.927 2.27939C107.927 1.86303 108.211 1.51224 109.197 1.51224C110.151 1.51224 110.414 1.88466 110.502 2.42201L112.31 2.42201Z" fill="#666666"/>
<path d="M103.278 4.92045L99.6515 0.164795H97.9854V7.83563H99.761V3.07929L103.388 7.83563H105.053V0.164795H103.278V4.92045Z" fill="#666666"/>
<path d="M158.451 0.164734H154.901V7.83557H156.676V5.07382H158.451C160.15 5.07382 161.015 4.06605 161.015 2.61894C161.015 1.0522 160.138 0.164734 158.451 0.164734ZM158.166 3.52871H156.676V1.70985H158.166C158.879 1.70985 159.175 2.0059 159.175 2.61894C159.175 3.23266 158.879 3.52871 158.166 3.52871Z" fill="#666666"/>
<path d="M142.214 0C139.376 0 138.214 1.69855 138.214 4C138.214 6.30145 139.376 8 142.214 8C145.052 8 146.214 6.30145 146.214 4C146.214 1.69855 145.052 0 142.214 0ZM142.214 6.42176C140.724 6.42176 140.056 5.54512 140.056 4C140.056 2.45488 140.724 1.57824 142.214 1.57824C143.705 1.57824 144.373 2.45488 144.373 4C144.373 5.54512 143.705 6.42176 142.214 6.42176Z" fill="#666666"/>
<path d="M137.584 6.71762C137.409 5.55574 136.971 4.86564 136.335 4.48173C137.168 4.15324 137.574 3.47396 137.574 2.55338C137.574 1.09613 136.708 0.164734 134.911 0.164734H131.327V7.83557H133.103V5.07382H134.198C135.141 5.07382 135.623 5.68754 135.787 6.87105L135.919 7.83557H137.749L137.584 6.71762ZM134.692 3.52871H133.103V1.70985H134.692C135.392 1.70985 135.732 2.0059 135.732 2.61894C135.732 3.23266 135.392 3.52871 134.692 3.52871Z" fill="#666666"/>
<path d="M117.584 0.164978H115.414L112.631 7.83513H114.57L114.987 6.54213H118L118.428 7.83513H120.367L117.584 0.164978ZM115.48 5.04095L116.499 1.96221L117.507 5.04095H115.48Z" fill="#666666"/>
<path d="M94.6262 0.164978H92.4565L89.6725 7.83513H91.6123L92.0287 6.54213H95.0425L95.4697 7.83513H97.4096L94.6262 0.164978ZM92.5221 5.04095L93.5414 1.96221L94.5491 5.04095H92.5221Z" fill="#666666"/>
<path d="M83.9239 3.21091V0.164612H82.1489V7.83545H83.9239V4.75603H87.2223V7.83545H88.9979V0.164612H87.2223V3.21091H83.9239Z" fill="#666666"/>
<path d="M77.4482 1.70973V7.83545H79.2238V1.70973H81.3711V0.164612H75.3002V1.70973H77.4482Z" fill="#666666"/>
<path d="M70.9725 7.83532V4.93164H74.3257V3.38585H70.9725V1.70961H74.523V0.16449H69.1969V7.83532H70.9725Z" fill="#666666"/>
<path d="M61.3437 0.164612V4.8439C61.3437 6.70669 62.3846 7.99969 64.7408 7.99969C67.0862 7.99969 68.1271 6.70669 68.1271 4.8439V0.164612H66.3515V4.7344C66.3515 5.90709 65.8148 6.42213 64.7408 6.42213C63.656 6.42213 63.1193 5.90709 63.1193 4.7344V0.164612H61.3437Z" fill="#666666"/>
<path d="M55.6382 0.164612V7.83545H60.9177V6.29033H57.4138V0.164612H55.6382Z" fill="#666666"/>
<path d="M0.842102 0.18811H1.7586L4.93416 6.66992L8.10939 0.18811H9.02589V7.82635H8.22952V1.70493L5.21766 7.82635H4.65033L1.6388 1.70493V7.82635H0.842102V0.18811Z" fill="#666666"/>
<path d="M14.9873 5.43696H10.7863C10.8407 6.59339 11.3975 7.25874 12.5539 7.25874C13.5579 7.25874 13.9289 6.87722 14.0925 6.299H14.8892C14.7147 7.24817 13.9833 7.95708 12.5539 7.95708C10.8738 7.95708 9.98993 6.90956 9.98993 5.21848C9.98993 3.57097 10.8516 2.47955 12.5322 2.47955C14.2018 2.47955 14.9982 3.43994 14.9982 5.10957C14.9982 5.2297 14.9982 5.31683 14.9873 5.43696ZM14.2018 4.78218C14.1143 3.63631 13.5797 3.1779 12.5322 3.1779C11.452 3.1779 10.9173 3.76734 10.7972 4.78218H14.2018Z" fill="#666666"/>
<path d="M16.048 2.61058H16.7899V3.24358C17.0519 2.83962 17.5212 2.47955 18.3612 2.47955C19.2562 2.47955 19.9107 2.76338 20.2381 3.39638C20.5001 2.94886 21.0674 2.47955 22.0496 2.47955C23.3697 2.47955 24.1882 3.12344 24.1882 4.58548V7.82639H23.4242V4.67261C23.4242 3.58186 22.8568 3.1779 21.9621 3.1779C21.0565 3.1779 20.5001 3.58186 20.5001 4.67261V7.82639H19.7361V4.67261C19.7361 3.58186 19.1687 3.1779 18.274 3.1779C17.3684 3.1779 16.812 3.58186 16.812 4.67261V7.82639H16.048V2.61058Z" fill="#666666"/>
<path d="M30.5641 5.22967C30.5641 6.93131 29.7129 7.95705 27.9888 7.95705C27.1268 7.95705 26.4829 7.67388 26.1228 7.095V7.82635H25.3809V0.18811H26.1449V3.30889C26.5159 2.75245 27.1486 2.47952 27.9888 2.47952C29.7129 2.47952 30.5641 3.51615 30.5641 5.22967ZM29.7783 5.22967C29.7783 3.93099 29.1783 3.17786 27.9453 3.17786C26.7123 3.17786 26.1228 3.93099 26.1228 5.22967C26.1228 6.51679 26.7123 7.2587 27.9453 7.2587C29.1783 7.2587 29.7783 6.51679 29.7783 5.22967Z" fill="#666666"/>
<path d="M36.3274 5.43696H32.1264C32.1809 6.59339 32.7376 7.25874 33.8941 7.25874C34.898 7.25874 35.269 6.87722 35.4327 6.299H36.2294C36.0548 7.24817 35.3234 7.95708 33.8941 7.95708C32.2139 7.95708 31.3297 6.90956 31.3297 5.21848C31.3297 3.57097 32.1918 2.47955 33.8723 2.47955C35.5419 2.47955 36.3383 3.43994 36.3383 5.10957C36.3383 5.2297 36.3383 5.31683 36.3274 5.43696ZM35.5419 4.78218C35.4544 3.63631 34.9198 3.1779 33.8723 3.1779C32.7921 3.1779 32.2574 3.76734 32.1373 4.78218H35.5419Z" fill="#666666"/>
<path d="M39.5376 3.22179C38.6756 3.22179 38.0429 3.8109 38.0429 4.58548V7.82639H37.2789V2.61058H38.0208V3.3307C38.2719 2.87262 38.8175 2.47955 39.7013 2.47955C39.7666 2.47955 39.8323 2.47955 39.9194 2.49044V3.24358C39.8323 3.23268 39.6795 3.22179 39.5376 3.22179Z" fill="#666666"/>
<path d="M44.7224 2.47955C46.4574 2.47955 47.3412 3.52707 47.3412 5.21848C47.3412 6.90956 46.4574 7.95708 44.7224 7.95708C42.9878 7.95708 42.1145 6.90956 42.1145 5.21848C42.1145 3.52707 42.9878 2.47955 44.7224 2.47955ZM44.7224 7.25874C45.9666 7.25874 46.5557 6.50626 46.5557 5.21848C46.5557 3.93103 45.9666 3.1779 44.7224 3.1779C43.4785 3.1779 42.9003 3.93103 42.9003 5.21848C42.9003 6.50626 43.4785 7.25874 44.7224 7.25874Z" fill="#666666"/>
<path d="M48.7184 2.61055V1.90131C48.7184 0.624753 49.395 0.133667 50.4752 0.133667C50.7151 0.133667 50.8897 0.144558 51.0752 0.177231V0.864686C50.9115 0.842904 50.7699 0.832013 50.6171 0.832013C49.9623 0.832013 49.4821 0.995709 49.4821 1.91221V2.61055H51.0752V3.26533H49.4821V7.82636H48.7184V3.26533H47.6927V2.61055H48.7184Z" fill="#666666"/>
</g>
<defs>
<clipPath id="clip0_514_8736">
<rect width="160.173" height="8" fill="white" transform="translate(0.842102)"/>
</clipPath>
</defs>
</svg>
