<svg width="80" height="80" viewBox="0 0 80 80" fill="none" xmlns="http://www.w3.org/2000/svg">
<path d="M45.2718 28.6666H12.2051C9.99181 28.6666 8.20514 30.4533 8.20514 32.6666V37.0666H51.2451C48.3118 35.1466 46.1251 32.1866 45.2718 28.6666ZM8.20514 42.9333V63.3333C8.20514 65.5466 9.99181 67.3333 12.2051 67.3333H61.5385C63.7518 67.3333 65.5385 65.5466 65.5385 63.3333V42.9333H8.20514ZM70.8718 25.3333C70.8718 31.9733 65.5118 37.3333 58.8718 37.3333C52.2318 37.3333 46.8718 31.9733 46.8718 25.3333C46.8718 18.6933 52.2318 13.3333 58.8718 13.3333C65.5118 13.3333 70.8718 18.6933 70.8718 25.3333ZM66.2051 25.3333L59.2185 18.3466L57.6185 19.9466L61.8851 24.1866H51.5385V26.4533H61.9118L57.6451 30.6933L59.2451 32.2933L66.2051 25.3333Z" fill="rgb(5,22,77)"/>
</svg>
