<?xml version="1.0" encoding="utf-8"?>
<!-- Generator: Adobe Illustrator 12.0.0, SVG Export Plug-In  -->
<!DOCTYPE svg PUBLIC "-//W3C//DTD SVG 1.1//EN" "http://www.w3.org/Graphics/SVG/1.1/DTD/svg11.dtd" [
	<!ENTITY ns_flows "http://ns.adobe.com/Flows/1.0/">
	<!ENTITY ns_svg "http://www.w3.org/2000/svg">
	<!ENTITY ns_xlink "http://www.w3.org/1999/xlink">
]>
<svg  version="1.1" xmlns="&ns_svg;" xmlns:xlink="&ns_xlink;" xmlns:a="http://ns.adobe.com/AdobeSVGViewerExtensions/3.0/"
	 width="42" height="29" viewBox="0 0 42 29" enable-background="new 0 0 42 29" xml:space="preserve">
<defs>
</defs>
<path fill="#1366AC" d="M37.276,28.93H3.807C1.703,28.93,0,27.224,0,25.121V3.806C0,1.703,1.703,0,3.807,0h33.469
	c2.102,0,3.806,1.703,3.806,3.806v21.315C41.082,27.224,39.378,28.93,37.276,28.93"/>
<path id="path5689_2_" fill="#FFFFFF" d="M11.433,13.145H9.071c0-0.388-0.045-0.647-0.137-0.78c-0.14-0.196-0.528-0.294-1.163-0.294
	c-0.616,0-1.025,0.056-1.225,0.169c-0.199,0.113-0.299,0.36-0.299,0.739c0,0.343,0.088,0.569,0.266,0.678
	c0.126,0.077,0.294,0.122,0.503,0.136l0.477,0.034c1.021,0.067,1.658,0.115,1.912,0.143c0.808,0.081,1.393,0.296,1.756,0.644
	c0.286,0.271,0.456,0.626,0.51,1.064c0.032,0.262,0.048,0.558,0.048,0.888c0,0.759-0.073,1.315-0.217,1.667
	c-0.263,0.647-0.854,1.056-1.773,1.227c-0.385,0.073-0.974,0.109-1.766,0.109c-1.323,0-2.244-0.079-2.765-0.237
	c-0.639-0.193-1.06-0.586-1.264-1.178c-0.114-0.329-0.17-0.877-0.17-1.645h2.362c0,0.086,0,0.15,0,0.196
	c0,0.409,0.118,0.673,0.353,0.79c0.163,0.081,0.359,0.123,0.59,0.128h0.868c0.443,0,0.726-0.022,0.848-0.067
	c0.217-0.086,0.359-0.223,0.427-0.413c0.037-0.117,0.055-0.269,0.055-0.454c0-0.415-0.152-0.668-0.455-0.759
	c-0.113-0.036-0.64-0.086-1.58-0.148c-0.755-0.054-1.279-0.106-1.573-0.156c-0.773-0.145-1.289-0.442-1.545-0.895
	c-0.226-0.383-0.339-0.963-0.339-1.74c0-0.591,0.061-1.065,0.183-1.422s0.319-0.627,0.591-0.813
	c0.398-0.284,0.907-0.451,1.527-0.501c0.516-0.045,1.088-0.068,1.718-0.068c0.991,0,1.697,0.057,2.119,0.17
	c1.027,0.276,1.542,1.05,1.542,2.32C11.456,12.78,11.448,12.936,11.433,13.145"/>
<path id="path5693_2_" fill="#FFFFFF" d="M21.817,19.567v-9.432h3.7h0.58h0.449c0.648,0,1.144,0.053,1.483,0.159
	c0.778,0.244,1.3,0.743,1.567,1.497c0.138,0.396,0.207,0.992,0.207,1.788c0,0.956-0.077,1.644-0.229,2.063
	c-0.303,0.828-0.927,1.305-1.87,1.428c-0.111,0.019-0.583,0.035-1.415,0.049l-0.422,0.014h-1.513v2.436H21.817L21.817,19.567z
	 M24.356,14.944h1.583c0.502-0.019,0.807-0.057,0.916-0.117c0.15-0.082,0.251-0.247,0.302-0.495c0.032-0.165,0.048-0.41,0.048-0.736
	c0-0.398-0.032-0.693-0.096-0.888c-0.091-0.27-0.311-0.435-0.657-0.494c-0.068-0.01-0.232-0.015-0.491-0.015h-1.604V14.944z"/>
<path id="path5697_2_" fill="#FFFFFF" d="M35.223,17.938h-3.394l-0.456,1.63h-2.626l2.833-9.432h3.829l2.869,9.432h-2.571
	L35.223,17.938z M34.719,16.1l-1.189-4.088L32.376,16.1H34.719z"/>
<path id="path5701_2_" fill="#FABC16" d="M18.314,11.463c1.047,0,1.981,0.481,2.595,1.237l0.547-1.173
	c-0.855-0.809-2.021-1.308-3.305-1.308c-2,0-3.711,1.208-4.414,2.918h-1.067l-0.63,1.351h1.373
	c-0.011,0.125-0.018,0.251-0.018,0.379c0,0.154,0.008,0.308,0.023,0.459H12.73l-0.63,1.351h1.671
	c0.722,1.667,2.412,2.837,4.381,2.837c0.992,0,1.913-0.297,2.675-0.805v-1.656c-0.614,0.699-1.512,1.141-2.513,1.141
	c-1.17,0-2.2-0.604-2.799-1.517h3.498l0.63-1.351H15c-0.024-0.163-0.037-0.329-0.037-0.498c0-0.115,0.005-0.228,0.017-0.34h5.053
	l0.629-1.351h-5.246C15.998,12.137,17.078,11.463,18.314,11.463"/>
</svg>
