<svg width="48" height="32" viewBox="0 0 48 32" fill="none" xmlns="http://www.w3.org/2000/svg">
    <rect width="48" height="32" rx="4" fill="#F5F5F5"/>
    <path d="M12 8.8H28.3946V14.6027L27.84 13.8667C27.4773 13.376 26.8906 13.0773 26.2826 13.0773C25.216 13.0773 24.3413 13.952 24.3413 15.0187C24.3413 15.2213 24.3733 15.4133 24.4266 15.5947H11.2V9.6C11.2 9.16267 11.5626 8.8 12 8.8ZM31.3173 16.9707C31.1146 16.9707 30.9226 16.9387 30.7413 16.8853L29.8986 16.5973L31.68 18.9653L31.04 19.4453L29.2053 17.0027V23.2H36.0106C36.448 23.2 36.8106 22.8373 36.8106 22.4V16.4053H32.6933C32.3306 16.7467 31.8506 16.9707 31.3173 16.9707ZM36 8.8H29.1946V14.6027L29.7386 13.888C30.1013 13.3867 30.688 13.088 31.3173 13.088C32.384 13.088 33.2586 13.9627 33.2586 15.0293C33.2586 15.232 33.2266 15.424 33.1733 15.6053H36.8V9.6C36.8 9.16267 36.4373 8.8 36 8.8ZM31.3173 16.1707C31.9466 16.1707 32.4586 15.6587 32.4586 15.0293C32.4586 14.4 31.9466 13.888 31.3173 13.888C30.9546 13.888 30.6026 14.0693 30.3893 14.3573L29.4506 15.6053L30.9866 16.128C31.0826 16.1493 31.2 16.1707 31.3173 16.1707ZM25.92 18.9547L27.7013 16.5867L26.8693 16.864C26.6773 16.928 26.4853 16.9493 26.2826 16.9493C25.7493 16.9493 25.2693 16.736 24.9173 16.384H11.2V22.4C11.2 22.8373 11.5626 23.2 12 23.2H28.3946V17.0027L26.56 19.4453L25.92 18.9547ZM26.624 16.1173L28.1493 15.6053L27.2106 14.368C26.9866 14.0587 26.6453 13.888 26.2826 13.888C25.6533 13.888 25.1413 14.4 25.1413 15.0293C25.1413 15.6587 25.6533 16.1707 26.2826 16.1707C26.4 16.1707 26.5173 16.1493 26.624 16.1173Z" fill="#05164D"/>
</svg>
